<?xml version="1.0" encoding="utf-8"?>
<!-- Generator: Adobe Illustrator 18.0.0, SVG Export Plug-In . SVG Version: 6.00 Build 0)  -->
<!DOCTYPE svg PUBLIC "-//W3C//DTD SVG 1.1//EN" "http://www.w3.org/Graphics/SVG/1.1/DTD/svg11.dtd">
<svg version="1.1" id="C" xmlns="http://www.w3.org/2000/svg" xmlns:xlink="http://www.w3.org/1999/xlink" x="0px" y="0px"
	 width="300px" height="200px" viewBox="0 0 300 200" enable-background="new 0 0 300 200" xml:space="preserve">
<g>
	<g>
		<polygon fill="#575756" points="89.3,50.2 84,53 85,47.1 80.7,42.9 86.6,42.1 89.3,36.7 91.9,42.1 97.8,42.9 93.6,47.1 94.6,53 		
			"/>
		<polygon fill="#575756" points="178,123.2 172.7,126 173.7,120.1 169.5,115.9 175.4,115 178,109.7 180.7,115.1 186.6,115.9 
			182.3,120.1 183.3,126 		"/>
		<polygon fill="#575756" points="210.7,141 205.5,143.8 206.5,137.9 202.2,133.7 208.1,132.9 210.7,127.5 213.4,132.9 219.3,133.7 
			215,137.9 216,143.8 		"/>
	</g>
	<path fill="#575756" d="M210.8,153.7c-18.7,1.5-38-4.9-52.3-19.2c-25.9-25.9-25.9-68,0-93.9c3.8-3.8,8-7.1,12.4-9.8
		c-19-1.1-38.4,5.7-52.9,20.2c-27.1,27.1-27.1,71,0,98C143.3,174.4,183.5,176,210.8,153.7z"/>
</g>
</svg>
