<?xml version="1.0" encoding="utf-8"?>
<!-- Generator: Adobe Illustrator 18.0.0, SVG Export Plug-In . SVG Version: 6.00 Build 0)  -->
<!DOCTYPE svg PUBLIC "-//W3C//DTD SVG 1.1//EN" "http://www.w3.org/Graphics/SVG/1.1/DTD/svg11.dtd">
<svg version="1.1" id="E" xmlns="http://www.w3.org/2000/svg" xmlns:xlink="http://www.w3.org/1999/xlink" x="0px" y="0px"
	 width="300px" height="200px" viewBox="0 0 300 200" enable-background="new 0 0 300 200" xml:space="preserve">
<g>
	<g>
		<polygon fill="#575756" points="145.8,50.2 140.5,53 141.6,47.1 137.3,42.9 143.2,42.1 145.8,36.7 148.5,42.1 154.4,42.9 
			150.1,47.1 151.1,53 		"/>
		<polygon fill="#575756" points="234.6,123.2 229.3,126 230.3,120.1 226,115.9 231.9,115.1 234.6,109.7 237.2,115.1 243.1,115.9 
			238.8,120.1 239.9,126 		"/>
		<polygon fill="#575756" points="267.3,141 262,143.8 263,137.9 258.7,133.8 264.6,132.9 267.3,127.5 269.9,132.9 275.8,133.8 
			271.6,137.9 272.6,143.8 		"/>
	</g>
	<path fill="#575756" d="M209,130c0-16.3-13-29.3-28.9-29.3c-2.9,0-5.3,0.9-8.1,1.8c-2.8-24.9-21.4-44.4-47.2-47
		c0,0-4.6-0.3-6.9-0.3c-27.7,0-50.6,21.3-53.2,48.4c-3.5-1.4-7.3-2.1-11.1-2.1c-16.5,0-29.4,13.5-29.4,30c0,16.3,13.7,29.7,30,30v0
		l125.9,0.3c1.3,0,6.1-0.7,6.4-0.8c5.4-1.2,10.2-3.9,13.9-7.9c4.7-4.8,7.7-11.4,8.4-18.6C208.9,133.5,209,130,209,130z"/>
	<g>
		<path fill="#575756" d="M176,96.1c1.3-0.2,2.6-0.4,4-0.4c6.1,0,11.8,1.6,16.7,4.5c-4-20.9,2-43.4,18.2-59.6
			c3.8-3.8,8-7.1,12.4-9.8c-19-1.1-38.4,5.7-52.9,20.2c-5.2,5.2-9.4,11.1-12.6,17.4C168.8,75.9,173.8,85.4,176,96.1z"/>
		<path fill="#575756" d="M215,134.5c-0.4-0.4-0.7-0.8-1.1-1.2c0,0.6,0,1.2-0.1,1.5c-0.7,8.3-4.2,16-9.7,21.6
			c-2.6,2.8-5.7,5-9.2,6.7c23.5,10.6,51.7,7.5,72.3-9.4C248.6,155.3,229.3,148.8,215,134.5z"/>
	</g>
</g>
</svg>
