<?xml version="1.0" encoding="utf-8"?>
<!-- Generator: Adobe Illustrator 18.0.0, SVG Export Plug-In . SVG Version: 6.00 Build 0)  -->
<!DOCTYPE svg PUBLIC "-//W3C//DTD SVG 1.1//EN" "http://www.w3.org/Graphics/SVG/1.1/DTD/svg11.dtd">
<svg version="1.1" id="F" xmlns="http://www.w3.org/2000/svg" xmlns:xlink="http://www.w3.org/1999/xlink" x="0px" y="0px"
	 width="300px" height="200px" viewBox="0 0 300 200" enable-background="new 0 0 300 200" xml:space="preserve">
<path fill="#B2B3B8" d="M258.6,80.6c-3.6,0-7.1,0.6-10.5,1.7C244.4,49.5,216.6,24,182.9,24c-20.7,0-39.2,9.7-51.3,24.8
	c-2.8-0.4-5.5-0.6-8.4-0.6c-34.1,0-62.2,26.1-65.4,59.4c-4.3-1.7-8.9-2.6-13.7-2.6c-20.3,0-36.1,16.6-36.1,36.9
	c0,20.1,16.9,36.4,36.9,36.8v0l154.7,0.3c15.3,0,27.8-9,32.9-24h-0.1l26.2-0.2c19.7,0,35.6-16.7,35.6-37.1
	C294.3,97.3,278.3,80.6,258.6,80.6z M199,167l-155.3-0.2c-13.5-0.3-24.5-11.5-24.5-25c0-13.8,11.2-25,25-25c3.2,0,6.3,0.6,9.2,1.8
	l14.7,5.9l1.5-15.8C72.3,80.9,95.3,60,123.2,60c27.4,0,50.4,20.5,53.5,47.8l1.6,14.4l13.8-4.5c2.2-0.7,4.5-1.1,6.9-1.1
	c13.1,0,23.8,11.3,23.8,25.2C222.8,155.7,212.1,167,199,167z M258.7,142.8l-24.1,0v0c0-0.3,0-0.7,0-1c0-20.4-16-37-35.7-37
	c-3.6,0-7.1,0.6-10.5,1.7c-2.9-25.5-20.4-46.5-43.9-54.7c9.8-9.9,23.3-16,38.3-16c27.4,0,50.4,20.5,53.5,47.8L238,98l13.8-4.5
	c2.2-0.7,4.5-1.1,6.9-1.1c13.1,0,23.8,11.3,23.8,25.2C282.5,131.5,271.8,142.8,258.7,142.8z"/>
</svg>
