<?xml version="1.0" encoding="utf-8"?>
<!-- Generator: Adobe Illustrator 18.0.0, SVG Export Plug-In . SVG Version: 6.00 Build 0)  -->
<!DOCTYPE svg PUBLIC "-//W3C//DTD SVG 1.1//EN" "http://www.w3.org/Graphics/SVG/1.1/DTD/svg11.dtd">
<svg version="1.1" id="G" xmlns="http://www.w3.org/2000/svg" xmlns:xlink="http://www.w3.org/1999/xlink" x="0px" y="0px"
	 width="300px" height="200px" viewBox="0 0 300 200" enable-background="new 0 0 300 200" xml:space="preserve">
<path fill="#B2B3B8" d="M258.6,80.6c-3.6,0-7.1,0.6-10.5,1.7C244.4,49.5,216.6,24,182.9,24c-16.4,0-31.4,6.1-42.9,16.1
	c28.2,5.6,50.5,26.9,57.7,54.9c0.8,0,1.1-0.1,2-0.1c25.2,0,45.7,21.1,45.7,47c0,4.5-0.7,8.8-2.2,12.9l15.5-0.1
	c19.7,0,35.6-16.7,35.6-37.1C294.3,97.3,278.3,80.6,258.6,80.6z"/>
<path fill="#B2B3B8" d="M235.2,140c0-20-15.9-36-35.6-36c-3.6,0-6.6,1.1-10,2.2c-3.4-30.6-26.3-54.6-58-57.8c0,0-5.6-0.4-8.5-0.4
	C89.1,48,61,74.2,57.9,107.5c-4.3-1.7-8.9-2.6-13.7-2.6c-20.3,0-36.1,16.6-36.1,36.9c0,20.1,16.9,36.5,36.9,36.9v0l154.7,0.3
	c1.5,0,7.5-0.9,7.9-0.9c6.7-1.5,12.6-4.8,17.1-9.7c5.8-6,9.5-14,10.3-22.9C235.1,144.3,235.2,140,235.2,140z"/>
</svg>
