<?xml version="1.0" encoding="utf-8"?>
<!-- Generator: Adobe Illustrator 18.0.0, SVG Export Plug-In . SVG Version: 6.00 Build 0)  -->
<!DOCTYPE svg PUBLIC "-//W3C//DTD SVG 1.1//EN" "http://www.w3.org/Graphics/SVG/1.1/DTD/svg11.dtd">
<svg version="1.1" id="I" xmlns="http://www.w3.org/2000/svg" xmlns:xlink="http://www.w3.org/1999/xlink" x="0px" y="0px"
	 width="300px" height="200px" viewBox="0 0 300 200" enable-background="new 0 0 300 200" xml:space="preserve">
<g>
	<path fill="#575756" d="M117.9,48.1c1.5,0,6.3,0.3,6.6,0.3c22.9,2.4,39.9,19.5,42.5,42.6l0.7,6.1c0,0,10.5-3.4,12.4-3.4
		c13.2,0,23.9,10.9,23.9,24.2c0,1.6-0.1,3.5-0.1,4c-0.5,6-3,11.5-7.1,15.7c-3,3.3-6.9,5.4-11.2,6.4c-0.8,0.1-4.7,0.7-5.5,0.7
		l-38.3-0.1l-0.1,5l38.4,0.1c1.3,0,6.1-0.7,6.4-0.8c5.4-1.2,10.2-3.9,13.9-7.9c4.7-4.8,7.7-11.4,8.4-18.6c0.1-0.9,0.1-4.4,0.1-4.4
		c0-16.3-13-29.3-28.9-29.3c-2.9,0-5.3,0.9-8.1,1.8c-2.8-24.9-21.4-44.4-47.2-47c0,0,0,0,0,0c-0.4,0-4.7-0.3-6.9-0.3l0,0
		c-27.7,0-50.6,21.3-53.2,48.4c-3.5-1.4-7.3-2.1-11.1-2.1c-16.5,0-29.4,13.5-29.4,30c0,16.3,13.7,29.7,30,30v0l37.2,0.1l0.1-5
		l-37.2-0.1c-13.8-0.3-25.1-11.5-25.1-25c0-14,10.7-25,24.4-25c3.2,0,6.4,0.6,9.2,1.8l6.2,2.5l0.6-6.7C72,67.4,93.2,48.1,117.9,48.1
		"/>
	<g>
		<polygon fill="#575756" points="145.8,38.2 140.5,41 141.6,35.1 137.3,30.9 143.2,30 145.8,24.7 148.5,30 154.4,30.9 150.1,35.1 
			151.1,41 		"/>
		<polygon fill="#575756" points="234.6,111.1 229.3,113.9 230.3,108 226,103.9 231.9,103 234.6,97.7 237.2,103 243.1,103.9 
			238.8,108 239.9,113.9 		"/>
		<polygon fill="#575756" points="267.3,129 262,131.8 263,125.9 258.7,121.7 264.6,120.8 267.3,115.5 269.9,120.8 275.8,121.7 
			271.6,125.9 272.6,131.8 		"/>
	</g>
	<g>
		<path fill="#575756" d="M176,84.1c1.3-0.2,2.6-0.4,4-0.4c6.1,0,11.8,1.6,16.7,4.5c-4-20.9,2-43.4,18.2-59.6
			c3.8-3.8,8-7.1,12.4-9.8c-19-1.1-38.4,5.7-52.9,20.2c-5.2,5.2-9.4,11.1-12.6,17.4C168.8,63.8,173.8,73.3,176,84.1z"/>
		<path fill="#575756" d="M215,122.5c-0.4-0.4-0.7-0.8-1.1-1.2c0,0.6,0,1.2-0.1,1.5c-0.7,8.3-4.2,16-9.7,21.6
			c-2.6,2.8-5.7,5-9.2,6.7c23.5,10.6,51.7,7.5,72.3-9.4C248.6,143.2,229.3,136.8,215,122.5z"/>
	</g>
	<path fill="#575756" d="M128.9,138.4c-4.8-6.1-8.6-13-12.1-20.1c-3.5,7.1-7.4,13.9-12.1,20.1c-5.5,7.1-9.5,15.2-8.2,24.6
		c1.7,12.7,10.2,18.3,20.4,18.3s18.6-5.6,20.4-18.3C138.4,153.6,134.4,145.6,128.9,138.4z"/>
</g>
</svg>
