<?xml version="1.0" encoding="utf-8"?>
<!-- Generator: Adobe Illustrator 18.0.0, SVG Export Plug-In . SVG Version: 6.00 Build 0)  -->
<!DOCTYPE svg PUBLIC "-//W3C//DTD SVG 1.1//EN" "http://www.w3.org/Graphics/SVG/1.1/DTD/svg11.dtd">
<svg version="1.1" id="J" xmlns="http://www.w3.org/2000/svg" xmlns:xlink="http://www.w3.org/1999/xlink" x="0px" y="0px"
	 width="300px" height="200px" viewBox="0 0 300 200" enable-background="new 0 0 300 200" xml:space="preserve">
<g>
	<path fill="#008ADF" d="M162.9,138.7c-4.8-6.1-8.6-13-12.1-20.1c-3.5,7.1-7.4,13.9-12.1,20.1c-5.5,7.1-9.5,15.2-8.2,24.6
		c1.7,12.7,10.2,18.3,20.4,18.3s18.6-5.6,20.4-18.3C172.4,153.9,168.4,145.8,162.9,138.7z"/>
	<path fill="#B2B3B8" d="M153,26.2c27.4,0,50.4,20.5,53.5,47.8l1.6,14.4l13.8-4.5c2.2-0.7,4.5-1.1,6.9-1.1
		c13.1,0,23.8,11.3,23.8,25.2c0,13.9-10.7,25.2-23.8,25.2l-47.8,0L181,145l48.1,0c19.7,0,35.5-16.6,35.5-37c0-20.4-16.1-37-35.8-37
		c-3.6,0-7.2,0.6-10.6,1.7c-3.7-32.8-31.6-58.3-65.3-58.3l0,0c-34.1,0-62.2,26.1-65.4,59.4c-4.3-1.7-8.9-2.6-13.7-2.6
		c-20.3,0-36.5,16.6-36.5,36.9c0,20.1,16.5,36.4,36.5,36.8v0l46.6,0l-0.1-11.8l-47,0c-13.5-0.3-24.5-11.5-24.5-25
		c0-13.8,11.2-25,25-25c3.2,0,6.3,0.6,9.2,1.8l14.7,5.9l1.5-15.8C102,47.1,125,26.2,153,26.2"/>
</g>
</svg>
