<?xml version="1.0" encoding="utf-8"?>
<!-- Generator: Adobe Illustrator 18.0.0, SVG Export Plug-In . SVG Version: 6.00 Build 0)  -->
<!DOCTYPE svg PUBLIC "-//W3C//DTD SVG 1.1//EN" "http://www.w3.org/Graphics/SVG/1.1/DTD/svg11.dtd">
<svg version="1.1" id="M" xmlns="http://www.w3.org/2000/svg" xmlns:xlink="http://www.w3.org/1999/xlink" x="0px" y="0px"
	 width="300px" height="200px" viewBox="0 0 300 200" enable-background="new 0 0 300 200" xml:space="preserve">
<g>
	<g>
		<path fill="#B2B3B8" d="M153,34.4c27.4,0,50.4,20.5,53.5,47.8l1.6,14.4l13.8-4.5c2.2-0.7,4.5-1.1,6.9-1.1
			c13.1,0,23.8,11.3,23.8,25.2c0,13.9-10.7,25.2-23.8,25.2l-17.8,0l0.1,11.8l18.1,0c19.7,0,35.5-16.6,35.5-37
			c0-20.4-16.1-37-35.8-37c-3.6,0-7.2,0.6-10.6,1.7c-3.7-32.8-31.6-58.3-65.3-58.3l0,0c-34.1,0-62.2,26.1-65.4,59.4
			c-4.3-1.7-8.9-2.6-13.7-2.6c-20.3,0-36.5,16.6-36.5,36.9c0,20.1,16.5,36.4,36.5,36.8v0l16.6,0l-0.1-11.8l-17,0
			c-13.5-0.3-24.5-11.5-24.5-25c0-13.8,11.2-25,25-25c3.2,0,6.3,0.6,9.2,1.8l14.7,5.9L99.4,83C102,55.3,125,34.4,153,34.4"/>
	</g>
	<g>
		<path fill="#B2B3B8" d="M153,155c0-1.5-1.3-2.8-2.8-2.8h-14c-1.5,0-1.9-0.9-0.8-2l9.9-9.9c1.1-1.1,1.1-2.8,0-3.9
			c-1.1-1.1-2.8-1-3.9,0l-9.9,9.9c-1.1,1.1-2,0.7-2-0.8v-14c0-1.5-1.2-2.8-2.7-2.8c-1.5,0-2.8,1.3-2.8,2.8v14c0,1.5-0.9,1.9-2,0.8
			l-9.9-9.9c-1.1-1.1-2.8-1.1-3.9,0c-1.1,1.1-1.1,2.8,0,3.9l9.9,9.9c1.1,1.1,0.7,2-0.8,2h-14c-1.5,0-2.8,1.2-2.8,2.8
			c0,1.5,1.3,2.7,2.8,2.7h14c1.5,0,1.9,0.9,0.8,2l-9.9,9.9c-1.1,1.1-1.1,2.9,0,3.9c1.1,1.1,2.8,1.1,3.9,0l9.9-9.9
			c1.1-1.1,2-0.7,2,0.8v14c0,1.5,1.2,2.8,2.8,2.8c1.5,0,2.7-1.3,2.7-2.8v-14c0-1.5,0.9-1.9,2-0.8l9.9,9.9c1.1,1.1,2.9,1.1,3.9,0
			c1.1-1.1,1.1-2.8,0-3.9l-9.9-9.9c-1.1-1.1-0.7-2,0.8-2h14C151.8,157.8,153,156.5,153,155z"/>
		<path fill="#008ADF" d="M193.9,145.5c-4-5.1-7.2-10.8-10.1-16.7c-2.9,5.9-6.1,11.6-10.1,16.7c-4.6,5.9-7.9,12.6-6.8,20.4
			c1.4,10.6,8.5,15.2,16.9,15.2c8.4,0,15.5-4.7,16.9-15.2C201.8,158.1,198.5,151.4,193.9,145.5z"/>
	</g>
</g>
</svg>
