<?xml version="1.0" encoding="utf-8"?>
<!-- Generator: Adobe Illustrator 18.0.0, SVG Export Plug-In . SVG Version: 6.00 Build 0)  -->
<!DOCTYPE svg PUBLIC "-//W3C//DTD SVG 1.1//EN" "http://www.w3.org/Graphics/SVG/1.1/DTD/svg11.dtd">
<svg version="1.1" id="N" xmlns="http://www.w3.org/2000/svg" xmlns:xlink="http://www.w3.org/1999/xlink" x="0px" y="0px"
	 width="300px" height="200px" viewBox="0 0 300 200" enable-background="new 0 0 300 200" xml:space="preserve">
<g>
	<path fill="#B2B3B8" d="M152.2,17.2c27.4,0,50.4,20.5,53.5,47.8l1.6,14.4l13.8-4.5c2.2-0.7,4.5-1.1,6.9-1.1
		c13.1,0,23.8,11.3,23.8,25.2c0,13.9-10.7,25.2-23.8,25.2L72.7,124c-13.5-0.3-24.5-11.5-24.5-25c0-13.8,11.2-25,25-25
		c3.2,0,6.3,0.6,9.2,1.8l14.7,5.9l1.5-15.8C101.2,38.1,124.3,17.2,152.2,17.2 M152.2,5.4c-34.1,0-62.2,26.1-65.4,59.4
		c-4.3-1.7-8.9-2.6-13.7-2.6c-20.3,0-35.6,16.6-35.6,36.9c0,20.1,17.4,36.4,37.4,36.8v0l154.2,0.1c19.7,0,35-16.6,35-37
		c0-20.4-16.3-37-36-37c-3.6,0-7.3,0.6-10.7,1.7C213.9,30.9,185.9,5.4,152.2,5.4L152.2,5.4z"/>
	<g>
		<g>
			<circle fill="#B2B3B8" cx="151.2" cy="155.4" r="9.1"/>
			<circle fill="#B2B3B8" cx="151.2" cy="185.4" r="9.1"/>
		</g>
		<g>
			<circle fill="#B2B3B8" cx="216.2" cy="155.4" r="9.1"/>
			<circle fill="#B2B3B8" cx="216.2" cy="185.4" r="9.1"/>
		</g>
		<g>
			<circle fill="#B2B3B8" cx="81.2" cy="155.4" r="9.1"/>
			<circle fill="#B2B3B8" cx="81.2" cy="185.4" r="9.1"/>
		</g>
	</g>
</g>
</svg>
