<?xml version="1.0" encoding="utf-8"?>
<!-- Generator: Adobe Illustrator 18.0.0, SVG Export Plug-In . SVG Version: 6.00 Build 0)  -->
<!DOCTYPE svg PUBLIC "-//W3C//DTD SVG 1.1//EN" "http://www.w3.org/Graphics/SVG/1.1/DTD/svg11.dtd">
<svg version="1.1" id="O" xmlns="http://www.w3.org/2000/svg" xmlns:xlink="http://www.w3.org/1999/xlink" x="0px" y="0px"
	 width="300px" height="200px" viewBox="0 0 300 200" enable-background="new 0 0 300 200" xml:space="preserve">
<g>
	<g>
		<path fill="#B2B3B8" d="M237.7,59.5c-2.9,0-5.8,0.5-8.6,1.4c-3-26.7-25.7-47.4-53.1-47.4c-13.4,0-25.5,5-34.9,13.1
			c23,4.5,41.1,21.9,47,44.7c0.7,0,0.9-0.1,1.6-0.1c20.5,0,37.2,17.2,37.2,38.2c0,3.7-0.5,7.2-1.8,10.5l12.6-0.1
			c16,0,29-13.6,29-30.2C266.7,73.1,253.7,59.5,237.7,59.5z"/>
		<path fill="#B2B3B8" d="M218.6,107.9c0-16.3-13-29.3-28.9-29.3c-2.9,0-5.3,0.9-8.1,1.8c-2.8-24.9-21.4-44.4-47.2-47
			c0,0-4.6-0.3-6.9-0.3c-27.7,0-50.6,21.3-53.2,48.4c-3.5-1.4-7.3-2.1-11.1-2.1c-16.5,0-29.4,13.5-29.4,30c0,16.3,13.7,29.7,30,30v0
			l125.9,0.3c1.3,0,6.1-0.7,6.4-0.8c5.4-1.2,10.2-3.9,13.9-7.9c4.7-4.8,7.7-11.4,8.4-18.6C218.6,111.4,218.6,107.9,218.6,107.9z"/>
	</g>
	<g>
		<path fill="#008ADF" d="M174.1,180.2c-1.1-1.4-1.9-2.9-2.7-4.4c-0.8,1.6-1.6,3.1-2.7,4.4c-1.2,1.6-2.1,3.4-1.8,5.4
			c0.4,2.8,2.3,4.1,4.5,4.1c2.2,0,4.1-1.2,4.5-4.1C176.2,183.5,175.3,181.7,174.1,180.2z"/>
		<path fill="#008ADF" d="M204.6,180.2c-1.1-1.4-1.9-2.9-2.7-4.4c-0.8,1.6-1.6,3.1-2.7,4.4c-1.2,1.6-2.1,3.4-1.8,5.4
			c0.4,2.8,2.3,4.1,4.5,4.1c2.2,0,4.1-1.2,4.5-4.1C206.7,183.5,205.8,181.7,204.6,180.2z"/>
		<path fill="#008ADF" d="M143.5,180.2c-1.1-1.4-1.9-2.9-2.7-4.4c-0.8,1.6-1.6,3.1-2.7,4.4c-1.2,1.6-2.1,3.4-1.8,5.4
			c0.4,2.8,2.3,4.1,4.5,4.1s4.1-1.2,4.5-4.1C145.6,183.5,144.8,181.7,143.5,180.2z"/>
		<path fill="#008ADF" d="M113,180.2c-1.1-1.4-1.9-2.9-2.7-4.4c-0.8,1.6-1.6,3.1-2.7,4.4c-1.2,1.6-2.1,3.4-1.8,5.4
			c0.4,2.8,2.3,4.1,4.5,4.1c2.2,0,4.1-1.2,4.5-4.1C115.1,183.5,114.2,181.7,113,180.2z"/>
		<path fill="#008ADF" d="M82.5,180.2c-1.1-1.4-1.9-2.9-2.7-4.4c-0.8,1.6-1.6,3.1-2.7,4.4c-1.2,1.6-2.1,3.4-1.8,5.4
			c0.4,2.8,2.3,4.1,4.5,4.1c2.2,0,4.1-1.2,4.5-4.1C84.6,183.5,83.7,181.7,82.5,180.2z"/>
		<path fill="#008ADF" d="M51.9,180.2c-1.1-1.4-1.9-2.9-2.7-4.4c-0.8,1.6-1.6,3.1-2.7,4.4c-1.2,1.6-2.1,3.4-1.8,5.4
			c0.4,2.8,2.3,4.1,4.5,4.1c2.2,0,4.1-1.2,4.5-4.1C54,183.5,53.2,181.7,51.9,180.2z"/>
		<path fill="#008ADF" d="M174.1,155.2c-1.1-1.4-1.9-2.9-2.7-4.4c-0.8,1.6-1.6,3.1-2.7,4.4c-1.2,1.6-2.1,3.4-1.8,5.4
			c0.4,2.8,2.3,4.1,4.5,4.1c2.2,0,4.1-1.2,4.5-4.1C176.2,158.5,175.3,156.7,174.1,155.2z"/>
		<path fill="#008ADF" d="M204.6,155.2c-1.1-1.4-1.9-2.9-2.7-4.4c-0.8,1.6-1.6,3.1-2.7,4.4c-1.2,1.6-2.1,3.4-1.8,5.4
			c0.4,2.8,2.3,4.1,4.5,4.1c2.2,0,4.1-1.2,4.5-4.1C206.7,158.5,205.8,156.7,204.6,155.2z"/>
		<path fill="#008ADF" d="M143.5,155.2c-1.1-1.4-1.9-2.9-2.7-4.4c-0.8,1.6-1.6,3.1-2.7,4.4c-1.2,1.6-2.1,3.4-1.8,5.4
			c0.4,2.8,2.3,4.1,4.5,4.1s4.1-1.2,4.5-4.1C145.6,158.5,144.8,156.7,143.5,155.2z"/>
		<path fill="#008ADF" d="M113,155.2c-1.1-1.4-1.9-2.9-2.7-4.4c-0.8,1.6-1.6,3.1-2.7,4.4c-1.2,1.6-2.1,3.4-1.8,5.4
			c0.4,2.8,2.3,4.1,4.5,4.1c2.2,0,4.1-1.2,4.5-4.1C115.1,158.5,114.2,156.7,113,155.2z"/>
		<path fill="#008ADF" d="M82.5,155.2c-1.1-1.4-1.9-2.9-2.7-4.4c-0.8,1.6-1.6,3.1-2.7,4.4c-1.2,1.6-2.1,3.4-1.8,5.4
			c0.4,2.8,2.3,4.1,4.5,4.1c2.2,0,4.1-1.2,4.5-4.1C84.6,158.5,83.7,156.7,82.5,155.2z"/>
		<path fill="#008ADF" d="M51.9,155.2c-1.1-1.4-1.9-2.9-2.7-4.4c-0.8,1.6-1.6,3.1-2.7,4.4c-1.2,1.6-2.1,3.4-1.8,5.4
			c0.4,2.8,2.3,4.1,4.5,4.1c2.2,0,4.1-1.2,4.5-4.1C54,158.5,53.2,156.7,51.9,155.2z"/>
	</g>
</g>
</svg>
