<?xml version="1.0" encoding="utf-8"?>
<!-- Generator: Adobe Illustrator 18.0.0, SVG Export Plug-In . SVG Version: 6.00 Build 0)  -->
<!DOCTYPE svg PUBLIC "-//W3C//DTD SVG 1.1//EN" "http://www.w3.org/Graphics/SVG/1.1/DTD/svg11.dtd">
<svg version="1.1" id="P" xmlns="http://www.w3.org/2000/svg" xmlns:xlink="http://www.w3.org/1999/xlink" x="0px" y="0px"
	 width="300px" height="200px" viewBox="0 0 300 200" enable-background="new 0 0 300 200" xml:space="preserve">
<g>
	<g>
		<g>
			<path fill="#B2B3B8" d="M237.5,60.7c-2.9,0-5.8,0.5-8.6,1.4c-3-26.7-25.7-47.4-53.1-47.4c-13.4,0-25.5,5-34.9,13.1
				c23,4.5,41.1,21.9,47,44.7c0.7,0,0.9-0.1,1.6-0.1c20.5,0,37.2,17.2,37.2,38.2c0,3.7-0.5,7.2-1.8,10.5l12.6-0.1
				c16,0,29-13.6,29-30.2C266.6,74.3,253.5,60.7,237.5,60.7z"/>
			<path fill="#B2B3B8" d="M218.5,109c0-16.3-13-29.3-28.9-29.3c-2.9,0-5.3,0.9-8.1,1.8c-2.8-24.9-21.4-44.4-47.2-47
				c0,0-4.6-0.3-6.9-0.3c-27.7,0-50.6,21.3-53.2,48.4c-3.5-1.4-7.3-2.1-11.1-2.1c-16.5,0-29.4,13.5-29.4,30c0,16.3,13.7,29.7,30,30
				v0l125.9,0.3c1.3,0,6.1-0.7,6.4-0.8c5.4-1.2,10.2-3.9,13.9-7.9c4.7-4.8,7.7-11.4,8.4-18.6C218.4,112.5,218.5,109,218.5,109z"/>
		</g>
	</g>
	<g>
		<path fill="#008ADF" d="M83,162.3c-2.7-3.5-4.9-7.4-6.9-11.4c-2,4-4.2,7.9-6.9,11.4c-3.1,4.1-5.4,8.7-4.7,14
			c1,7.3,5.8,10.5,11.6,10.5c5.8,0,10.6-3.2,11.6-10.5C88.5,170.9,86.2,166.3,83,162.3z"/>
		<path fill="#008ADF" d="M132.6,162.3c-2.7-3.5-4.9-7.4-6.9-11.4c-2,4-4.2,7.9-6.9,11.4c-3.1,4.1-5.4,8.7-4.7,14
			c1,7.3,5.8,10.5,11.6,10.5c5.8,0,10.6-3.2,11.6-10.5C138,170.9,135.7,166.3,132.6,162.3z"/>
		<path fill="#008ADF" d="M182.1,162.3c-2.7-3.5-4.9-7.4-6.9-11.4c-2,4-4.2,7.9-6.9,11.4c-3.1,4.1-5.4,8.7-4.7,14
			c1,7.3,5.8,10.5,11.6,10.5s10.6-3.2,11.6-10.5C187.5,170.9,185.3,166.3,182.1,162.3z"/>
	</g>
</g>
</svg>
