<?xml version="1.0" encoding="utf-8"?>
<!-- Generator: Adobe Illustrator 18.0.0, SVG Export Plug-In . SVG Version: 6.00 Build 0)  -->
<!DOCTYPE svg PUBLIC "-//W3C//DTD SVG 1.1//EN" "http://www.w3.org/Graphics/SVG/1.1/DTD/svg11.dtd">
<svg version="1.1" id="Q" xmlns="http://www.w3.org/2000/svg" xmlns:xlink="http://www.w3.org/1999/xlink" x="0px" y="0px"
	 width="300px" height="200px" viewBox="0 0 300 200" enable-background="new 0 0 300 200" xml:space="preserve">
<g>
	<g>
		<path fill="#B2B3B8" d="M237.5,58c-2.9,0-5.8,0.5-8.6,1.4c-3-26.7-25.7-47.4-53.1-47.4c-13.4,0-25.5,5-34.9,13.1
			c23,4.5,41.1,21.9,47,44.7c0.7,0,0.9-0.1,1.6-0.1c20.5,0,37.2,17.2,37.2,38.2c0,3.7-0.5,7.2-1.8,10.5l12.6-0.1
			c16,0,29-13.6,29-30.2C266.6,71.6,253.5,58,237.5,58z"/>
		<path fill="#B2B3B8" d="M218.5,106.3c0-16.3-13-29.3-28.9-29.3c-2.9,0-5.3,0.9-8.1,1.8c-2.8-24.9-21.4-44.4-47.2-47
			c0,0-4.6-0.3-6.9-0.3c-27.7,0-50.6,21.3-53.2,48.4c-3.5-1.4-7.3-2.1-11.1-2.1c-16.5,0-29.4,13.5-29.4,30c0,16.3,13.7,29.7,30,30v0
			l125.9,0.3c1.3,0,6.1-0.7,6.4-0.8c5.4-1.2,10.2-3.9,13.9-7.9c4.7-4.8,7.7-11.4,8.4-18.6C218.4,109.8,218.5,106.3,218.5,106.3z"/>
	</g>
	<g>
		<path fill="#B2B3B8" d="M82.1,168.2c0-1.2-1-2.1-2.1-2.1H69.3c-1.2,0-1.5-0.7-0.6-1.5l7.5-7.5c0.8-0.8,0.8-2.2,0-3
			c-0.8-0.8-2.2-0.8-3,0l-7.5,7.5c-0.8,0.8-1.5,0.5-1.5-0.6v-10.7c0-1.2-0.9-2.1-2.1-2.1c-1.2,0-2.1,1-2.1,2.1V161
			c0,1.2-0.7,1.5-1.5,0.6l-7.5-7.5c-0.8-0.8-2.2-0.8-3,0c-0.8,0.8-0.8,2.2,0,3l7.5,7.5c0.8,0.8,0.5,1.5-0.6,1.5H44.3
			c-1.2,0-2.1,0.9-2.1,2.1c0,1.2,1,2.1,2.1,2.1H55c1.2,0,1.4,0.7,0.6,1.5l-7.5,7.5c-0.8,0.8-0.8,2.2,0,3c0.8,0.8,2.2,0.8,3,0
			l7.5-7.5c0.8-0.8,1.5-0.6,1.5,0.6V186c0,1.2,0.9,2.1,2.1,2.1c1.2,0,2.1-1,2.1-2.1v-10.6c0-1.2,0.7-1.5,1.5-0.6l7.5,7.5
			c0.8,0.8,2.2,0.8,3,0c0.8-0.8,0.8-2.2,0-3l-7.5-7.5c-0.8-0.8-0.5-1.5,0.6-1.5H80C81.2,170.3,82.1,169.3,82.1,168.2z"/>
		<path fill="#B2B3B8" d="M145.9,168.2c0-1.2-1-2.1-2.1-2.1h-10.6c-1.2,0-1.5-0.7-0.6-1.5l7.5-7.5c0.8-0.8,0.8-2.2,0-3
			c-0.8-0.8-2.2-0.8-3,0l-7.5,7.5c-0.8,0.8-1.5,0.5-1.5-0.6v-10.7c0-1.2-0.9-2.1-2.1-2.1c-1.2,0-2.1,1-2.1,2.1V161
			c0,1.2-0.7,1.5-1.5,0.6l-7.5-7.5c-0.8-0.8-2.2-0.8-3,0c-0.8,0.8-0.8,2.2,0,3l7.5,7.5c0.8,0.8,0.5,1.5-0.6,1.5H108
			c-1.2,0-2.1,0.9-2.1,2.1c0,1.2,1,2.1,2.1,2.1h10.7c1.2,0,1.4,0.7,0.6,1.5l-7.5,7.5c-0.8,0.8-0.8,2.2,0,3c0.8,0.8,2.2,0.8,3,0
			l7.5-7.5c0.8-0.8,1.5-0.6,1.5,0.6V186c0,1.2,0.9,2.1,2.1,2.1c1.2,0,2.1-1,2.1-2.1v-10.6c0-1.2,0.7-1.5,1.5-0.6l7.5,7.5
			c0.8,0.8,2.2,0.8,3,0c0.8-0.8,0.8-2.2,0-3l-7.5-7.5c-0.8-0.8-0.5-1.5,0.6-1.5h10.6C144.9,170.3,145.9,169.3,145.9,168.2z"/>
		<path fill="#B2B3B8" d="M209.6,168.2c0-1.2-1-2.1-2.1-2.1h-10.6c-1.2,0-1.5-0.7-0.6-1.5l7.5-7.5c0.8-0.8,0.8-2.2,0-3
			c-0.8-0.8-2.2-0.8-3,0l-7.5,7.5c-0.8,0.8-1.5,0.5-1.5-0.6v-10.7c0-1.2-0.9-2.1-2.1-2.1c-1.2,0-2.1,1-2.1,2.1V161
			c0,1.2-0.7,1.5-1.5,0.6l-7.5-7.5c-0.8-0.8-2.2-0.8-3,0c-0.8,0.8-0.8,2.2,0,3l7.5,7.5c0.8,0.8,0.5,1.5-0.6,1.5h-10.7
			c-1.2,0-2.1,0.9-2.1,2.1c0,1.2,1,2.1,2.1,2.1h10.7c1.2,0,1.4,0.7,0.6,1.5l-7.5,7.5c-0.8,0.8-0.8,2.2,0,3c0.8,0.8,2.2,0.8,3,0
			l7.5-7.5c0.8-0.8,1.5-0.6,1.5,0.6V186c0,1.2,0.9,2.1,2.1,2.1c1.2,0,2.1-1,2.1-2.1v-10.6c0-1.2,0.7-1.5,1.5-0.6l7.5,7.5
			c0.8,0.8,2.2,0.8,3,0c0.8-0.8,0.8-2.2,0-3l-7.5-7.5c-0.8-0.8-0.5-1.5,0.6-1.5h10.6C208.7,170.3,209.6,169.3,209.6,168.2z"/>
	</g>
</g>
</svg>
