<?xml version="1.0" encoding="utf-8"?>
<!-- Generator: Adobe Illustrator 18.0.0, SVG Export Plug-In . SVG Version: 6.00 Build 0)  -->
<!DOCTYPE svg PUBLIC "-//W3C//DTD SVG 1.1//EN" "http://www.w3.org/Graphics/SVG/1.1/DTD/svg11.dtd">
<svg version="1.1" id="R" xmlns="http://www.w3.org/2000/svg" xmlns:xlink="http://www.w3.org/1999/xlink" x="0px" y="0px"
	 width="300px" height="200px" viewBox="0 0 300 200" enable-background="new 0 0 300 200" xml:space="preserve">
<g>
	<g>
		<g>
			<path fill="#B2B3B8" d="M237.5,54.1c-2.9,0-5.8,0.5-8.6,1.4C226,28.8,203.3,8,175.9,8c-13.4,0-25.5,5-34.9,13.1
				c23,4.5,41.1,21.9,47,44.7c0.7,0,0.9-0.1,1.6-0.1c20.5,0,37.2,17.2,37.2,38.2c0,3.7-0.5,7.2-1.8,10.5l12.6-0.1
				c16,0,29-13.6,29-30.2C266.6,67.7,253.5,54.1,237.5,54.1z"/>
			<path fill="#B2B3B8" d="M218.5,102.4c0-16.3-13-29.3-28.9-29.3c-2.9,0-5.3,0.9-8.1,1.8c-2.8-24.9-21.4-44.4-47.2-47
				c0,0-4.6-0.3-6.9-0.3c-27.7,0-50.6,21.3-53.2,48.4c-3.5-1.4-7.3-2.1-11.1-2.1c-16.5,0-29.4,13.5-29.4,30c0,16.3,13.7,29.7,30,30
				v0l125.9,0.3c1.3,0,6.1-0.7,6.4-0.8c5.4-1.2,10.2-3.9,13.9-7.9c4.7-4.8,7.7-11.4,8.4-18.6C218.4,105.9,218.5,102.4,218.5,102.4z"
				/>
		</g>
	</g>
	<path fill="#008ADF" d="M106.6,167.6c-2.7-3.5-4.9-7.4-6.9-11.4c-2,4-4.2,7.9-6.9,11.4c-3.1,4.1-5.4,8.7-4.7,14
		c1,7.3,5.8,10.5,11.6,10.5c5.8,0,10.6-3.2,11.6-10.5C112,176.2,109.7,171.6,106.6,167.6z"/>
	<path fill="#008ADF" d="M158.6,167.6c-2.7-3.5-4.9-7.4-6.9-11.4c-2,4-4.2,7.9-6.9,11.4c-3.1,4.1-5.4,8.7-4.7,14
		c1,7.3,5.8,10.5,11.6,10.5c5.8,0,10.6-3.2,11.6-10.5C164,176.2,161.8,171.6,158.6,167.6z"/>
	<g>
		<path fill="#B2B3B8" d="M144.1,154.1c0-1-0.9-1.9-1.9-1.9h-9.7c-1.1,0-1.3-0.6-0.6-1.4l6.8-6.8c0.8-0.7,0.8-2,0-2.7
			c-0.7-0.7-2-0.7-2.7,0l-6.8,6.8c-0.7,0.7-1.4,0.5-1.4-0.6v-9.7c0-1.1-0.9-1.9-1.9-1.9c-1,0-1.9,0.9-1.9,1.9v9.7
			c0,1.1-0.6,1.3-1.4,0.6l-6.8-6.8c-0.7-0.7-2-0.8-2.7,0c-0.7,0.7-0.7,2,0,2.7l6.8,6.8c0.7,0.7,0.5,1.4-0.6,1.4h-9.7
			c-1.1,0-1.9,0.9-1.9,1.9c0,1,0.9,1.9,1.9,1.9h9.7c1.1,0,1.3,0.6,0.6,1.4l-6.8,6.8c-0.8,0.7-0.8,2,0,2.7c0.7,0.7,2,0.7,2.7,0
			l6.8-6.8c0.8-0.8,1.4-0.5,1.4,0.6v9.6c0,1.1,0.9,1.9,1.9,1.9c1,0,1.9-0.9,1.9-1.9v-9.6c0-1.1,0.6-1.3,1.4-0.6l6.8,6.8
			c0.8,0.7,2,0.8,2.7,0c0.7-0.7,0.7-2,0-2.7l-6.8-6.8c-0.7-0.7-0.5-1.4,0.6-1.4h9.7C143.2,156,144.1,155.1,144.1,154.1z"/>
		<path fill="#B2B3B8" d="M197.3,154.1c0-1-0.9-1.9-1.9-1.9h-9.7c-1.1,0-1.3-0.6-0.6-1.4l6.8-6.8c0.8-0.7,0.8-2,0-2.7
			c-0.7-0.7-2-0.7-2.7,0l-6.8,6.8c-0.7,0.7-1.4,0.5-1.4-0.6v-9.7c0-1.1-0.9-1.9-1.9-1.9c-1,0-1.9,0.9-1.9,1.9v9.7
			c0,1.1-0.6,1.3-1.4,0.6l-6.8-6.8c-0.7-0.7-2-0.8-2.7,0c-0.7,0.7-0.7,2,0,2.7l6.8,6.8c0.7,0.7,0.5,1.4-0.6,1.4H163
			c-1.1,0-1.9,0.9-1.9,1.9c0,1,0.9,1.9,1.9,1.9h9.7c1.1,0,1.3,0.6,0.6,1.4l-6.8,6.8c-0.8,0.7-0.8,2,0,2.7c0.7,0.7,2,0.7,2.7,0
			l6.8-6.8c0.8-0.8,1.4-0.5,1.4,0.6v9.6c0,1.1,0.9,1.9,1.9,1.9c1,0,1.9-0.9,1.9-1.9v-9.6c0-1.1,0.6-1.3,1.4-0.6l6.8,6.8
			c0.8,0.7,2,0.8,2.7,0c0.7-0.7,0.7-2,0-2.7l-6.8-6.8c-0.7-0.7-0.5-1.4,0.6-1.4h9.7C196.4,156,197.3,155.1,197.3,154.1z"/>
		<path fill="#B2B3B8" d="M90.8,154.1c0-1-0.9-1.9-1.9-1.9h-9.7c-1.1,0-1.3-0.6-0.6-1.4l6.8-6.8c0.8-0.7,0.8-2,0-2.7
			c-0.7-0.7-2-0.7-2.7,0l-6.8,6.8c-0.7,0.7-1.4,0.5-1.4-0.6v-9.7c0-1.1-0.9-1.9-1.9-1.9c-1,0-1.9,0.9-1.9,1.9v9.7
			c0,1.1-0.6,1.3-1.4,0.6l-6.8-6.8c-0.7-0.7-2-0.8-2.7,0c-0.7,0.7-0.7,2,0,2.7l6.8,6.8c0.7,0.7,0.5,1.4-0.6,1.4h-9.7
			c-1.1,0-1.9,0.9-1.9,1.9c0,1,0.9,1.9,1.9,1.9h9.7c1.1,0,1.3,0.6,0.6,1.4l-6.8,6.8c-0.8,0.7-0.8,2,0,2.7c0.7,0.7,2,0.7,2.7,0
			l6.8-6.8c0.8-0.8,1.4-0.5,1.4,0.6v9.6c0,1.1,0.9,1.9,1.9,1.9c1,0,1.9-0.9,1.9-1.9v-9.6c0-1.1,0.6-1.3,1.4-0.6l6.8,6.8
			c0.8,0.7,2,0.8,2.7,0c0.7-0.7,0.7-2,0-2.7l-6.8-6.8c-0.7-0.7-0.5-1.4,0.6-1.4h9.7C90,156,90.8,155.1,90.8,154.1z"/>
	</g>
</g>
</svg>
