<?xml version="1.0" encoding="utf-8"?>
<!-- Generator: Adobe Illustrator 18.0.0, SVG Export Plug-In . SVG Version: 6.00 Build 0)  -->
<!DOCTYPE svg PUBLIC "-//W3C//DTD SVG 1.1//EN" "http://www.w3.org/Graphics/SVG/1.1/DTD/svg11.dtd">
<svg version="1.1" id="T" xmlns="http://www.w3.org/2000/svg" xmlns:xlink="http://www.w3.org/1999/xlink" x="0px" y="0px"
	 width="300px" height="200px" viewBox="0 0 300 200" enable-background="new 0 0 300 200" xml:space="preserve">
<g>
	<g>
		<path fill="#B2B3B8" d="M191.9,39v36v2.6l2,1.7L211,94.2h-3.8h-5.7v5.7v60.9h-36.1v-32.3v-5.7h-5.7h-19h-5.7v5.7v32.3H98.7V99.9
			v-5.7H93h-3.8l60.9-53.3l24.8,21.7l9.5,8.3V58.2V39H191.9 M197.7,33.3h-19v24.9l-28.5-24.9L73.9,99.9h19v66.6h47.6v-38.1h19v38.1
			h47.6V99.9h19l-28.6-24.9V33.3L197.7,33.3z"/>
	</g>
	<g>
		<rect x="60.3" y="130.3" fill="#B2B3B8" width="179.5" height="11.4"/>
	</g>
	<g>
		<rect x="60.3" y="104.9" fill="#B2B3B8" width="179.5" height="11.4"/>
	</g>
	<g>
		<rect x="60.3" y="155.6" fill="#B2B3B8" width="179.5" height="11.4"/>
	</g>
	<g>
		<rect x="60.3" y="79.6" fill="#B2B3B8" width="179.5" height="11.4"/>
	</g>
	<g>
		<rect x="60.3" y="54.2" fill="#B2B3B8" width="179.5" height="11.4"/>
	</g>
</g>
</svg>
