<?xml version="1.0" encoding="utf-8"?>
<!-- Generator: Adobe Illustrator 18.0.0, SVG Export Plug-In . SVG Version: 6.00 Build 0)  -->
<!DOCTYPE svg PUBLIC "-//W3C//DTD SVG 1.1//EN" "http://www.w3.org/Graphics/SVG/1.1/DTD/svg11.dtd">
<svg version="1.1" id="U" xmlns="http://www.w3.org/2000/svg" xmlns:xlink="http://www.w3.org/1999/xlink" x="0px" y="0px"
	 width="300px" height="200px" viewBox="0 0 300 200" enable-background="new 0 0 300 200" xml:space="preserve">
<g>
	<path fill-rule="evenodd" clip-rule="evenodd" fill="#FFD500" d="M117.7,69.5c1.3-0.3,2-1.6,1.7-2.9s-1.6-2-2.9-1.7l-21.4,5.7
		c-1.3,0.3-2,1.6-1.7,2.9c0.3,1.2,1.6,2,2.9,1.7L117.7,69.5L117.7,69.5z"/>
	<path fill-rule="evenodd" clip-rule="evenodd" fill="#FFD500" d="M115.6,60.6c1.3,0,2.3-1.1,2.3-2.3c0-1.3-1-2.3-2.3-2.3H93.5
		c-1.3,0-2.3,1.1-2.3,2.3c0,1.3,1,2.3,2.3,2.3H115.6L115.6,60.6z"/>
	<path fill-rule="evenodd" clip-rule="evenodd" fill="#FFD500" d="M115.9,51.6c1.3,0.3,2.5-0.4,2.9-1.7c0.3-1.3-0.4-2.5-1.7-2.9
		l-21.4-5.7c-1.3-0.3-2.5,0.4-2.9,1.7c-0.3,1.2,0.4,2.5,1.7,2.9L115.9,51.6L115.9,51.6z"/>
	<path fill-rule="evenodd" clip-rule="evenodd" fill="#FFD500" d="M182.4,69.5l21.4,5.7c1.2,0.3,2.5-0.4,2.9-1.7
		c0.3-1.2-0.4-2.5-1.7-2.9l-21.4-5.7c-1.2-0.3-2.5,0.4-2.9,1.7C180.4,67.8,181.1,69.1,182.4,69.5L182.4,69.5z"/>
	<path fill-rule="evenodd" clip-rule="evenodd" fill="#FFD500" d="M184.5,60.6h22.1c1.3,0,2.3-1.1,2.3-2.3c0-1.3-1-2.3-2.3-2.3
		h-22.1c-1.3,0-2.3,1.1-2.3,2.3C182.1,59.6,183.2,60.6,184.5,60.6L184.5,60.6z"/>
	<path fill-rule="evenodd" clip-rule="evenodd" fill="#FFD500" d="M184.2,51.6l21.4-5.7c1.2-0.3,2-1.6,1.7-2.9
		c-0.3-1.2-1.6-2-2.9-1.7L183,47c-1.3,0.3-2,1.6-1.7,2.9C181.6,51.1,182.9,51.9,184.2,51.6L184.2,51.6z"/>
	<path fill-rule="evenodd" clip-rule="evenodd" fill="#B2B3B8" d="M173.4,159.1l-1.7-17.8h-43.5l-1.4,17.9
		c-7.3,0.7-13.1,6.6-13.6,14h75.1C187.8,165.3,181.3,159.1,173.4,159.1z"/>
	<g>
		<path fill-rule="evenodd" clip-rule="evenodd" fill="#B2B3B8" d="M131.8,67.1l2.1,3.1h-0.4l-1.4,17.7h35.5l-1.3-17.7H166l2.1-3.1
			V47.9h5.5L162,37.5L150.3,27l-11.7,10.5L127,47.9h4.8V67.1z M136.9,47.9h25.7v19.2h-25.7V47.9z"/>
		<polygon fill-rule="evenodd" clip-rule="evenodd" fill="#B2B3B8" points="130.9,105.7 129.5,123.5 170.3,123.5 169,105.7 		"/>
	</g>
</g>
</svg>
