<?xml version="1.0" encoding="utf-8"?>
<!-- Generator: Adobe Illustrator 18.0.0, SVG Export Plug-In . SVG Version: 6.00 Build 0)  -->
<!DOCTYPE svg PUBLIC "-//W3C//DTD SVG 1.1//EN" "http://www.w3.org/Graphics/SVG/1.1/DTD/svg11.dtd">
<svg version="1.1" id="V" xmlns="http://www.w3.org/2000/svg" xmlns:xlink="http://www.w3.org/1999/xlink" x="0px" y="0px"
	 width="300px" height="200px" viewBox="0 0 300 200" enable-background="new 0 0 300 200" xml:space="preserve">
<g>
	<g>
		<g>
			<rect x="41.4" y="104.3" fill="#B2B3B8" width="68.5" height="10"/>
		</g>
		<g>
			<rect x="41.4" y="71" fill="#B2B3B8" width="68.5" height="10"/>
		</g>
		<g>
			<rect x="41.4" y="37.8" fill="#B2B3B8" width="68.5" height="10"/>
		</g>
	</g>
	<g>
		<g>
			<polygon fill="#FF0000" points="182.1,52.1 182.1,100.1 202.6,95.2 202.6,56.8 			"/>
			<polygon fill="#FF0000" points="156.1,46.3 156.1,106.4 174.8,101.9 174.8,50.5 			"/>
			<polygon fill="#FF0000" points="209.8,58.4 209.8,93.4 230.4,88.5 230.4,63.1 			"/>
			<path fill="#FF0000" d="M253.7,68.7L237.6,65v22l17.1-4.1C254.8,82.9,264.1,75.4,253.7,68.7z"/>
		</g>
		<path fill="#B2B3B8" d="M135.8,78v-0.4l14.4-25c0.6-1.1,0.3-2.5-0.9-3.2c-1.1-0.6-2.5-0.3-3.2,0.8l-10.4,18v-20
			c0-0.8-0.3-1.6-0.7-2.2c3.8-1.5,6.4-5.1,6.4-9.3c0-5.5-4.5-10-10-10c-5.5,0-10,4.5-10,10c0,4.3,2.7,7.9,6.4,9.3
			c-0.4,0.6-0.7,1.4-0.7,2.2v120.7c0,2.3,1.9,4.2,4.2,4.2c2.3,0,4.2-1.9,4.2-4.2V87l10.4,17.3c0.4,0.7,1.2,1.1,2,1.1
			c0.4,0,0.8-0.1,1.2-0.3c1.1-0.7,1.4-2.1,0.8-3.2L135.8,78z"/>
	</g>
</g>
</svg>
