<?xml version="1.0" encoding="utf-8"?>
<!-- Generator: Adobe Illustrator 18.0.0, SVG Export Plug-In . SVG Version: 6.00 Build 0)  -->
<!DOCTYPE svg PUBLIC "-//W3C//DTD SVG 1.1//EN" "http://www.w3.org/Graphics/SVG/1.1/DTD/svg11.dtd">
<svg version="1.1" id="W" xmlns="http://www.w3.org/2000/svg" xmlns:xlink="http://www.w3.org/1999/xlink" x="0px" y="0px"
	 width="300px" height="200px" viewBox="0 0 300 200" enable-background="new 0 0 300 200" xml:space="preserve">
<g>
	<g>
		<rect x="40.3" y="115.9" fill="#B2B3B8" width="56.5" height="10"/>
	</g>
	<g>
		<rect x="40.3" y="82.6" fill="#B2B3B8" width="73.3" height="10"/>
	</g>
	<g>
		<rect x="40.3" y="49.3" fill="#B2B3B8" width="92.2" height="10"/>
	</g>
	<g>
		<g>
			<polygon fill="#FF0000" points="183.1,63.4 183.1,111.4 203.6,106.5 203.6,68.1 			"/>
			<polygon fill="#FF0000" points="157.2,57.6 157.2,117.7 175.9,113.2 175.9,61.8 			"/>
			<polygon fill="#FF0000" points="210.9,69.8 210.9,104.7 231.4,99.8 231.4,74.4 			"/>
			<path fill="#FF0000" d="M254.8,79.7l-16.1-3.7v22l17.1-4.1C255.8,93.9,265.2,86.4,254.8,79.7z"/>
		</g>
		<path fill="#B2B3B8" d="M156.7,35.1c-4.9-2.5-11-0.6-13.5,4.4c-1.9,3.8-1.2,8.2,1.5,11.2c-0.7,0.4-1.2,1-1.6,1.7l-55,107.5
			c-1.1,2.1-0.2,4.6,1.8,5.7c2.1,1.1,4.6,0.2,5.7-1.8l37.1-72.6l14.5,24.4c0.4,0.7,1.2,1.1,2,1.1c0.4,0,0.8-0.1,1.2-0.3
			c1.1-0.7,1.4-2.1,0.8-3.2l-16-26.9l15.4-30.1c0.4-0.7,0.5-1.5,0.4-2.3c4,0.4,8-1.6,10-5.4C163.6,43.7,161.6,37.6,156.7,35.1z"/>
	</g>
</g>
</svg>
