<?xml version="1.0" encoding="utf-8"?>
<!-- Generator: Adobe Illustrator 18.0.0, SVG Export Plug-In . SVG Version: 6.00 Build 0)  -->
<!DOCTYPE svg PUBLIC "-//W3C//DTD SVG 1.1//EN" "http://www.w3.org/Graphics/SVG/1.1/DTD/svg11.dtd">
<svg version="1.1" id="X" xmlns="http://www.w3.org/2000/svg" xmlns:xlink="http://www.w3.org/1999/xlink" x="0px" y="0px"
	 width="300px" height="200px" viewBox="0 0 300 200" enable-background="new 0 0 300 200" xml:space="preserve">
<g>
	<g>
		<g>
			<rect x="39.9" y="152.3" fill="#B2B3B8" width="79.8" height="10"/>
		</g>
		<g>
			<rect x="39.9" y="119" fill="#B2B3B8" width="103.5" height="10"/>
		</g>
		<g>
			<rect x="39.9" y="85.8" fill="#B2B3B8" width="123.5" height="10"/>
		</g>
	</g>
	<g>
		<g>
			<polygon fill="#FF0000" points="203.5,141.6 169.6,107.7 158.6,125.7 185.7,152.9 			"/>
			<polygon fill="#FF0000" points="226.1,127.4 183.6,84.9 173.5,101.3 209.8,137.7 			"/>
			<polygon fill="#FF0000" points="179.4,156.8 154.7,132.1 143.7,150.1 161.6,168 			"/>
			<path fill="#FF0000" d="M141.2,180.6l14-8.8l-15.6-15.6l-9.2,15C130.4,171.3,129.1,183.2,141.2,180.6z"/>
		</g>
		<path fill="#B2B3B8" d="M218,90.6l0.3,0.3l7.5,27.8c0.3,1.2,1.6,2,2.8,1.6c1.2-0.3,2-1.6,1.6-2.8l-5.4-20.1l14.1,14.1
			c0.6,0.6,1.3,0.9,2,1.1c-1.6,3.7-1,8.1,2,11.1c3.9,3.9,10.3,3.9,14.2,0c3.9-3.9,3.9-10.3,0-14.2c-3-3-7.5-3.7-11.1-2
			c-0.2-0.7-0.5-1.5-1.1-2l-85.3-85.3c-1.7-1.7-4.3-1.7-6,0c-1.7,1.7-1.7,4.3,0,6l58,58L192,79.4c-0.8-0.2-1.6,0.1-2.2,0.6
			c-0.3,0.3-0.5,0.7-0.6,1.1c-0.3,1.2,0.4,2.5,1.7,2.8L218,90.6z"/>
	</g>
</g>
</svg>
