<?xml version="1.0" encoding="utf-8"?>
<!-- Generator: Adobe Illustrator 18.0.0, SVG Export Plug-In . SVG Version: 6.00 Build 0)  -->
<!DOCTYPE svg PUBLIC "-//W3C//DTD SVG 1.1//EN" "http://www.w3.org/Graphics/SVG/1.1/DTD/svg11.dtd">
<svg version="1.1" id="Y" xmlns="http://www.w3.org/2000/svg" xmlns:xlink="http://www.w3.org/1999/xlink" x="0px" y="0px"
	 width="300px" height="200px" viewBox="0 0 300 200" enable-background="new 0 0 300 200" xml:space="preserve">
<g>
	<path fill="#008ADF" d="M214.3,83.9l-16.4-5.1l12-6.8c2.9-2.1,3.6-6.1,1.5-9.1c-1.2-1.7-3.2-2.7-5.3-2.7c-1.3,0-2.6,0.4-3.7,1.2
		l-9.4,5.2l4.5-14.6c0.8-2.7-0.7-5.5-3.3-6.3c-2.6-0.9-5.5,0.7-6.3,3.3l-7.3,23.5c-0.1,0.4-0.2,0.7-0.2,1.1l-21,11.6
		c-0.3,0.2-0.7,0.4-1.1,0.4c-0.3,0-0.6-0.1-0.9-0.2c-0.5-0.3-0.8-0.8-0.9-1.3c0-0.3,0-0.6,0-0.8V59c0.4-0.2,0.9-0.5,1.3-0.8
		l17.4-17.4c2-2,2-5.2,0-7.1c-2-2-5.2-2-7.1,0l-11.5,11.5V31.1c0-3.6-2.9-6.5-6.5-6.5s-6.5,2.9-6.5,6.5v14.1l-11.5-11.5
		c-2-2-5.2-2-7.1,0c-2,2-2,5.2,0,7.1l17.4,17.4c0.4,0.4,0.8,0.6,1.3,0.8v24.7c0,0.7-0.4,1.4-1,1.7c-0.3,0.1-0.6,0.2-0.9,0.2
		c-0.4,0-0.8-0.1-1.1-0.4l-21-11.6c0-0.4-0.1-0.7-0.2-1.1l-7.3-23.4c-0.8-2.7-3.7-4.2-6.3-3.3c-2.7,0.8-4.2,3.7-3.3,6.3l4.5,14.6
		l-9.4-5.2c-1.1-0.8-2.4-1.2-3.8-1.2c-2.1,0-4.1,1-5.3,2.7c-2.1,2.9-1.4,7,1.5,9l12,6.8l-16.4,5.1c-2.7,0.8-4.1,3.6-3.3,6.3
		c0.8,2.5,3.3,4,5.8,3.4c0.2,0,0.3-0.1,0.5-0.1l23.4-7.3c0.6-0.2,1.1-0.5,1.6-0.9l23.2,13.1c0.5,0.4,0.8,0.9,0.8,1.5
		c0,0.6-0.3,1.2-0.8,1.6L118.4,113c-0.4-0.2-0.9-0.5-1.4-0.6L93,107c-0.2,0-0.3-0.1-0.5-0.1c-2.5-0.3-5,1.3-5.5,3.9
		c-0.6,2.7,1.1,5.4,3.8,6l15.5,3.5l-15.1,9.2c-2.9,2.1-3.4,6.2-1.3,9.1c1.2,1.6,3.1,2.6,5.2,2.6c1.4,0,2.8-0.5,3.9-1.3l14.7-8.7
		l-3.6,16.1c-0.6,2.7,1.1,5.4,3.8,6c2.7,0.7,5.4-1.1,6-3.8l5.4-24c0.1-0.4,0.1-0.8,0.1-1.3l15.2-9c0.3-0.2,0.7-0.4,1.1-0.4
		c0.3,0,0.6,0.1,0.9,0.2c0.6,0.3,1.1,1,1.1,1.7v25c-0.4,0.2-0.9,0.5-1.3,0.8L124.9,160c-2,2-2,5.2,0,7.1c1,1,2.3,1.5,3.6,1.5
		c1.3,0,2.6-0.5,3.6-1.5l11.5-11.5v13.2c0,3.6,2.9,6.5,6.5,6.5s6.5-2.9,6.5-6.5v-13.2l11.5,11.5c1,1,2.3,1.5,3.6,1.5
		c1.3,0,2.6-0.5,3.6-1.5c2-2,2-5.2,0-7.1l-17.4-17.4c-0.4-0.4-0.8-0.6-1.3-0.8v-25.5c0.1-0.5,0.4-1,0.9-1.3c0.3-0.1,0.6-0.2,0.9-0.2
		c0.4,0,0.8,0.1,1.1,0.4l15.2,9c0,0.4,0,0.8,0.1,1.3l5.4,24c0.6,2.7,3.3,4.5,6,3.8c2.7-0.6,4.4-3.3,3.8-6l-3.6-16.1l14.7,8.7
		c1.1,0.8,2.5,1.3,3.9,1.3c2.1,0,4-0.9,5.2-2.6c2.2-2.9,1.6-6.9-1.3-9.1l-15.1-9.2l15.5-3.5c2.7-0.6,4.4-3.3,3.8-6
		c-0.6-2.6-3-4.2-5.5-3.9c-0.2,0-0.3,0-0.5,0.1l-24,5.4c-0.5,0.1-1,0.3-1.4,0.6L163,101.6c-0.5-0.4-0.8-0.9-0.8-1.5
		c0-0.6,0.3-1.2,0.8-1.5l23.2-13.1c0.5,0.4,1,0.7,1.6,0.8l23.4,7.3c0.2,0,0.3,0.1,0.5,0.1c2.5,0.5,5.1-0.9,5.8-3.4
		C218.4,87.6,216.9,84.8,214.3,83.9z"/>
</g>
</svg>
