<?xml version="1.0" encoding="utf-8"?>
<!-- Generator: Adobe Illustrator 18.0.0, SVG Export Plug-In . SVG Version: 6.00 Build 0)  -->
<!DOCTYPE svg PUBLIC "-//W3C//DTD SVG 1.1//EN" "http://www.w3.org/Graphics/SVG/1.1/DTD/svg11.dtd">
<svg version="1.1" id="Z" xmlns="http://www.w3.org/2000/svg" xmlns:xlink="http://www.w3.org/1999/xlink" x="0px" y="0px"
	 width="300px" height="200px" viewBox="0 0 300 200" enable-background="new 0 0 300 200" xml:space="preserve">
<g>
	<g>
		<rect x="65.1" y="117.3" fill="#B2B3B8" width="50.1" height="10"/>
	</g>
	<g>
		<rect x="65.1" y="84" fill="#B2B3B8" width="65.1" height="10"/>
	</g>
	<g>
		<rect x="65.1" y="50.7" fill="#B2B3B8" width="50.1" height="10"/>
	</g>
	<path fill-rule="evenodd" clip-rule="evenodd" fill="#B2B3B8" d="M144.9,147.8V30.3c0-1.4-1.1-2.6-2.6-2.6c-1.4,0-2.6,1.1-2.6,2.6
		v118.2c-20,2.6-70.6,3-74.7,3.5c3.1,6.8,6.2,13.6,9.3,20.4c40.4,0,80.9,0,121.3,0c10.5-10.5,18.1-23,24.1-36.3L144.9,147.8z"/>
	<g>
		<path fill-rule="evenodd" clip-rule="evenodd" fill="#FF0000" d="M220.8,59.9c-15.7-12.1-42.8-20.2-72.4-21.4l0,5
			c3.8,5.3,7.4,10.7,10.5,16.4H220.8z"/>
		<path fill-rule="evenodd" clip-rule="evenodd" fill="#FF0000" d="M234.8,81.4h-67.5c1.7,6.9,2.3,14,1.5,21.4h58.5
			C233.2,95.3,235.5,88.1,234.8,81.4z"/>
		<path fill-rule="evenodd" clip-rule="evenodd" fill="#FF0000" d="M149.3,145.6l6.7-1.2c18.4-6.7,33.2-13.5,44.7-20.2h-37.8
			C159.8,131.1,155.3,138.3,149.3,145.6z"/>
	</g>
</g>
</svg>
