<?xml version="1.0" encoding="utf-8"?>
<!-- Generator: Adobe Illustrator 18.1.0, SVG Export Plug-In . SVG Version: 6.00 Build 0)  -->
<!DOCTYPE svg PUBLIC "-//W3C//DTD SVG 1.1//EN" "http://www.w3.org/Graphics/SVG/1.1/DTD/svg11.dtd">
<svg version="1.1" id="Layer_1" xmlns="http://www.w3.org/2000/svg" xmlns:xlink="http://www.w3.org/1999/xlink" x="0px" y="0px"
	 width="65px" height="65px" viewBox="-479 352 65 65" enable-background="new -479 352 65 65" xml:space="preserve">
<g id="E" display="none">
	<path display="inline" fill="#B2B4B9" d="M-473.6,387.6l5.4,3.1v-5.1l2.3,0.2c0.7,10.1,9.1,18.1,19.4,18.1
		c10.7,0,19.5-8.7,19.5-19.5c0-10.8-8.7-19.5-19.5-19.5c-10.3,0-18.7,8-19.4,18.2l-2.3,0.2v-5.2l-5.4,3.1l-5.4,3.1L-473.6,387.6z"/>
</g>
<g id="N" display="none">
	<path display="inline" fill="#B2B4B9" d="M-443.4,411.6l3.1-5.4h-5.1l0.2-2.3c10.1-0.7,18.1-9.1,18.1-19.4
		c0-10.7-8.7-19.5-19.5-19.5c-10.8,0-19.5,8.7-19.5,19.5c0,10.3,8,18.7,18.2,19.4l0.2,2.3h-5.2l3.1,5.4l3.1,5.4L-443.4,411.6z"/>
</g>
<g id="W" display="none">
	<path display="inline" fill="#B2B4B9" d="M-419.4,381.4l-5.4-3.1v5.1l-2.3-0.2c-0.7-10.1-9.1-18.1-19.4-18.1
		c-10.7,0-19.5,8.7-19.5,19.5c0,10.8,8.7,19.5,19.5,19.5c10.3,0,18.7-8,19.4-18.2l2.3-0.2v5.2l5.4-3.1l5.4-3.1L-419.4,381.4z"/>
</g>
<g id="ESE" display="none">
	<path display="inline" fill="#B2B4B9" d="M-476.5,371.9l3.8,4.9l3.8,4.9l2-4.8l2,1.1c-3.2,9.6,1.5,20.3,11,24.2
		c9.9,4.1,21.4-0.6,25.5-10.5c4.1-9.9-0.6-21.4-10.5-25.5c-9.5-3.9-20.4,0.2-24.9,9.3l-2.2-0.7l2-4.7l-6.2,0.8L-476.5,371.9z"/>
</g>
<g id="SE" display="none">
	<path display="inline" fill="#B2B4B9" d="M-469.5,361.6l1.6,6l1.6,6l3.6-3.6l1.4,1.8c-6.7,7.6-6.4,19.3,0.9,26.6
		c7.6,7.6,20,7.6,27.6,0c7.6-7.6,7.6-20,0-27.6c-7.3-7.3-18.9-7.6-26.6-0.9l-1.8-1.4l3.6-3.6l-6-1.6L-469.5,361.6z"/>
</g>
<g id="SSE" display="none">
	<path display="inline" fill="#B2B4B9" d="M-459,354.3l-0.8,6.2l-0.8,6.2l4.8-2l0.6,2.2c-9.1,4.5-13.3,15.4-9.4,24.9
		c4.1,9.9,15.5,14.7,25.5,10.6c9.9-4.1,14.7-15.5,10.5-25.5c-3.9-9.5-14.6-14.2-24.2-11l-1.1-2l4.7-1.9l-4.9-3.8L-459,354.3z"/>
</g>
<g id="ENE" display="none">
	<path display="inline" fill="#B2B4B9" d="M-470.4,397.8l6.2,0.8l-1.9-4.7l2.2-0.7c4.5,9.1,15.4,13.3,24.9,9.3
		c9.9-4.1,14.7-15.5,10.5-25.5c-4.1-9.9-15.5-14.7-25.5-10.5c-9.5,3.9-14.2,14.6-11,24.2l-2,1.1l-2-4.8l-3.8,4.9l-3.8,4.9
		L-470.4,397.8z"/>
</g>
<g id="NE" display="none">
	<path display="inline" fill="#B2B4B9" d="M-463.5,405.7l6-1.6l-3.6-3.6l1.8-1.4c7.6,6.7,19.3,6.4,26.6-0.9c7.6-7.6,7.6-20,0-27.6
		c-7.6-7.6-20-7.6-27.6,0c-7.3,7.3-7.6,18.9-0.9,26.6l-1.4,1.8l-3.6-3.6l-1.6,6l-1.6,6L-463.5,405.7z"/>
</g>
<g id="NNE" display="none">
	<path display="inline" fill="#B2B4B9" d="M-454,410.7l4.9-3.8l-4.7-2l1.1-2c9.6,3.2,20.2-1.5,24.2-11c4.1-9.9-0.6-21.4-10.5-25.5
		c-9.9-4.1-21.4,0.6-25.5,10.5c-3.9,9.5,0.3,20.4,9.4,24.9l-0.6,2.2l-4.8-2l0.8,6.2l0.8,6.2L-454,410.7z"/>
</g>
<g id="WNW" display="none">
	<path display="inline" fill="#B2B4B9" d="M-416.5,396.9l-3.8-4.9l-3.8-4.9l-2,4.8l-2-1.1c3.2-9.6-1.5-20.3-11-24.2
		c-9.9-4.1-21.4,0.6-25.5,10.5c-4.1,9.9,0.6,21.4,10.5,25.5c9.5,3.9,20.4-0.2,24.9-9.3l2.2,0.7l-1.9,4.7l6.2-0.8L-416.5,396.9z"/>
</g>
<g id="NW" display="none">
	<path display="inline" fill="#B2B4B9" d="M-423.6,407.3l-1.6-6l-1.6-6l-3.6,3.6l-1.4-1.8c6.7-7.6,6.4-19.3-0.9-26.6
		c-7.6-7.6-20-7.6-27.6,0c-7.6,7.6-7.6,20,0,27.6c7.3,7.3,18.9,7.6,26.6,0.9l1.8,1.4l-3.6,3.6l6,1.6L-423.6,407.3z"/>
</g>
<g id="NNW" display="none">
	<path display="inline" fill="#B2B4B9" d="M-434.1,414.5l0.8-6.2l0.8-6.2l-4.8,2l-0.6-2.2c9.1-4.5,13.3-15.4,9.4-24.9
		c-4.1-9.9-15.5-14.7-25.5-10.5c-9.9,4.1-14.7,15.5-10.5,25.5c3.9,9.5,14.6,14.2,24.2,11l1.1,2l-4.7,1.9l4.9,3.8L-434.1,414.5z"/>
</g>
<g id="S" display="none">
	<path display="inline" fill="#B2B4B9" d="M-449.6,357.4l-3.1,5.4h5.1l-0.2,2.3c-10.1,0.7-18.1,9.1-18.1,19.4
		c0,10.7,8.7,19.5,19.5,19.5c10.8,0,19.5-8.7,19.5-19.5c0-10.3-8-18.7-18.2-19.4l-0.2-2.3h5.2l-3.1-5.4l-3.1-5.4L-449.6,357.4z"/>
</g>
<g id="WSW" display="none">
	<path display="inline" fill="#B2B4B9" d="M-422.7,371.1l-6.2-0.8l2,4.7l-2.2,0.7c-4.5-9.1-15.4-13.3-24.9-9.3
		c-9.9,4.1-14.7,15.5-10.5,25.5c4.1,9.9,15.5,14.7,25.5,10.5c9.5-3.9,14.2-14.6,11-24.2l2-1.1l2,4.8l3.8-4.9l3.8-4.9L-422.7,371.1z"
		/>
</g>
<g id="SW" display="none">
	<path display="inline" fill="#B2B4B9" d="M-429.6,363.2l-6,1.6l3.6,3.6l-1.8,1.4c-7.6-6.7-19.3-6.4-26.6,0.9
		c-7.6,7.6-7.6,20,0,27.6c7.6,7.6,20,7.6,27.6,0c7.3-7.3,7.6-18.9,0.9-26.6l1.4-1.8l3.6,3.6l1.6-6l1.6-6L-429.6,363.2z"/>
</g>
<g id="SSW" display="none">
	<path display="inline" fill="#B2B4B9" d="M-439,358.1l-4.9,3.8l4.7,2l-1.1,2c-9.6-3.2-20.2,1.5-24.2,11
		c-4.1,9.9,0.6,21.4,10.5,25.5c9.9,4.1,21.4-0.6,25.5-10.5c3.9-9.5-0.3-20.4-9.4-24.9l0.6-2.2l4.8,2l-0.8-6.2l-0.8-6.2L-439,358.1z"
		/>
</g>
<g id="VRB">
	<circle fill="#B2B4B9" cx="-446.5" cy="384.5" r="19.4"/>
</g>
<g id="nyt_x5F_exporter_x5F_info" display="none">
	<g display="inline" enable-background="new    ">
		<path d="M-466,360.6l5.6-2.9v0.8l-4.7,2.4v0l4.7,2.4v0.8l-5.6-2.9V360.6z"/>
		<path d="M-458.8,359.9c0-0.6,0-1.1,0-1.6h0.9l0.1,1h0c0.3-0.6,1-1.1,1.9-1.1c0.8,0,2.1,0.5,2.1,2.5v3.5h-1.1v-3.3
			c0-0.9-0.3-1.7-1.3-1.7c-0.7,0-1.2,0.5-1.4,1.1c0,0.1-0.1,0.3-0.1,0.5v3.5h-1.1V359.9z"/>
		<path d="M-451.9,358.3l1.3,3.4c0.1,0.4,0.3,0.8,0.4,1.2h0c0.1-0.3,0.2-0.8,0.4-1.2l1.2-3.4h1.1l-1.6,4.1c-0.8,2-1.3,3-2,3.6
			c-0.5,0.5-1,0.6-1.3,0.7l-0.3-0.9c0.3-0.1,0.6-0.3,0.9-0.5c0.3-0.2,0.6-0.6,0.9-1.2c0-0.1,0.1-0.2,0.1-0.3c0-0.1,0-0.1-0.1-0.3
			l-2.1-5.3H-451.9z"/>
		<path d="M-445.4,356.6v1.7h1.5v0.8h-1.5v3.1c0,0.7,0.2,1.1,0.8,1.1c0.3,0,0.5,0,0.6-0.1l0,0.8c-0.2,0.1-0.5,0.1-0.9,0.1
			c-0.5,0-0.9-0.2-1.1-0.4c-0.3-0.3-0.4-0.8-0.4-1.5v-3.2h-0.9v-0.8h0.9v-1.4L-445.4,356.6z"/>
		<path d="M-437.6,365v0.6h-6V365H-437.6z"/>
		<path d="M-436.7,360.2c0-0.7,0-1.3,0-1.9h0.9l0,1h0c0.4-0.7,1.1-1.1,2.1-1.1c1.4,0,2.5,1.2,2.5,3c0,2.1-1.3,3.1-2.6,3.1
			c-0.8,0-1.4-0.3-1.8-0.9h0v3.2h-1V360.2z M-435.6,361.7c0,0.2,0,0.3,0,0.4c0.2,0.7,0.8,1.2,1.6,1.2c1.1,0,1.8-0.9,1.8-2.2
			c0-1.2-0.6-2.2-1.7-2.2c-0.7,0-1.4,0.5-1.6,1.3c0,0.1-0.1,0.3-0.1,0.4V361.7z"/>
		<path d="M-429.9,360.1c0-0.7,0-1.3,0-1.8h0.9l0,1.1h0c0.3-0.8,0.9-1.3,1.6-1.3c0.1,0,0.2,0,0.3,0v1c-0.1,0-0.2,0-0.4,0
			c-0.7,0-1.3,0.6-1.4,1.4c0,0.1,0,0.3,0,0.5v3.1h-1V360.1z"/>
		<path d="M-425.5,361.4c0,1.4,0.9,2,2,2c0.8,0,1.2-0.1,1.6-0.3l0.2,0.8c-0.4,0.2-1,0.4-1.9,0.4c-1.8,0-2.9-1.2-2.9-2.9
			s1-3.1,2.7-3.1c1.9,0,2.4,1.7,2.4,2.7c0,0.2,0,0.4,0,0.5H-425.5z M-422.4,360.6c0-0.7-0.3-1.7-1.5-1.7c-1.1,0-1.5,1-1.6,1.7
			H-422.4z"/>
		<path d="M-419.9,364.1v-5h-0.8v-0.8h0.8V358c0-0.8,0.2-1.6,0.7-2c0.4-0.4,0.9-0.5,1.4-0.5c0.4,0,0.7,0.1,0.9,0.2l-0.1,0.8
			c-0.2-0.1-0.4-0.1-0.7-0.1c-0.9,0-1.1,0.8-1.1,1.7v0.3h1.4v0.8h-1.4v5H-419.9z"/>
		<path d="M-416.8,363c0.3,0.2,0.9,0.4,1.4,0.4c0.8,0,1.1-0.4,1.1-0.9c0-0.5-0.3-0.8-1.1-1.1c-1-0.4-1.5-0.9-1.5-1.6
			c0-0.9,0.8-1.7,2-1.7c0.6,0,1.1,0.2,1.4,0.4l-0.3,0.8c-0.2-0.1-0.6-0.3-1.2-0.3c-0.6,0-1,0.4-1,0.8c0,0.5,0.3,0.7,1.1,1
			c1,0.4,1.5,0.9,1.5,1.8c0,1-0.8,1.7-2.2,1.7c-0.6,0-1.2-0.2-1.6-0.4L-416.8,363z"/>
	</g>
	<g display="inline" enable-background="new    ">
		<path d="M-461,375l5.6-2.9v0.8l-4.7,2.4v0l4.7,2.4v0.8l-5.6-2.9V375z"/>
		<path d="M-453.7,374.3c0-0.6,0-1.1,0-1.6h0.9l0.1,1h0c0.3-0.6,1-1.1,1.9-1.1c0.8,0,2.1,0.5,2.1,2.5v3.5h-1.1v-3.3
			c0-0.9-0.3-1.7-1.3-1.7c-0.7,0-1.2,0.5-1.4,1.1c0,0.1-0.1,0.3-0.1,0.5v3.5h-1.1V374.3z"/>
		<path d="M-446.8,372.7l1.3,3.4c0.1,0.4,0.3,0.8,0.4,1.2h0c0.1-0.3,0.2-0.8,0.4-1.2l1.2-3.4h1.1l-1.6,4.1c-0.8,2-1.3,3-2,3.6
			c-0.5,0.5-1,0.6-1.3,0.7l-0.3-0.9c0.3-0.1,0.6-0.3,0.9-0.5c0.3-0.2,0.6-0.6,0.9-1.2c0-0.1,0.1-0.2,0.1-0.3c0-0.1,0-0.1-0.1-0.3
			l-2.1-5.3H-446.8z"/>
		<path d="M-440.3,371v1.7h1.5v0.8h-1.5v3.1c0,0.7,0.2,1.1,0.8,1.1c0.3,0,0.5,0,0.6-0.1l0,0.8c-0.2,0.1-0.5,0.1-0.9,0.1
			c-0.5,0-0.9-0.2-1.1-0.4c-0.3-0.3-0.4-0.8-0.4-1.5v-3.2h-0.9v-0.8h0.9v-1.4L-440.3,371z"/>
		<path d="M-432.5,379.4v0.6h-6v-0.6H-432.5z"/>
		<path d="M-431.6,374.6c0-0.7,0-1.3,0-1.9h0.9l0,1h0c0.4-0.7,1.1-1.1,2.1-1.1c1.4,0,2.5,1.2,2.5,3c0,2.1-1.3,3.1-2.6,3.1
			c-0.8,0-1.4-0.3-1.8-0.9h0v3.2h-1V374.6z M-430.5,376.1c0,0.2,0,0.3,0,0.4c0.2,0.7,0.8,1.2,1.6,1.2c1.1,0,1.8-0.9,1.8-2.2
			c0-1.2-0.6-2.2-1.7-2.2c-0.7,0-1.4,0.5-1.6,1.3c0,0.1-0.1,0.3-0.1,0.4V376.1z"/>
		<path d="M-424.8,374.5c0-0.7,0-1.3,0-1.8h0.9l0,1.1h0c0.3-0.8,0.9-1.3,1.6-1.3c0.1,0,0.2,0,0.3,0v1c-0.1,0-0.2,0-0.4,0
			c-0.7,0-1.3,0.6-1.4,1.4c0,0.1,0,0.3,0,0.5v3.1h-1V374.5z"/>
		<path d="M-420.4,375.8c0,1.4,0.9,2,2,2c0.8,0,1.2-0.1,1.6-0.3l0.2,0.8c-0.4,0.2-1,0.4-1.9,0.4c-1.8,0-2.9-1.2-2.9-2.9
			s1-3.1,2.7-3.1c1.9,0,2.4,1.7,2.4,2.7c0,0.2,0,0.4,0,0.5H-420.4z M-417.3,375c0-0.7-0.3-1.7-1.5-1.7c-1.1,0-1.5,1-1.6,1.7H-417.3z
			"/>
		<path d="M-414.8,378.5v-5h-0.8v-0.8h0.8v-0.3c0-1.5,0.9-2.5,2.5-2.5c0.5,0,1.2,0.2,1.5,0.4l-0.3,0.8c-0.3-0.2-0.7-0.3-1.2-0.3
			c-1.1,0-1.4,0.8-1.4,1.7v0.3h3.4v5.8h-1v-5h-2.3v5H-414.8z"/>
	</g>
	<g display="inline" enable-background="new    ">
		<path d="M-461,389.4l5.6-2.9v0.8l-4.7,2.4v0l4.7,2.4v0.8l-5.6-2.9V389.4z"/>
		<path d="M-453.7,388.7c0-0.6,0-1.1,0-1.6h0.9l0.1,1h0c0.3-0.6,1-1.1,1.9-1.1c0.8,0,2.1,0.5,2.1,2.5v3.5h-1.1v-3.3
			c0-0.9-0.3-1.7-1.3-1.7c-0.7,0-1.2,0.5-1.4,1.1c0,0.1-0.1,0.3-0.1,0.5v3.5h-1.1V388.7z"/>
		<path d="M-446.8,387.1l1.3,3.4c0.1,0.4,0.3,0.8,0.4,1.2h0c0.1-0.3,0.2-0.8,0.4-1.2l1.2-3.4h1.1l-1.6,4.1c-0.8,2-1.3,3-2,3.6
			c-0.5,0.5-1,0.6-1.3,0.7l-0.3-0.9c0.3-0.1,0.6-0.3,0.9-0.5c0.3-0.2,0.6-0.6,0.9-1.2c0-0.1,0.1-0.2,0.1-0.3c0-0.1,0-0.1-0.1-0.3
			l-2.1-5.3H-446.8z"/>
		<path d="M-440.3,385.4v1.7h1.5v0.8h-1.5v3.1c0,0.7,0.2,1.1,0.8,1.1c0.3,0,0.5,0,0.6-0.1l0,0.8c-0.2,0.1-0.5,0.1-0.9,0.1
			c-0.5,0-0.9-0.2-1.1-0.4c-0.3-0.3-0.4-0.8-0.4-1.5v-3.2h-0.9v-0.8h0.9v-1.4L-440.3,385.4z"/>
		<path d="M-432.5,393.8v0.6h-6v-0.6H-432.5z"/>
		<path d="M-431.7,391.8c0.3,0.2,0.9,0.4,1.4,0.4c0.8,0,1.1-0.4,1.1-0.9c0-0.5-0.3-0.8-1.1-1.1c-1-0.4-1.5-0.9-1.5-1.6
			c0-0.9,0.8-1.7,2-1.7c0.6,0,1.1,0.2,1.4,0.4l-0.3,0.8c-0.2-0.1-0.6-0.3-1.2-0.3c-0.6,0-1,0.4-1,0.8c0,0.5,0.3,0.7,1.1,1
			c1,0.4,1.5,0.9,1.5,1.8c0,1-0.8,1.7-2.2,1.7c-0.6,0-1.2-0.2-1.6-0.4L-431.7,391.8z"/>
		<path d="M-422,391.3c0,0.6,0,1.1,0,1.6h-0.9l-0.1-0.9h0c-0.3,0.5-0.9,1.1-1.9,1.1c-0.9,0-2-0.5-2-2.5v-3.4h1.1v3.2
			c0,1.1,0.3,1.8,1.3,1.8c0.7,0,1.2-0.5,1.4-1c0.1-0.2,0.1-0.3,0.1-0.5v-3.6h1.1V391.3z"/>
		<path d="M-413,385.4c-0.3-0.2-0.7-0.3-1.2-0.3c-1.1,0-1.5,0.8-1.5,1.7v0.3h3.4v5.8h-1.1v-5h-2.3v5h-1.1v-5h-2.4v5h-1v-5h-0.8v-0.8
			h0.8v-0.2c0-0.7,0.2-1.4,0.7-1.9c0.3-0.3,0.8-0.6,1.5-0.6c0.4,0,0.8,0.1,1,0.3l-0.3,0.8c-0.2-0.1-0.5-0.2-0.7-0.2
			c-0.3,0-0.6,0.1-0.8,0.3c-0.3,0.3-0.4,0.8-0.4,1.3v0.2h2.4v-0.3c0-1.5,0.9-2.5,2.5-2.5c0.5,0,1.1,0.2,1.4,0.4L-413,385.4z"/>
	</g>
	<g display="inline" enable-background="new    ">
		<path d="M-461,403.8l5.6-2.9v0.8l-4.7,2.4v0l4.7,2.4v0.8l-5.6-2.9V403.8z"/>
		<path d="M-453.7,403.1c0-0.6,0-1.1,0-1.6h0.9l0.1,1h0c0.3-0.6,1-1.1,1.9-1.1c0.8,0,2.1,0.5,2.1,2.5v3.5h-1.1V404
			c0-0.9-0.3-1.7-1.3-1.7c-0.7,0-1.2,0.5-1.4,1.1c0,0.1-0.1,0.3-0.1,0.5v3.5h-1.1V403.1z"/>
		<path d="M-446.8,401.5l1.3,3.4c0.1,0.4,0.3,0.8,0.4,1.2h0c0.1-0.3,0.2-0.8,0.4-1.2l1.2-3.4h1.1l-1.6,4.1c-0.8,2-1.3,3-2,3.6
			c-0.5,0.5-1,0.6-1.3,0.7l-0.3-0.9c0.3-0.1,0.6-0.3,0.9-0.5c0.3-0.2,0.6-0.6,0.9-1.2c0-0.1,0.1-0.2,0.1-0.3c0-0.1,0-0.1-0.1-0.3
			l-2.1-5.3H-446.8z"/>
		<path d="M-440.3,399.8v1.7h1.5v0.8h-1.5v3.1c0,0.7,0.2,1.1,0.8,1.1c0.3,0,0.5,0,0.6-0.1l0,0.8c-0.2,0.1-0.5,0.1-0.9,0.1
			c-0.5,0-0.9-0.2-1.1-0.4c-0.3-0.3-0.4-0.8-0.4-1.5v-3.2h-0.9v-0.8h0.9v-1.4L-440.3,399.8z"/>
		<path d="M-432.5,408.2v0.6h-6v-0.6H-432.5z"/>
		<path d="M-431.6,407.3c0-0.4,0-1,0-1.5v-7h1v3.6h0c0.4-0.6,1-1.1,2-1.1c1.4,0,2.5,1.2,2.4,3c0,2.1-1.3,3.1-2.6,3.1
			c-0.8,0-1.5-0.3-1.9-1.1h0l0,1H-431.6z M-430.5,405c0,0.1,0,0.3,0,0.4c0.2,0.7,0.8,1.2,1.6,1.2c1.1,0,1.8-0.9,1.8-2.2
			c0-1.2-0.6-2.2-1.7-2.2c-0.7,0-1.4,0.5-1.6,1.3c0,0.1-0.1,0.3-0.1,0.4V405z"/>
		<path d="M-421.5,407.3l-0.1-0.7h0c-0.3,0.5-0.9,0.9-1.8,0.9c-1.2,0-1.8-0.8-1.8-1.7c0-1.4,1.2-2.2,3.5-2.2v-0.1
			c0-0.5-0.1-1.3-1.3-1.3c-0.5,0-1.1,0.2-1.5,0.4l-0.2-0.7c0.5-0.3,1.2-0.5,1.9-0.5c1.8,0,2.2,1.2,2.2,2.4v2.2c0,0.5,0,1,0.1,1.4
			H-421.5z M-421.7,404.3c-1.2,0-2.5,0.2-2.5,1.3c0,0.7,0.5,1,1,1c0.8,0,1.2-0.5,1.4-1c0-0.1,0.1-0.2,0.1-0.3V404.3z"/>
		<path d="M-419.1,406.2c0.3,0.2,0.9,0.4,1.4,0.4c0.8,0,1.1-0.4,1.1-0.9c0-0.5-0.3-0.8-1.1-1.1c-1-0.4-1.5-0.9-1.5-1.6
			c0-0.9,0.8-1.7,2-1.7c0.6,0,1.1,0.2,1.4,0.4l-0.3,0.8c-0.2-0.1-0.6-0.3-1.2-0.3c-0.6,0-1,0.4-1,0.8c0,0.5,0.3,0.7,1.1,1
			c1,0.4,1.5,0.9,1.5,1.8c0,1-0.8,1.7-2.2,1.7c-0.6,0-1.2-0.2-1.6-0.4L-419.1,406.2z"/>
		<path d="M-413.6,404.6c0,1.4,0.9,2,2,2c0.8,0,1.2-0.1,1.6-0.3l0.2,0.8c-0.4,0.2-1,0.4-1.9,0.4c-1.8,0-2.9-1.2-2.9-2.9
			s1-3.1,2.7-3.1c1.9,0,2.4,1.7,2.4,2.7c0,0.2,0,0.4,0,0.5H-413.6z M-410.5,403.8c0-0.7-0.3-1.7-1.5-1.7c-1.1,0-1.5,1-1.6,1.7
			H-410.5z"/>
	</g>
	<g display="inline" enable-background="new    ">
		<path d="M-461,418.2l5.6-2.9v0.8l-4.7,2.4v0l4.7,2.4v0.8l-5.6-2.9V418.2z"/>
		<path d="M-453.7,417.5c0-0.6,0-1.1,0-1.6h0.9l0.1,1h0c0.3-0.6,1-1.1,1.9-1.1c0.8,0,2.1,0.5,2.1,2.5v3.5h-1.1v-3.3
			c0-0.9-0.3-1.7-1.3-1.7c-0.7,0-1.2,0.5-1.4,1.1c0,0.1-0.1,0.3-0.1,0.5v3.5h-1.1V417.5z"/>
		<path d="M-446.8,415.9l1.3,3.4c0.1,0.4,0.3,0.8,0.4,1.2h0c0.1-0.3,0.2-0.8,0.4-1.2l1.2-3.4h1.1l-1.6,4.1c-0.8,2-1.3,3-2,3.6
			c-0.5,0.5-1,0.6-1.3,0.7l-0.3-0.9c0.3-0.1,0.6-0.3,0.9-0.5c0.3-0.2,0.6-0.6,0.9-1.2c0-0.1,0.1-0.2,0.1-0.3c0-0.1,0-0.1-0.1-0.3
			l-2.1-5.3H-446.8z"/>
		<path d="M-440.3,414.2v1.7h1.5v0.8h-1.5v3.1c0,0.7,0.2,1.1,0.8,1.1c0.3,0,0.5,0,0.6-0.1l0,0.8c-0.2,0.1-0.5,0.1-0.9,0.1
			c-0.5,0-0.9-0.2-1.1-0.4c-0.3-0.3-0.4-0.8-0.4-1.5v-3.2h-0.9v-0.8h0.9v-1.4L-440.3,414.2z"/>
		<path d="M-431.7,420.6c0.3,0.2,0.9,0.4,1.4,0.4c0.8,0,1.1-0.4,1.1-0.9c0-0.5-0.3-0.8-1.1-1.1c-1-0.4-1.5-0.9-1.5-1.6
			c0-0.9,0.8-1.7,2-1.7c0.6,0,1.1,0.2,1.4,0.4l-0.3,0.8c-0.2-0.1-0.6-0.3-1.2-0.3c-0.6,0-1,0.4-1,0.8c0,0.5,0.3,0.7,1.1,1
			c1,0.4,1.5,0.9,1.5,1.8c0,1-0.8,1.7-2.2,1.7c-0.6,0-1.2-0.2-1.6-0.4L-431.7,420.6z"/>
		<path d="M-422.7,421.5c-0.3,0.1-0.9,0.3-1.7,0.3c-1.8,0-2.9-1.2-2.9-3c0-1.8,1.2-3.1,3.1-3.1c0.6,0,1.2,0.2,1.5,0.3l-0.2,0.8
			c-0.3-0.1-0.6-0.3-1.2-0.3c-1.3,0-2.1,1-2.1,2.2c0,1.3,0.9,2.2,2,2.2c0.6,0,1-0.2,1.3-0.3L-422.7,421.5z"/>
		<path d="M-418.2,421.7l-0.1-0.7h0c-0.3,0.5-0.9,0.9-1.8,0.9c-1.2,0-1.8-0.8-1.8-1.7c0-1.4,1.2-2.2,3.5-2.2v-0.1
			c0-0.5-0.1-1.3-1.3-1.3c-0.5,0-1.1,0.2-1.5,0.4l-0.2-0.7c0.5-0.3,1.2-0.5,1.9-0.5c1.8,0,2.2,1.2,2.2,2.4v2.2c0,0.5,0,1,0.1,1.4
			H-418.2z M-418.4,418.7c-1.2,0-2.5,0.2-2.5,1.3c0,0.7,0.5,1,1,1c0.8,0,1.2-0.5,1.4-1c0-0.1,0.1-0.2,0.1-0.3V418.7z"/>
		<path d="M-415.7,413.2h1.1v8.5h-1.1V413.2z"/>
	</g>
</g>
</svg>
