<?xml version="1.0" encoding="utf-8"?>
<!-- Generator: Adobe Illustrator 18.1.0, SVG Export Plug-In . SVG Version: 6.00 Build 0)  -->
<!DOCTYPE svg PUBLIC "-//W3C//DTD SVG 1.1//EN" "http://www.w3.org/Graphics/SVG/1.1/DTD/svg11.dtd">
<svg version="1.1" id="Layer_1" xmlns="http://www.w3.org/2000/svg" xmlns:xlink="http://www.w3.org/1999/xlink" x="0px" y="0px"
	 width="50px" height="58px" viewBox="0 0 50 58" enable-background="new 0 0 50 58" xml:space="preserve">
<g>
	<path fill="#FFFFFF" d="M16,8.5c-0.2-0.1-0.2-0.2-0.3-0.2c-0.1-0.1-0.4-0.1-1-0.4c-0.5-0.4-0.6-0.1-0.9-0.1l-0.5-0.3
		c0,0,0,0.4,0.2,0.5c0.1,0.1,0.1,0.2,0.1,0.2l0.1,0.1c0,0.2-0.4-0.1-0.4-0.1c-0.1,0.4,0.3,0.6,0.4,0.7c0,0.1,0.1,0.1,0.1,0.1
		s0,0.1-0.1,0.1c-0.1,0.1-0.2,0.2-0.2,0.2H14c0.1,0.1,0.4,0.2,0.7,0.2c0.3,0.1,0.5-0.1,0.6-0.1c0.1,0.1,0.3,0.1,0.3,0.1
		s0.1,0,0.1-0.1s0.1-0.3,0.1-0.5c0.1-0.2,0.1-0.2,0.2-0.1C16.1,8.7,16.2,8.5,16,8.5L16,8.5z M16.7,8.7c0.1,0,0.1-0.1,0.1,0.1
		c0,0.2,0.1,0.4,0.1,0.5C17,9.5,17,9.7,17,9.7s0.2-0.1,0.2-0.1c0.1-0.1,0.4,0.1,0.7,0c0.3-0.1,0.5-0.2,0.7-0.3c0.1-0.1,0.3,0,0.3,0
		s0-0.1-0.1-0.2c-0.1-0.1,0-0.1,0-0.1s0-0.1,0.1-0.1c0-0.1,0.4-0.2,0.4-0.5c0,0-0.3,0.1-0.3-0.1V8.2C18.9,8.2,19,8,19,8
		c0.1-0.1,0.1-0.5,0.1-0.5S19,7.6,18.7,7.7c-0.2,0.1-0.2-0.2-0.9,0.1c-0.6,0.4-1,0.4-1.1,0.5l-0.2,0.2C16.4,8.6,16.5,8.7,16.7,8.7
		 M12.7,7.6c0,0-0.9-1-1-1.6c0-0.2,0.1-1.3,1.3-1.1c0.4,0.1,0.5,0.2,0.9,0.6c0.3,0.3,0.2,0.3,0.2,0.3s0.1-0.9,0.6-1
		c0.4-0.1,0.5,1.1,0.5,1.1c0,0.4,0.1-1.3,0.8-1.3c0.5,0,0.7,1.6,0.7,1.5c0,0,0.1-1.2,0.7-1.2c0.7,0,0.4,1.3,0.4,1.3l0.3-0.6
		c0.2-0.5,1-0.7,1.3-0.5c0.6,0.2,1,0.7,0.9,1.2c-0.2,0.7-0.9,1.3-0.9,1.3s0,0.2,0.1,0.8c0,0.6-0.6,1.3-0.6,1.3s0.5-0.2,0.7,0.4
		c0.2,0.6,0,1.3-0.9,2.1c-0.4,0.4-1,0.7-1.4,0.9l-0.1-0.5c1.4-0.3,1.6-1.6,1.6-1.6s-0.2,0.1-0.2,0.2c-0.1,0.1-0.1-0.4-0.2-0.3
		c0,0-0.2,1.1-1.2,1.2l-0.9-0.6h-0.2c0,0.5-0.9,0.5-0.9,0.5c-0.5-0.1-1-0.4-1.1-1c0-0.1-0.2,0.3-0.2,0.3c-0.2-0.1-0.3-0.1-0.3-0.1
		c0.3,0.9,1,1.3,1.6,1.5v0.5c-0.5-0.2-1.2-0.5-1.6-0.9c-0.9-0.9-1.1-1.5-0.9-2.1c0.2-0.6,0.7-0.4,0.7-0.4c-0.4-0.4-0.7-0.2-0.7-0.2
		c-0.5,0.3-0.3,0.8-0.3,0.8s-0.1,0.1-0.2-0.1c-0.2-0.1-0.5-0.4-0.5-0.4S12,9,12.3,9c0.2-0.1,0.6-0.1,0.6-0.1l-0.1-0.1
		c0,0-0.7-0.1-1-0.2c-0.5-0.2-0.5-0.9-0.5-0.9c0.4-0.2,0.2-0.2,0.7-0.4C12.1,7.3,12.6,7.6,12.7,7.6 M19.2,6.3c0.3,0.1,0,1,0,1
		s0.5-0.4,0.7-0.8c0.2-0.4-0.2-1.1-0.7-1c-0.7,0.1-0.9,1-0.9,1C18.4,6.1,18.9,6.2,19.2,6.3z M14,6.5c0,0-0.4-1-1.1-1
		c0,0-1,0.1-0.5,1.1c0,0,0.1,0.2,0.4,0.5c0,0,0.5,0.4,0.4,0.1c-0.1-0.4-0.5-0.8-0.2-1c0.3-0.2,0.5-0.1,0.7,0.1
		C13.7,6.2,13.9,6.4,14,6.5L14,6.5z M14.8,5.4c0,0-0.2,0.1-0.3,0.7c0,0,0.2-0.1,0.5-0.1C15.1,6.1,15,5.5,14.8,5.4z M16.5,6.1
		c-0.1-1-0.4-0.9-0.4-0.9c-0.4,0.1-0.4,0.9-0.4,0.9C16.1,6,16.5,6.1,16.5,6.1z M17.6,6.1c0,0,0.1-0.7-0.2-0.8
		C17.2,5.2,17.2,6,17.2,6C17.5,6,17.6,6.1,17.6,6.1L17.6,6.1z M19.3,9.4c0.7-0.7,0.4-1.9,0.4-1.9s0.3-0.2,0.5-0.1
		c0.5,0.2,0.4,0.1,0.7,0.4c0,0-0.1,0.7-0.5,0.9c-0.5,0.2,0.1,0-0.4,0.1l-0.4,0.1c0,0,0.1,0.1,0.4,0.2c0.2,0.1,0.5,0.7,0.5,0.7
		s-0.2,0.2-0.5,0.4c-0.2,0.1-0.2,0.1-0.2,0.1s0.1-0.5-0.2-0.7C19.7,9.6,19.4,9.4,19.3,9.4 M16.9,24.4c-0.2-0.1-0.2-0.2-0.3-0.2
		c-0.1-0.1-0.4-0.1-0.9-0.4c-0.5-0.4-0.6-0.1-0.8-0.1c-0.2-0.1-0.4-0.3-0.4-0.3s0,0.3,0.1,0.5c0.1,0.1,0.1,0.2,0.1,0.2l0.1,0.1
		c0,0.2-0.4-0.1-0.4-0.1c-0.1,0.3,0.3,0.6,0.4,0.6c0,0.1,0.1,0.1,0.1,0.1s0,0.1-0.1,0.1c-0.1,0.1-0.2,0.2-0.2,0.2h0.5
		c0.1,0.1,0.3,0.2,0.6,0.2c0.2,0.1,0.5-0.1,0.5-0.1c0.1,0.1,0.2,0.1,0.2,0.1s0.1,0,0.1-0.1c0-0.1,0.1-0.2,0.1-0.5
		c0.1-0.2,0.1-0.1,0.2-0.1C17,24.5,17.1,24.4,16.9,24.4L16.9,24.4z M17.6,24.5c0.1,0,0.1,0,0.1,0.1c0,0.2,0.1,0.4,0.1,0.5
		c0,0.1,0.1,0.3,0.1,0.3s0.1-0.1,0.2-0.1c0.1-0.1,0.4,0,0.6,0c0.2-0.1,0.5-0.2,0.7-0.2c0.1-0.1,0.3,0,0.3,0s0-0.1-0.1-0.2
		c-0.1-0.1,0-0.1,0-0.1s0-0.1,0.1-0.1c0-0.1,0.4-0.2,0.3-0.5c0,0-0.3,0.1-0.3-0.1v-0.1c0,0,0.1-0.1,0.1-0.2c0.1-0.1,0.1-0.4,0.1-0.4
		s-0.1,0.1-0.4,0.2c-0.2,0.1-0.2-0.2-0.8,0.1c-0.5,0.3-0.9,0.4-1,0.5c-0.1,0.1-0.2,0.2-0.2,0.2c-0.1,0.1,0,0.2,0.1,0.2 M13.7,23.5
		c0,0-0.9-1-0.9-1.6c0-0.2,0.1-1.2,1.3-1c0.3,0.1,0.5,0.2,0.8,0.5l0.2,0.2c0,0,0.1-0.9,0.6-0.9c0.4-0.1,0.5,1,0.5,1
		c0,0.4,0.1-1.3,0.7-1.3c0.5,0,0.7,1.6,0.7,1.5c0,0,0.1-1.2,0.6-1.2c0.6,0,0.4,1.3,0.4,1.3s0.1-0.2,0.3-0.5c0.2-0.4,0.9-0.7,1.3-0.5
		c0.5,0.2,0.9,0.7,0.8,1.2c-0.1,0.7-0.8,1.2-0.8,1.2s0,0.1,0.1,0.7c0,0.6-0.5,1.3-0.5,1.3s0.5-0.2,0.6,0.4c0.2,0.5,0,1.2-0.9,2.1
		c-0.4,0.4-0.9,0.7-1.3,0.8v-0.5c1.3-0.3,1.5-1.6,1.5-1.6l-0.2,0.2l-0.2-0.3c0,0-0.2,1.1-1.1,1.2c-0.9,0.1-0.8-0.6-0.8-0.6h-0.2
		c0,0.5-0.9,0.5-0.9,0.5c-0.5-0.1-0.9-0.4-1-1c0-0.1-0.2,0.3-0.2,0.3c-0.2-0.1-0.3-0.1-0.3-0.1c0.2,0.9,1,1.3,1.5,1.5v0.5
		c-0.5-0.2-1.1-0.4-1.6-0.9c-0.9-0.9-1-1.5-0.9-2.1c0.2-0.5,0.6-0.4,0.6-0.4c-0.2-0.2-0.5-0.1-0.5-0.1c-0.4,0.2-0.3,0.7-0.3,0.7
		s-0.1,0.1-0.2-0.1c-0.2-0.1-0.4-0.4-0.4-0.4s0.3-0.7,0.5-0.7c0.2-0.1,0.6-0.1,0.6-0.1L14,24.8c0,0-0.6-0.1-0.9-0.2
		c-0.4-0.2-0.5-0.9-0.5-0.9c0.4-0.2,0.2-0.2,0.7-0.4C13.3,23.1,13.7,23.4,13.7,23.5 M19.9,22.2c0.2,0.1,0,0.9,0,0.9s0.4-0.3,0.7-0.8
		c0.2-0.4-0.1-1-0.6-1c-0.7,0.1-0.9,1-0.9,1C19.2,22,19.7,22.1,19.9,22.2L19.9,22.2z M15,22.4c0,0-0.4-0.9-1-1c0,0-0.9,0.1-0.5,1
		c0,0,0,0.2,0.4,0.5c0,0,0.5,0.4,0.4,0.1c-0.1-0.4-0.5-0.8-0.2-0.9c0.3-0.1,0.5-0.1,0.6,0.1C14.7,22.2,14.9,22.3,15,22.4L15,22.4z
		 M15.8,21.4c0,0-0.2,0.1-0.2,0.7c0,0,0.2-0.1,0.5-0.1C16,22,16,21.5,15.8,21.4z M17.4,22c-0.1-0.9-0.4-0.9-0.4-0.9
		c-0.4,0.1-0.3,0.9-0.3,0.9C17,22,17.4,22,17.4,22z M18.5,22c0,0,0.1-0.7-0.2-0.7c-0.2-0.1-0.2,0.7-0.2,0.7C18.4,22,18.5,22,18.5,22
		L18.5,22z M20,25.2c0.7-0.7,0.4-1.8,0.4-1.8s0.3-0.1,0.5,0c0.5,0.2,0.2,0.1,0.5,0.3c0,0-0.1,0.5-0.5,0.7c-0.2,0.1-0.3,0.1-0.4,0.2
		l-0.2,0.1c0,0,0.1,0.1,0.4,0.2c0.2,0.1,0.5,0.7,0.5,0.7s-0.2,0.2-0.4,0.4s-0.2,0.1-0.2,0.1s0.1-0.5-0.2-0.7
		C20.4,25.3,20.2,25.2,20,25.2 M18,40c-0.2-0.1-0.2-0.2-0.2-0.2c-0.1-0.1-0.3,0-0.8-0.4c-0.5-0.3-0.5-0.1-0.7-0.1
		c-0.2-0.1-0.4-0.2-0.4-0.2s0,0.3,0.1,0.5l0.1,0.1c0,0,0.1,0.1,0,0.1c0,0.1-0.3-0.1-0.3-0.1c0,0.3,0.3,0.5,0.3,0.5
		c0,0.1,0.1,0.1,0.1,0.1s0,0.1-0.1,0.1c-0.1,0.1-0.2,0.1-0.2,0.1h0.4c0.1,0,0.3,0.2,0.5,0.2c0.2,0.1,0.4-0.1,0.5-0.1
		c0.1,0.1,0.2,0.1,0.2,0.1s0.1,0,0.1-0.1s0.1-0.2,0.1-0.4c0.1-0.2,0.1-0.1,0.2-0.1C18.1,40.1,18.1,40,18,40L18,40z M18.6,40.1
		c0.1,0,0.1,0,0.1,0.1c0,0.2,0.1,0.4,0.1,0.4c0,0.1,0.1,0.2,0.1,0.2l0.2-0.1c0.1-0.1,0.3,0,0.5,0c0.2-0.1,0.5-0.2,0.6-0.2h0.3
		c0,0,0-0.1-0.1-0.1c-0.1,0,0-0.1,0-0.1s0-0.1,0.1-0.1c0-0.1,0.3-0.1,0.3-0.4c0,0-0.2,0.1-0.3-0.1v-0.1l0.1-0.1
		c0.1-0.1,0.1-0.4,0.1-0.4s-0.1,0.1-0.3,0.2c-0.2,0.1-0.2-0.2-0.7,0.1c-0.5,0.3-0.9,0.4-0.9,0.4S18.6,40.1,18.6,40.1
		C18.5,40.1,18.6,40.2,18.6,40.1 M15.1,39.2c0,0-0.8-0.9-0.8-1.3c0-0.2,0.1-1.1,1.2-0.9c0.3,0.1,0.5,0.2,0.7,0.5s0.2,0.2,0.2,0.2
		s0.1-0.7,0.5-0.8c0.4-0.1,0.5,0.9,0.5,0.9c0,0.4,0.1-1.1,0.7-1.1c0.5,0,0.6,1.3,0.6,1.2c0,0,0.1-1,0.5-1c0.5,0,0.4,1.1,0.4,1.1
		s0.1-0.2,0.3-0.5c0.2-0.4,0.8-0.5,1.1-0.4c0.5,0.2,0.8,0.5,0.7,1c-0.1,0.5-0.7,1-0.7,1s0,0.1,0.1,0.7c0,0.5-0.5,1.1-0.5,1.1
		s0.4-0.1,0.5,0.4c0.1,0.5,0,1-0.8,1.8c-0.4,0.3-0.8,0.5-1.2,0.7v-0.5c1.2-0.2,1.3-1.3,1.3-1.3s-0.1,0.1-0.2,0.2l-0.2-0.2
		c0,0-0.2,0.9-1,1c-0.8,0.1-0.7-0.5-0.7-0.5h-0.2c0,0.4-0.7,0.4-0.7,0.4c-0.4-0.1-0.9-0.3-1-0.9c0-0.1-0.2,0.2-0.2,0.2
		C16.1,42.1,16,42,16,42c0.2,0.7,0.9,1.1,1.3,1.3v0.5c-0.4-0.1-1-0.4-1.4-0.8c-0.8-0.7-0.9-1.3-0.8-1.8c0.1-0.5,0.5-0.4,0.5-0.4
		c-0.2-0.2-0.5-0.1-0.5-0.1c-0.4,0.2-0.2,0.7-0.2,0.7s-0.1,0.1-0.2-0.1c-0.2-0.1-0.4-0.4-0.4-0.4s0.2-0.6,0.5-0.7
		c0.2-0.1,0.5-0.1,0.5-0.1l-0.1-0.1c0,0-0.5-0.1-0.9-0.2c-0.4-0.1-0.5-0.7-0.5-0.7c0.3-0.2,0.1-0.1,0.6-0.3
		C14.7,39,15.1,39.2,15.1,39.2 M20.6,38.1c0.2,0.1,0,0.8,0,0.8s0.4-0.3,0.6-0.7c0.2-0.4-0.1-0.9-0.5-0.9c-0.6,0.1-0.8,0.9-0.8,0.9
		C20.1,38,20.4,38,20.6,38.1L20.6,38.1z M16.3,38.3c0,0-0.3-0.8-0.9-0.9c0,0-0.9,0.1-0.5,0.9c0,0,0,0.1,0.4,0.4c0,0,0.4,0.4,0.3,0.1
		s-0.4-0.7-0.2-0.8c0.2-0.1,0.4-0.1,0.5,0.1C16,38.1,16.2,38.2,16.3,38.3L16.3,38.3z M17,37.4c0,0-0.2,0.1-0.2,0.6
		c0,0,0.2-0.1,0.4-0.1C17.1,38,17.1,37.5,17,37.4L17,37.4z M18.4,38c-0.1-0.8-0.4-0.7-0.4-0.7c-0.3,0.1-0.3,0.8-0.3,0.8
		C18.1,37.9,18.4,38,18.4,38z M19.3,38c0,0,0.1-0.6-0.1-0.7c-0.2,0-0.2,0.6-0.2,0.6C19.3,37.9,19.3,38,19.3,38L19.3,38z M20.8,40.7
		c0.6-0.5,0.4-1.6,0.4-1.6s0.4-0.1,0.7-0.1c0.3,0.1,0.4,0.2,0.5,0.4c0,0-0.2,0.4-0.5,0.6c-0.2,0.1-0.4,0.1-0.5,0.2h-0.1
		c0,0,0.2,0,0.4,0.1c0.5,0.3,0.4,0.6,0.4,0.6s-0.2,0.2-0.4,0.4c-0.1,0.1-0.2,0.1-0.2,0.1s0.1-0.4-0.2-0.5
		C21.1,40.9,20.9,40.7,20.8,40.7"/>
	<path fill="#FFFFFF" d="M44.5,36c-0.2-0.1-0.2-0.4-0.2-0.4s0.2-0.1,0.2-0.7c0.1-0.5-0.4-0.9-0.4-0.9c0.4,0.1,0.9-0.5,0.7-1.1
		c-0.3-0.7-0.9-0.4-1.2-0.2c-0.1,0.1-0.1,0.1-0.1,0.1s0.1-0.1,0.1-0.1c0.3-0.2,1-0.8,0.6-1.4c-0.5-0.7-1.5,0-1.5,0
		c0.4-0.3,1.2-1,0.5-1.5c-0.4-0.3-0.9-0.1-1.2,0.1c-0.1,0.1-0.2,0.2-0.3,0.2c0,0,0.1-0.1,0.3-0.2c0.3-0.2,0.6-0.6,0.3-0.9
		c-0.7-0.5-1.5,0.4-1.5,0.4s-1.2-0.9-2.3-0.7c-1.1,0.2-2,0.3-2.5,0.3c-0.4,0-1.5-0.3-1.7-0.7c-0.2-0.4-0.4-0.5-0.5-0.6
		c-0.1,0-0.1-0.1-0.1-0.1s0.1,0,0.1,0.1c0.2,0.1,0.5,0.2,0.9,0.5c0.1,0.1,1.2,0.1,1.5,0.1c0.4,0,0.4,0.1,1,0c2.9-0.1,4.2-0.1,5.1-1
		c1.1-0.9,0.2-2.4,0.1-2.6c-0.6-0.7-1.5-1-2.6-1c-1,0-13.7,0.2-14.7,0.2c-0.9,0-2.3,0.1-2.7-0.5C21.8,22.8,22.5,22,23,22
		c0.4,0,0.9,0.5,1.3,0.5c0.4,0.1,0.7,0.2,1.3,0.4c0.5,0.1,0.9,0,1-0.1L25.8,22h-0.4c-0.1,0-0.1-0.2,0-0.2h0.5c0,0,0.5,0.7,0.9,0.9
		c0.4,0.2,0.9,0.2,1.2,0.2h0.9L28.1,22h-0.4c-0.1,0-0.2-0.2,0-0.2h0.5c0.1,0,0.5,0.7,0.9,0.9c0.4,0.2,1,0.2,1.3,0.2s0.5-0.2,0.5-0.2
		l-0.8-0.7h-0.3c0,0-0.1-0.2,0-0.2h0.5c0.8,0.7,0.9,0.8,1.1,0.9c0.4,0.2,0.8,0.2,1,0.2c0.3,0,0.5-0.2,0.5-0.2l-0.5-0.6h-0.4
		c0,0-0.2-0.2,0-0.2h0.5c0,0,0.5,0.5,0.9,0.9c0.4,0.3,0.8,0.2,1.3,0.2c0.5-0.1,0.6-0.2,0.6-0.2l-0.4-0.4l-0.2-0.2
		c-0.1-0.1-0.5,0-0.5,0c-0.1,0-0.1-0.2,0-0.2h0.7c0,0,0.4,0.4,0.8,0.6s1,0.2,1.6,0S36.9,22,36.9,22s-0.2-0.1-0.3-0.2
		c-0.1-0.1-0.3-0.2-0.2-0.4c0.1-0.1,0.6,0.2,0.6,0.2s0.1,0,0.2,0.1c0.2,0.1,1,0.5,3.4-1.1l-16.3,0.1c-1.2,0-2.5,0.3-3.1,1.5
		c-0.2,0.3-0.2,0.7-0.2,1c0.3,0.1,0.2,0.1,0.5,0.3c0,0-0.1,0.4-0.2,0.6c0.1,0.2,0.3,0.4,0.5,0.5c0.7,0.5,2.4,0.3,5.2,0.3h12.5
		c0.6,0,1.4,0.1,1.8,0.5c0.5,0.5-0.2,1.3-0.8,1.3c-0.5,0-3.4,0.1-4.8,0.1c-1.4,0-7.3-0.1-9-0.1c-1.2,0.1-2.9,0.1-3.7-0.1
		c-0.2-0.1-0.2-0.2-0.2-0.4c-0.2,0.2-0.4,0.2-0.4,0.2s-0.3,0.1-0.4,0.2c-0.2,0.1-0.4,0.2-0.4,0.2v-0.5c-0.5,0-1,0.1-1,0.1
		s0.1-0.1-0.4,0.9l-2.1,1.5c0,1.5-1,1.5-1,1.5c-1.1-0.1-1-1.3-1-1.3c-2-0.7-2.4-1.8-2.4-1.8L13.2,27l-0.5-0.5
		c-0.6-0.5-1.2-0.9-1.5-1.4c-0.2-0.5-0.9-1.3-0.7-1.8c0.1-0.5,0.2-1.2,0.2-1.3c0-0.1,0.1-0.3,0.1-0.5c0-0.4-0.8-0.5-0.8-0.5
		c0.7,0.4,0.4,0.9,0.4,0.9c-0.1,0.1-0.2,0.5-0.9,0.6c-0.4,0-0.3,0.7-0.3,0.7l0.2,0.7l0.3,1c0,0-0.4-0.7-0.6-1.2
		c-0.2-0.4-0.7-1.7-1-2.3c-0.2-0.5-1-0.5-1-0.5C7.9,21.2,7.5,22,7.5,22s-0.1,0.3-0.2,0.8c-0.2,0.6,0.3,1,0.3,1l1,0.9L9,25
		c0,0-0.6-0.1-0.9-0.3c-0.2-0.2-0.6-0.4-1.1-0.7c-0.6-0.3-1.8,0.2-1.8,0.2c0.4,0.1,0.8-0.1,1,0.4c0,0,0.1,0.7,0.5,1
		C7.3,26.1,7.6,26.1,8,26c0.4-0.1,0.5,0.1,0.8,0.2c0.3,0.2,0.5,0.4,0.4,0.6c-0.1,0.2-0.1,0.5-0.2,1c-0.1,0.4,0.1,1.6,0.7,1.8
		c0.7,0.1,1.6-0.7,1.6-0.7L11,29.5c-0.4,0.5-0.3,1.5,0.7,1.7c0.7,0.2,1.3-0.1,1.6-0.3c0.1,0.5,0.3,0.8,0.5,0.9
		c0,0.1-0.1,0.1-0.1,0.1s-0.3,0.1-1.7,0s-1.7-0.7-2.1-0.9c-0.4-0.2-0.4-0.4-0.5-0.9c-0.2-0.6-0.7-1.2-1-1.6
		c-0.6-0.7-1.6-0.2-1.6-0.2s0.7,0.1,0.8,0.4s0.2,0.1,0,0.7C7.5,29.8,8,30.6,8,30.6l-0.4-0.4C7.5,30,7.4,30,7.1,29.7
		c-0.3-0.3-0.6-0.3-0.6-0.3c-0.4,0-0.4,0.2-0.7,0.2c-0.3,0-0.7,0.3-0.7,0.3s1.1-0.2,1,0.5c0,0.4,0.1,0.4,0.3,0.6
		c0.1,0.1,0.6,0.4,1,0.4l0.5,0.1H7.1c-0.5,0.1-0.9,0.5-0.9,0.5c-0.7,0.2-0.7,1-0.7,1s0.1-0.3,0.4-0.4s0.7,0,1.2,0.2
		c0.5,0.2,2-0.5,1.5-0.2c-0.4,0.3-0.8,1.4,0.3,1.8s1.8-1.2,1.8-1.2l-0.1,0.4c0,0-0.4,1,0.7,1.3l1.8-1c0,0-0.1,0.1-0.1,0.4
		c0,0.4,0.2,0.9,1,1.1c0.8,0.2,1.2-0.9,1.2-0.9s0.1,0.2,0.1,0.4c0.1,0.2,0.4,0.5,1,0.4c1-0.2,0.9-1.1,0.9-1.1s0.2,0.1,0.7-0.2
		c0.4,0.1,0.6,0.2,0.6,0.2c0.3-0.1,0.5-1.3,0.5-1.3c0.7,0.1,0.4-0.5,0.4-0.5c0.2,0.2,0.5,0.4,0.5,0.4c0.5,0.3,1.4,0.2,1.4,0.2
		c0.1-0.3,0.1-0.6,0.1-1c0.5-0.1,1.2-0.3,1.9-0.6c1.3-0.6,1.7-1,2.3-1.2c1.3-0.4,1.5-0.2,1.9-0.2c0.9,0.1,1.1,0.1,1.1,0.1
		c0.1,1.2,1.3,1.9,1.3,1.9c0.4,0.3,1,0.4,1,0.5c-0.3,0.2-0.5,0.1-1.3,0.1c-0.8,0.1-2,0.2-2,0.2s0-0.2-0.2-0.4
		c-0.2-0.3-0.5-0.4-0.8-0.7c-0.2-0.2-0.2-0.2-0.4-0.7c-0.3-0.7-1-0.4-1-0.4c0.5,0.4,0.4,0.3,0.5,0.6c0,0.1-0.2,0.2-0.2,0.7
		c0,0.3,0.3,0.6,0.5,0.8c0.1,0.1,0.2,0.1,0.2,0.1s-0.1-0.1-0.2-0.1c-0.1-0.1-0.4-0.2-0.6-0.3c-0.4-0.1-0.5-0.1-1-0.1
		c-0.3,0.1-0.5,0.2-0.5,0.2c-0.6,0.1-0.9,0.8-0.9,0.8c0.4-0.5,0.9-0.3,0.9-0.3s0.4,0.1,0.7,0.4c0.2,0.3,0.7,0.3,1.1,0.2
		c0.4-0.1,0.8-0.2,0.8-0.2s-0.4,0.1-0.8,0.2c-0.3,0.1-0.6,0.2-0.7,0.2c-0.4,0.1-0.4,0.7-0.4,0.7c-0.4,0.1-0.4,0.7-0.4,0.7
		c0.2-0.2,0.5-0.6,0.9-0.4c0.2,0.1,0.5,0.2,1.2,0.1c0.7-0.1,1-0.7,1-0.7s-0.1,0.4,0.2,0.9s0.7,0.5,0.7,0.5s0.4,0,0.7-0.4
		s0.1-1,0.1-1h0.1v0.2c0,0.2-0.1,1.6,1,1.5c0.9-0.1,1-1.2,1-1.6v-0.2v0.2c0,0.3,0.1,0.7,0.2,1c0.2,0.5,1.1,0.5,1.1,0.5
		s0.2-0.1,0.5-0.5c0.2-0.3,0.2-0.8,0.3-1.2c0,0.2,0.1,0.5,0.3,0.7c0.6,0.5,1.2,0.1,1.2,0.1s0.5-0.5,0.4-1.1
		c-0.1-0.5-0.6-0.9-0.9-1.2c-0.3-0.3-0.8-0.5-1-0.7c0,0-0.9-0.1-2.1-0.7c-1.6-0.7-2-1.6-2-1.6l-0.1-0.3c0,0-0.7-0.7-0.7-0.7
		l-0.1-0.1l1.3,0.4c0.2,0.5,1,1.4,2.1,1.8c1.3,0.5,2.5,0.7,3.5,0.6c1-0.1,2.8-0.5,3.7-0.5c0.9,0,1.5,0.5,1.8,1
		c0.2,0.5,0.6,1,0.5,1.5c-0.1,0.4-0.4,0.6-0.9,0.9c-0.4,0.4-0.2,0.9-0.2,0.9s0.1,0.2-0.1,0.4c-0.1,0.2-0.1,0.7-0.1,0.7
		s0.1-0.6,0.4-0.5c0.1,0.1,0.3-0.1,0.3-0.1s0.1,0,0.3,0.1c0.3,0.1,0.5-0.2,0.5-0.2s-0.1-0.1-0.1-0.4s0.2-0.6,0.2-0.6v0.6
		C41.6,35.8,42,36,42,36c0,0.2-0.1,0.6,0.1,1l0.5,0.3c0,0-0.2-0.1-0.3-0.4c-0.1-0.3,0.2-0.5,0.2-0.5s0.2,0,0.5-0.4
		c0.2-0.4-0.1-1.6-0.1-1.6l0.1,0.2c0,0,0.2,0.2,0.2,0.7c0,0.2,0.4,0.3,0.4,0.3s0.1,0.2,0.5,0.4c0.4,0.2,0.8-0.2,0.8-0.2
		S44.8,36,44.5,36L44.5,36z M45.5,19c-0.2-0.1-0.2-0.4-0.2-0.4s0.2-0.1,0.2-0.7c0.1-0.5-0.4-0.9-0.4-0.9c0.4,0.1,0.9-0.5,0.7-1.1
		c-0.3-0.7-1-0.4-1.2-0.2c0.3-0.2,1.1-0.9,0.7-1.5c-0.5-0.8-1.6,0-1.6,0c0.4-0.3,1.2-1,0.5-1.5c-0.4-0.3-0.9-0.1-1.2,0.1
		c0.3-0.2,0.7-0.6,0.4-0.9c-0.7-0.6-1.6,0.4-1.6,0.4s-1.4-0.1-2.6,0.1c-1.2,0.2-1.8-0.1-2.3-0.1c-0.4,0-1,0.1-1.2-0.4
		c-0.4-0.6-1.3-0.8-1.3-0.8s1.3-0.1,1.6,0.4c0.2,0.3,0.9,0.1,1.2,0.1h2.1c0.7,0,3.1,0.3,3.9-0.5c1-1,1-2.2,0.2-3
		c-0.8-0.8-1.8-0.7-2.8-0.7c-1,0-13.8,0.2-14.8,0.2S22.7,8,22.6,7.3c-0.1-0.5,0.2-0.6,0.7-0.6s0.7,0.1,1.1,0.1
		c0.4,0.1,0.8,0.2,1.3,0.4c0.5,0.2,1,0,1-0.1L26,6.3h-0.4c-0.1,0-0.2-0.2,0-0.2h0.5c0.1,0,0.5,0.7,0.9,0.9c0.4,0.2,0.9,0.2,1.2,0.2
		h0.9l-0.8-0.9h-0.4c-0.1,0-0.2-0.2,0-0.2h0.5c0.1,0,0.5,0.7,0.9,0.9c0.4,0.2,1,0.2,1.3,0.2l0.5-0.2l-1-0.9H30c0,0-0.1-0.2,0-0.2
		h0.5c0.9,0.7,1,0.8,1.2,0.9c0.4,0.2,0.8,0.2,1.1,0.2c0.4,0,0.5-0.2,0.5-0.2l-0.6-0.7h-0.5c0,0-0.2-0.2,0-0.2h0.5
		c0,0,0.5,0.6,0.9,0.9c0.4,0.3,0.9,0.2,1.3,0.2c0.5-0.1,0.6-0.2,0.6-0.2l-0.4-0.4c0,0-0.2-0.2-0.2-0.3c-0.1-0.1-0.5,0-0.6,0
		c-0.1,0-0.1-0.2,0-0.2h0.7c0,0,0.4,0.4,0.8,0.7c0.5,0.3,1.6,0.2,2.3,0.1C38.8,6.5,38,6.2,38,6.2S37.9,6.1,37.7,6
		c-0.1-0.1-0.1,0-0.2-0.1c-0.1-0.1,0.1-0.2,0.1-0.2l0.2,0.1c0.2,0.1,0.8,0.4,1.8,0.4l1.5-0.5l-1-0.5c0,0,1.6,0.4,2,0.5
		c0.4,0.1,0.7-0.1,0.7-0.1c0.5-0.1,0.9-0.9,0.9-0.9H24.2c-1.3,0-2.6,0.3-3.2,1.5c-0.5,0.9,0,2,0.7,2.4c0.7,0.5,2.5,0.4,5.4,0.4h13.1
		C40.7,9.1,42,9,42,9.6s-0.8,0.6-1.3,0.6h-4.4c-1.5,0-7.8,0.2-9.5,0.4c-1.7,0.2-4.3,0.5-4.3,0.5c0-0.2,0-0.4-0.1-0.7
		c0,0-0.3-0.1-1.1,0.2c-0.2,0.1-0.4,0.2-0.5,0.2v-0.4c0,0-1.2-0.3-1.7,0.6c-0.3,0.9-0.9,1-1.6,2l-0.2,0.1c0,0.2-0.1,0.4-0.1,0.4
		c-0.2,0.7-0.7,0.9-1,0.9c-0.2,0-0.7-0.1-1-0.9c-0.1-0.1-0.1-0.2-0.1-0.4c-1.8-0.5-2.1-1-2.1-1c-0.2-0.1-0.4-0.2-0.4-0.2
		s-0.7-0.3-1.4-0.9C10.6,10.7,9.8,9.5,9.6,9c-0.2-0.5-0.1-1.3,0-1.8C9.7,6.8,9.8,6,9.8,5.9s0.1-0.3,0.1-0.5C9.9,5,9,4.9,9,4.9
		c0.7,0.4,0.4,0.9,0.4,0.9c-0.1,0.1-0.2,0.6-1,0.6C8,6.3,8.1,7,8.1,7l0.2,0.7l0.4,1c0,0-0.4-0.7-0.7-1.2C7.8,7.1,7.3,5.7,7,5.2
		S5.9,4.7,5.9,4.7c1,0.3,0.6,1.2,0.6,1.2S6.5,6.2,6.2,6.7c-0.3,0.6,0.4,1,0.4,1l1,0.9L8,8.9c0,0-0.7-0.1-0.9-0.3
		C6.9,8.4,6.5,8.2,6,7.9C5.4,7.6,4.1,8.2,4.1,8.2c0.4,0.1,0.8-0.1,1,0.4c0,0,0.2,0.7,0.5,1C6.3,10.1,6.6,10,7,10
		c0.4-0.1,0.5,0.1,0.9,0.2c0.3,0.2,0.5,0.4,0.4,0.7c-0.1,0.2-0.1,0.5-0.2,1c-0.1,0.5,0.1,1.7,0.8,1.8c0.7,0.1,1.6-0.7,1.6-0.7
		l-0.4,0.5c0,0-0.3,1.5,0.7,1.8c0.6,0.2,1-0.4,1.4-0.5c-0.3,0.5,0.2,1.5,0.6,1.6c-0.4,0.1-0.9,0.1-1.4,0c-1.5-0.1-2.3-0.5-2.7-0.7
		c-0.4-0.2-0.5-0.5-0.5-1.2c0.1-0.7-0.4-1.3-0.7-1.7C7,12.1,6,12.6,6,12.6s0.5,0.1,0.7,0.4c0.1,0.3,0.4,0.1,0.2,0.7
		c-0.2,0.5,0.4,1.4,0.4,1.4l-0.4-0.4c-0.1-0.1-0.2-0.1-0.6-0.5c-0.4-0.3-0.7-0.3-0.7-0.3c-0.4,0-0.4,0.2-0.7,0.2
		C4.4,14,4,14.3,4,14.3s1.2-0.2,1.1,0.6c0,0.4,0.1,0.4,0.4,0.6c0.2,0.1,0.6,0.4,1,0.4L7,16H6.2c-0.5,0.1-0.9,0.5-0.9,0.5
		c-0.7,0.2-0.8,1.1-0.8,1.1s0.1-0.3,0.4-0.4c0.3-0.1,0.8,0,1.3,0.2s2.1-0.5,1.6-0.2c-0.5,0.3-0.8,1.4,0.3,1.8
		c1.2,0.4,1.8-1.2,1.8-1.2l-0.1,0.4c0,0-0.4,1.1,0.7,1.3c1.1,0.3,1.9-1,1.9-1s-0.1,0.1-0.1,0.5c0,0.4,0.2,1,1,1.2l1-1.2l0.1,0.5
		c0,0,0.5,0.5,1.1,0.4c1-0.2,0.9-1.1,0.9-1.1h0.2c0.2,0.1,0.5,0.2,0.8,0.2c0,0,0.4-0.8,0.5-1.4c0.3,0.1,0.3,0.1,0.5,0l0.2-0.2
		c0.5,0.4,1.2,0.6,1.9,0.5c0,0,0.2-0.7,0.1-1.4c0.5-0.1,1.3-0.1,2.3-0.5c1.4-0.6,1.8-1.1,2.3-1.5c0.5-0.4,1-0.8,1.3-0.9
		c0.4-0.2,1.2-0.4,1.2-0.4s1.3-0.4,1,0.6c-0.1,0.4-0.7,1,0.4,1.9s3.2,0.8,3.4,0.8c0.2,0.1,0.4,0.2,0.1,0.5c-0.3,0.2-1.2,0.2-2,0.3
		c-0.8,0.1-2.4,0-2.4,0s0-0.2-0.2-0.5c-0.2-0.3-0.6-0.5-0.8-0.7c-0.2-0.2-0.2-0.2-0.4-0.7c-0.4-0.7-1-0.4-1-0.4
		c0.5,0.4,0.4-0.1,0.5,0.6c0,0.1-0.2,0.2-0.2,0.7c0,0.4,0.3,0.6,0.5,0.8c-0.2-0.1-0.4-0.2-0.7-0.3c-0.5-0.1-0.6-0.1-1-0.1
		c-0.4,0.1-0.5,0.2-0.5,0.2c-0.7,0.1-0.9,0.9-0.9,0.9c0.4-0.2,0.9-0.3,0.9-0.3s0.3,0.2,0.7,0.4c0.3,0.1,2,0.1,2,0.1
		s-1.2,0.2-1.6,0.4c-0.4,0.1-0.4,0.6-0.4,0.6c-0.5,0.1-0.5,0.9-0.5,0.9c0.2-0.2,0.7-0.3,1-0.4c0.2-0.1,0.5,0.1,1.2,0.1
		c0.7-0.1,1.4-0.7,1.4-0.7s-0.1,0.5,0.2,0.9c0.3,0.4,0.8,0.5,0.8,0.5s0.4,0,0.7-0.4c0.3-0.4,0.1-1.1,0.1-1.1h0.1v0.2
		c0,0,0,1.2,1.2,1.2c1.2-0.1,0.9-1.5,0.9-1.5s0.1,0.4,0.4,0.8c0.2,0.5,1.1,0.6,1.1,0.6s0.2-0.1,0.6-0.6l0.1-1.3c0,0,0.1,0.3,0.6,0.7
		c0.5,0.4,1.3,0.1,1.3,0.1s0.5-0.5,0.2-1s-1-1.3-1.3-1.5c-0.3-0.2-0.7-0.5-0.7-0.5s-1.6-0.1-3-0.6c-1.9-0.7-2.1-2.8-2.1-2.8
		s0.9,1.2,2,1.8c1.3,0.8,2.9,0.9,4,0.9c1-0.1,3.5-0.6,4.5-0.6s1.3,0.5,1.6,1c0.3,0.5,0.7,1.1,0.5,1.5c-0.1,0.5-0.4,0.6-0.9,0.9
		c-0.7,0.1-0.5,0.5-0.5,0.5s0.1,0.2-0.1,0.4c-0.1,0.2-0.1,0.7-0.1,0.7s0.1-0.6,0.4-0.5c0.1,0.1,0.3-0.1,0.3-0.1s0.1,0.1,0.4,0.1
		s0.5-0.2,0.5-0.2s-0.1-0.1-0.1-0.4c0-0.4,0.2-0.7,0.2-0.7v0.6c-0.1,0.4,0.3,0.6,0.3,0.6c0,0.2-0.1,0.6,0.2,1
		c0.3,0.4,0.5,0.3,0.5,0.3s-0.2,0-0.3-0.4c-0.1-0.4,0.2-0.5,0.2-0.5s0.3,0,0.5-0.4c0.2-0.4-0.1-1.6-0.1-1.6l0.1,0.2
		c0,0,0.2,0.2,0.2,0.7c0,0.2,0.4,0.3,0.4,0.3s0.1,0.2,0.5,0.4C45.6,19.3,46,19,46,19S45.7,19.2,45.5,19L45.5,19z M40.7,46.4
		c-0.3-0.8-1.1-0.7-1.1-0.7c1.1-0.3,0.9-1.6,0.9-1.6c-1.5-0.7-2.4,0.3-2.4,0.3c-1.3-0.4-2.9,0.2-3.4,0.2c-0.4,0-0.9-0.4-1.2-0.7
		c-0.4-0.4-1.2-0.5-1.2-0.5h3.7c1.4-0.1,2.3,0,2.9-0.5c1.3-0.9,0.4-2.1,0-2.4c-1-0.5-1.6-0.4-2.5-0.4c-0.9,0-9.8,0.1-10.6,0.1
		s-2,0.1-2.3-0.5c-0.2-0.4,0.1-0.8,0.7-0.8c0.4,0,0.2-0.1,0.7,0.1c0.2,0.1,0.6,0.4,1.1,0.5c0.5,0.1,0.9,0,0.9-0.1l-0.7-0.8H26
		c-0.1,0-0.1-0.2,0-0.2h0.5c0.1,0,0.4,0.6,0.8,0.8c0.4,0.2,0.4,0.2,0.7,0.2h0.9l-0.7-0.8h-0.3c-0.1,0-0.2-0.2,0-0.2h0.5
		c0.1,0,0.4,0.6,0.8,0.8c0.4,0.2,0.7,0.2,1,0.2s0.5-0.1,0.5-0.1l-0.9-0.7h-0.4c0,0-0.1-0.2,0-0.2h0.5c0.7,0.7,0.9,0.7,1,0.8
		c0.3,0.2,0.7,0.2,1,0.2c0.3,0,0.5-0.1,0.5-0.1l-0.6-0.7l-0.4-0.1c0,0-0.2-0.2-0.1-0.2h0.5c0,0,0.4,0.5,0.8,0.8
		c0.4,0.2,0.3,0.2,0.7,0.2c0.4,0.1,0.7,0,0.7,0L33.7,39l-0.2-0.2h-0.4c-0.1,0-0.2-0.3-0.1-0.3h0.6c0,0,0.5,0.7,0.9,0.9
		c0.4,0.1,0.5,0.1,0.9,0.1l0.5-0.2l-0.4-0.1c-0.4-0.2-0.5-0.4-0.5-0.4h-0.4c-0.1,0-0.2-0.3-0.1-0.3h0.6c0,0,0.3,0.4,0.6,0.5
		c0,0,0.3,0.1,0.9-0.2l-0.2-0.1c-0.2-0.1-0.1-0.2-0.1-0.2c0.1-0.1,0.2,0,0.2,0c0.2,0.1,0.9,0.5,1.6-0.7h-13c-1.1,0-2.2,0.1-2.7,0.9
		c-0.5,0.7-0.2,1.8,0.4,2.3c0.6,0.4,2,0.4,4.5,0.4c1.3,0,8.4-0.1,9-0.1c0.5,0,1.3-0.1,1.6,0.2c0.4,0.5-0.7,0.8-1.2,0.8
		c-0.5,0-1,0.1-2.3,0.1h-8.1c-1,0.2-2.4,0.2-2.8,0.2c0.1-0.2,0.1-0.4,0-0.7c0,0-0.7,0.1-1.2,0.2v-0.7c0,0-0.5,0-1.2,0.2
		c0,0.3-0.2,0.9-1,1.6c-0.3,0.2-0.5,0.4-0.8,0.5l-0.1-0.1l-0.1-0.1c0,0,0-0.1-0.1-0.1c-0.1-0.1-0.1-0.1-0.1-0.2L19,43.4v0.9
		l-0.1,0.4l-0.2,0.2c0,0-0.2,0.2-0.4,0.2l-0.2,0.1h-0.1c-0.1,0-0.1,0-0.2-0.1c-0.2-0.1-0.4-0.2-0.5-0.7l-0.1-0.4
		c0,0-0.7-0.4-1.3-0.7c-0.2-0.1-0.4-0.3-0.6-0.5c-0.1-0.2-0.2-0.3-0.2-0.4c-0.2-0.3-0.2-0.7-0.2-0.7s-0.4-0.1-1-0.9
		c-0.1-0.1-0.4-0.3-0.5-0.4c-0.7-0.5-1.5-1-1.8-1.2c-0.4-0.3-0.5-0.9-0.3-1.3c0.4-0.6-0.1-1-0.3-1.2c-0.2-0.2-0.9-0.2-0.9-0.2
		s0.4,0.1,0.5,0.4s-0.1,0.2-0.3,0.5c-0.1,0.2-0.1,0.4,0,0.5c0.1,0.1,0.2,0.5,0.2,0.5c-0.1-0.2-0.2-0.3-0.2-0.3
		c-0.2-0.1-0.2-0.4-0.2-0.4C10,37.2,9.8,37,9.8,37l-0.2-0.1c0,0-0.2-0.1-0.5,0C9,36.9,8.7,36.5,8,37.1c0,0,0.9-0.2,0.8,0.7
		c0,0.3,0,0.6,0.2,0.9c0.3,0.4,0.9,0.5,0.9,0.5s-0.4,0.1-0.6,0.1c-0.2,0.1-0.3,0.2-0.4,0.3c-0.1,0.2-0.4,0.1-0.7,0.2
		c-0.2,0.1-0.5,0.5-0.5,0.5s0.2-0.1,0.4-0.1c0.2,0,0.2,0.3,0.4,0.5c0.2,0.2,0.3,0.1,0.7,0.2c0.4,0.1,0.7-0.2,1-0.3
		c0.3-0.1,0.4,0.1,0.5,0.2c0.1,0.1,0.1,0.5,0.2,1.2c0.2,0.7,0.5,1,1,0.9c0.4-0.1,0.7-0.5,0.9-0.7c0.1-0.2,0.2-0.2,0.1,0.1
		c-0.1,0.1-0.1,0.9,0.1,1.3c0.2,0.5,0.6,0.6,0.9,0.5c0.2-0.1,0.5-0.4,0.7-0.6c-0.1,0.3-0.1,0.5-0.1,0.9c0,0.2,0.1,0.5,0.1,0.5
		c0,0.1,0.1,0.4,0.1,0.5c0,0,0.1,0.1,0,0.1c-0.7,0.1-1.5-0.4-1.7-0.5l-1-0.5c-0.2-0.2-0.5-0.7-0.7-1c-0.2-0.3-0.6-0.8-0.7-1
		c-0.3-0.4-0.9-0.1-0.9-0.1s0.3-0.1,0.5,0.1c0.2,0.2,0.1,0.4-0.1,0.7c-0.2,0.4,0.1,0.6,0.2,0.7c0.1,0.1,0.2,0.1,0.3,0.2
		c0.1,0.1-0.1,0.1-0.1,0.1s-0.1-0.1-0.8-0.2C9,44,8.5,44.7,8.5,44.7s0.3-0.2,0.5-0.2c0.3,0.1,0.1,0.5,0.4,0.7
		c0.2,0.1,0.4,0.1,0.6,0.1c0.2-0.1,0.3,0,0.4,0l0.1,0.1c0,0-0.1,0-0.4,0.1l-0.7,0.2c-0.4,0.1-0.5,0.8-0.5,0.8s0.4-0.7,0.6-0.1
		c0.1,0.2,0.4,0.4,0.8,0.4c0.4,0,1.5-0.5,1.5-0.5v0.8c0,0,0.2,1.1,0.8,0.9c0.5-0.2,1-1.2,1-1.2s0,0.2,0.1,0.9
		c0.1,0.7,0.6,0.9,0.6,0.9s0.1,0.1,0.7-0.2s0.8-1.2,0.8-1.2s0.1,0.5,0.2,1c0.2,0.4,0.5,1,1,0.6c0.4-0.2,0.4-0.9,0.4-1.2
		c0,0.1,0,0.3,0.1,0.5c0.1,0.4,0.4,1,0.9,0.9c0.2-0.1,0.3-0.2,0.4-0.3h0.4c0,0,0.2-0.2,0.2-0.5c0.4,0.1,0.5-0.2,0.2-0.5l0.2,0.1
		c0.4,0.2,0.2-0.4,0.2-0.4c0.2,0.1,0.1,0.1,0.5,0.2c0.4,0.1,0.8,0.2,1.1,0.2c0,0,0.1-0.2,0.1-0.5c0.5,0,1.2-0.2,2.1-1.3
		c0.4-0.5,1.5-0.7,2.1-0.7c0.7-0.1,1-0.1,1.3-0.1c0.8,0.1,1.1,0.4,1.1,0.4c-0.4,0.9,0.2,1.5,0.2,1.5c0.6,0.7,2.5,0.8,2.4,0.9
		c-0.3,0.2-0.5,0.4-1.2,0.7c-0.6,0.3-1.8,1-1.8,1S27.2,50.2,27,50c-0.2-0.2-0.1-0.3-0.2-0.6c0-0.8-0.4-1-0.9-1c-0.9-0.1-1-0.1-1-0.1
		c0.4,0.2,0.5,0.2,0.7,0.5c0,0.1-0.1,0.2-0.1,0.7c0,0.4,0.7,0.7,0.7,0.7s0.4,0.2-0.1,0.2c-0.4,0-0.5-0.2-1,0.1
		c-0.3,0.1-0.4,0.4-0.4,0.4c-0.5,0.3-0.4,1-0.4,1c0.4-0.8,0.7-0.3,0.7-0.3s0.4,0.3,0.8,0.1c0.6-0.2,0.4-0.2,0.9-0.5
		c0,0,0.3-0.1-0.1,0.2c0,0-0.9,0.5-0.5,1.2c0,0-0.2,0.5,0.1,0.8c0,0,0-0.6,0.5-0.7c0,0,1.3,0.2,1.3-0.6l0.1-0.3
		c0.7,0.9,1.3,0.8,1.3,0.8c0.8-0.2,0.8-1.3,0.8-1.3s0.6,1,1.3,0.7c0.8-0.4,0.2-1.6,0.2-1.6c0.5,0.5,1,0.4,1,0.4
		c1-0.4,0.1-1.7,0.1-1.7c1-0.2,1.1-0.7,1.1-0.7c-0.1-0.7-1.3-0.9-1.3-0.9s-0.5-0.1-1.7-0.4c-1.5-0.1-1.7-1-1.7-1.1c0,0,0-0.8-0.4-1
		l-0.3-0.2l-0.4-0.3c1.5,0.2,1.6,1.2,1.6,1.2c0.4,0.6,0.3,0.7,1.3,1.1c1,0.4,2,0.4,2.6,0.4c0.2,0,0.9,0.1,1.6-0.1
		c0,0,0.9-0.2,1.5-0.4c0,0-0.1,1.2-0.2,1.4c-0.3,0.6-0.5,0.6-1,0.8c0,0-1.2-0.1-1.3,0.8c0,0-0.5,0.3-0.2,0.9c0,0,0-0.5,0.4-0.5
		c0,0,0.5,0.4,1-0.1c0.3-0.6,0.5-0.7,0.7-0.7c0,0-0.4,0.2-0.7,0.9c0,0.1-0.1,0.1-0.1,0.1s-0.7,0.2-0.6,0.7l0.1,0.1
		c0,0-0.2,0.4,0.1,0.9c0,0-0.2-0.8,0.4-0.7c0.4,0,0.9,0.2,1-0.3c0,0-0.2-0.7,0.2-1.3c0,0,0.1,0,0.1,0.1c0,0.1-0.5,1,0,1.5
		c0,0-0.1,0.5,0.4,0.9c0,0-0.4-0.7,0.2-0.7c0,0,0.1,0,0.2-0.1c0,0,0.7-0.6,0.4-1.6c0,0,1,0.5,1.3-0.3c0,0,0.2-0.3-0.5-0.9l-0.1-0.1
		c1,0.1,1.5-0.3,1.5-0.3c0-0.8-0.7-1-0.7-1C40.5,47,40.7,46.4,40.7,46.4L40.7,46.4z"/>
</g>
<g>
</g>
<g>
</g>
<g>
</g>
<g>
</g>
<g>
</g>
<g>
</g>
<g>
</g>
<g>
</g>
<g>
</g>
<g>
</g>
<g>
</g>
<g>
</g>
<g>
</g>
<g>
</g>
<g>
</g>
</svg>
