<?xml version="1.0" encoding="utf-8"?>
<!-- Generator: Adobe Illustrator 18.1.0, SVG Export Plug-In . SVG Version: 6.00 Build 0)  -->
<!DOCTYPE svg PUBLIC "-//W3C//DTD SVG 1.1//EN" "http://www.w3.org/Graphics/SVG/1.1/DTD/svg11.dtd">
<svg version="1.1" id="Layer_1" xmlns="http://www.w3.org/2000/svg" xmlns:xlink="http://www.w3.org/1999/xlink" x="0px" y="0px"
	 width="285px" height="122.9px" viewBox="0 0 285 122.9" enable-background="new 0 0 285 122.9" xml:space="preserve">
<g>
	<rect x="0" fill="#0101BA" width="46.5" height="23.3"/>
	<rect x="47.7" fill="#514AFD" width="46.5" height="23.3"/>
	<rect x="95.4" fill="#5AAAFF" width="46.5" height="23.3"/>
	<rect x="143.1" fill="#00FFFF" width="46.5" height="23.3"/>
	<rect x="190.8" fill="#51F17A" width="46.5" height="23.3"/>
	<rect x="238.5" fill="#00D300" width="46.5" height="23.3"/>
	<g>
		<path fill="#333333" d="M15.9,33.7c0-2.6,1.1-5.4,4-5.4c2.9,0,4,2.8,4,5.4c0,2.5-1.1,5.4-4,5.4C17,39.1,15.9,36.3,15.9,33.7z
			 M22.5,33.7c0-2.1-0.7-4.2-2.7-4.2c-2,0-2.7,2.1-2.7,4.2c0,2.1,0.7,4.2,2.7,4.2C21.9,38,22.5,35.8,22.5,33.7z"/>
		<path fill="#333333" d="M25.1,38.2c0-0.5,0.4-0.9,0.9-0.9s0.9,0.4,0.9,0.9c0,0.5-0.4,0.9-0.9,0.9S25.1,38.7,25.1,38.2z"/>
		<path fill="#333333" d="M29.4,38.9v-8.7L27.7,32l-0.8-0.8l2.6-2.7h1.1v10.5H29.4z"/>
	</g>
	<g>
		<path fill="#333333" d="M61.1,33.7c0-2.6,1.1-5.4,4-5.4c2.9,0,4,2.8,4,5.4c0,2.5-1.1,5.4-4,5.4C62.2,39.1,61.1,36.3,61.1,33.7z
			 M67.7,33.7c0-2.1-0.7-4.2-2.7-4.2c-2,0-2.7,2.1-2.7,4.2c0,2.1,0.7,4.2,2.7,4.2C67.1,38,67.7,35.8,67.7,33.7z"/>
		<path fill="#333333" d="M70.3,38.2c0-0.5,0.4-0.9,0.9-0.9s0.9,0.4,0.9,0.9c0,0.5-0.4,0.9-0.9,0.9S70.3,38.7,70.3,38.2z"/>
		<path fill="#333333" d="M73.4,37.4l0.8-0.8c0.6,0.8,1.7,1.4,2.9,1.4c1.5,0,2.4-0.8,2.4-2c0-1.3-1.1-1.8-2.6-1.8
			c-0.4,0-0.9,0-1.1,0V33c0.2,0,0.7,0,1.1,0c1.3,0,2.4-0.5,2.4-1.7c0-1.2-1.1-1.8-2.3-1.8c-1.1,0-2,0.4-2.8,1.3l-0.7-0.8
			c0.8-0.9,2-1.6,3.6-1.6c2,0,3.5,1,3.5,2.8c0,1.5-1.3,2.3-2.3,2.4c1,0.1,2.4,0.9,2.4,2.6c0,1.7-1.4,3-3.7,3
			C75.4,39.1,74.1,38.3,73.4,37.4z"/>
	</g>
	<g>
		<path fill="#333333" d="M108.5,33.7c0-2.6,1.1-5.4,4-5.4c2.9,0,4,2.8,4,5.4c0,2.5-1.1,5.4-4,5.4C109.6,39.1,108.5,36.3,108.5,33.7
			z M115.1,33.7c0-2.1-0.7-4.2-2.7-4.2c-2,0-2.7,2.1-2.7,4.2c0,2.1,0.7,4.2,2.7,4.2C114.5,38,115.1,35.8,115.1,33.7z"/>
		<path fill="#333333" d="M117.7,38.2c0-0.5,0.4-0.9,0.9-0.9c0.5,0,0.9,0.4,0.9,0.9c0,0.5-0.4,0.9-0.9,0.9
			C118.1,39.1,117.7,38.7,117.7,38.2z"/>
		<path fill="#333333" d="M121.4,37.4l0.8-0.9c0.7,0.9,1.6,1.4,2.9,1.4c1.4,0,2.4-1,2.4-2.2c0-1.4-1-2.3-2.4-2.3
			c-0.9,0-1.7,0.3-2.4,1l-1-0.3v-5.6h6.4v1.2h-5.1v3.6c0.5-0.5,1.4-0.9,2.4-0.9c1.7,0,3.3,1.2,3.3,3.3c0,2.1-1.6,3.4-3.7,3.4
			C123.3,39.1,122.2,38.5,121.4,37.4z"/>
	</g>
	<g>
		<path fill="#333333" d="M160.4,38.9v-8.7l-1.7,1.8l-0.8-0.8l2.6-2.7h1.1v10.5H160.4z"/>
		<path fill="#333333" d="M163.8,38.2c0-0.5,0.4-0.9,0.9-0.9s0.9,0.4,0.9,0.9c0,0.5-0.4,0.9-0.9,0.9S163.8,38.7,163.8,38.2z"/>
		<path fill="#333333" d="M166.8,33.7c0-2.6,1.1-5.4,4-5.4c2.9,0,4,2.8,4,5.4c0,2.5-1.1,5.4-4,5.4C167.9,39.1,166.8,36.3,166.8,33.7
			z M173.5,33.7c0-2.1-0.7-4.2-2.7-4.2c-2,0-2.7,2.1-2.7,4.2c0,2.1,0.7,4.2,2.7,4.2C172.8,38,173.5,35.8,173.5,33.7z"/>
	</g>
	<g>
		<path fill="#333333" d="M208,38.9v-8.7l-1.7,1.8l-0.8-0.8l2.6-2.7h1.1v10.5H208z"/>
		<path fill="#333333" d="M211.5,38.2c0-0.5,0.4-0.9,0.9-0.9s0.9,0.4,0.9,0.9c0,0.5-0.4,0.9-0.9,0.9S211.5,38.7,211.5,38.2z"/>
		<path fill="#333333" d="M215.2,37.4l0.8-0.9c0.7,0.9,1.6,1.4,2.9,1.4c1.4,0,2.4-1,2.4-2.2c0-1.4-1-2.3-2.4-2.3
			c-0.9,0-1.7,0.3-2.4,1l-1-0.3v-5.6h6.4v1.2h-5.1v3.6c0.5-0.5,1.4-0.9,2.4-0.9c1.7,0,3.3,1.2,3.3,3.3c0,2.1-1.6,3.4-3.7,3.4
			C217.1,39.1,215.9,38.5,215.2,37.4z"/>
	</g>
	<g>
		<path fill="#333333" d="M251.6,38.9v-1c3.8-3,5.8-4.7,5.8-6.5c0-1.3-1.1-1.9-2.2-1.9c-1.3,0-2.2,0.5-2.8,1.3l-0.8-0.8
			c0.8-1,2.2-1.6,3.6-1.6c1.7,0,3.5,1,3.5,3.1c0,2.1-2.2,4.1-5.1,6.4h5.1v1.2H251.6z"/>
		<path fill="#333333" d="M260.9,38.2c0-0.5,0.4-0.9,0.9-0.9c0.5,0,0.9,0.4,0.9,0.9c0,0.5-0.4,0.9-0.9,0.9
			C261.3,39.1,260.9,38.7,260.9,38.2z"/>
		<path fill="#333333" d="M263.9,33.7c0-2.6,1.1-5.4,4-5.4c2.9,0,4,2.8,4,5.4c0,2.5-1.1,5.4-4,5.4C265,39.1,263.9,36.3,263.9,33.7z
			 M270.6,33.7c0-2.1-0.7-4.2-2.7-4.2c-2,0-2.7,2.1-2.7,4.2c0,2.1,0.7,4.2,2.7,4.2C269.9,38,270.6,35.8,270.6,33.7z"/>
	</g>
</g>
<g>
	<rect x="0" y="55" fill="#EFF303" width="46.5" height="23.3"/>
	<rect x="47.7" y="55" fill="#FDFD8F" width="46.5" height="23.3"/>
	<rect x="95.4" y="55" fill="#820181" width="46.5" height="23.3"/>
	<rect x="143.1" y="55" fill="#F658F6" width="46.5" height="23.3"/>
	<rect x="190.8" y="55" fill="#E60102" width="46.5" height="23.3"/>
	<rect x="238.5" y="55" fill="#BCBDBA" width="46.5" height="23.3"/>
	<g>
		<path fill="#333333" d="M13.2,92.4l0.8-0.8c0.6,0.8,1.7,1.4,2.9,1.4c1.5,0,2.4-0.8,2.4-2c0-1.3-1.1-1.8-2.6-1.8
			c-0.4,0-0.9,0-1.1,0V88c0.2,0,0.7,0,1.1,0c1.3,0,2.4-0.5,2.4-1.7c0-1.2-1.1-1.8-2.3-1.8c-1.1,0-2,0.4-2.8,1.3l-0.7-0.8
			c0.8-0.9,2-1.6,3.6-1.6c2,0,3.5,1,3.5,2.8c0,1.5-1.3,2.3-2.3,2.4c1,0.1,2.4,0.9,2.4,2.6c0,1.7-1.4,3-3.7,3
			C15.1,94.1,13.8,93.3,13.2,92.4z"/>
		<path fill="#333333" d="M22.4,93.2c0-0.5,0.4-0.9,0.9-0.9c0.5,0,0.9,0.4,0.9,0.9c0,0.5-0.4,0.9-0.9,0.9
			C22.8,94.1,22.4,93.7,22.4,93.2z"/>
		<path fill="#333333" d="M25.4,88.7c0-2.6,1.1-5.4,4-5.4c2.9,0,4,2.8,4,5.4c0,2.5-1.1,5.4-4,5.4C26.5,94.1,25.4,91.2,25.4,88.7z
			 M32,88.7c0-2.1-0.7-4.2-2.7-4.2s-2.7,2.1-2.7,4.2c0,2.1,0.7,4.2,2.7,4.2S32,90.8,32,88.7z"/>
	</g>
	<g>
		<path fill="#333333" d="M65.8,93.9v-2.6h-5v-1.1l4.5-6.7h1.8v6.7h1.5v1.1h-1.5v2.6H65.8z M65.8,84.7l-3.7,5.5h3.7V84.7z"/>
		<path fill="#333333" d="M70.1,93.2c0-0.5,0.4-0.9,0.9-0.9c0.5,0,0.9,0.4,0.9,0.9c0,0.5-0.4,0.9-0.9,0.9
			C70.5,94.1,70.1,93.7,70.1,93.2z"/>
		<path fill="#333333" d="M73,88.7c0-2.6,1.1-5.4,4-5.4c2.9,0,4,2.8,4,5.4c0,2.5-1.1,5.4-4,5.4C74.2,94.1,73,91.2,73,88.7z
			 M79.7,88.7c0-2.1-0.7-4.2-2.7-4.2c-2,0-2.7,2.1-2.7,4.2c0,2.1,0.7,4.2,2.7,4.2C79,92.9,79.7,90.8,79.7,88.7z"/>
	</g>
	<g>
		<path fill="#333333" d="M108.5,88.7c0-2.8,1.3-5.4,4.2-5.4c1.3,0,2.3,0.5,2.9,1.3l-0.7,1c-0.5-0.6-1.1-1.1-2.2-1.1
			c-2,0-2.9,2.1-2.9,4.1c0,0.1,0,0.3,0,0.4c0.5-0.7,1.6-1.6,3-1.6c1.9,0,3.4,1.1,3.4,3.3c0,1.8-1.4,3.4-3.7,3.4
			C109.6,94.1,108.5,91.5,108.5,88.7z M114.8,90.7c0-1.5-1.1-2.3-2.4-2.3c-1,0-2,0.6-2.6,1.6c0.1,1.3,0.8,2.9,2.6,2.9
			C114.1,92.9,114.8,91.7,114.8,90.7z"/>
		<path fill="#333333" d="M117.9,93.2c0-0.5,0.4-0.9,0.9-0.9c0.5,0,0.9,0.4,0.9,0.9c0,0.5-0.4,0.9-0.9,0.9
			C118.3,94.1,117.9,93.7,117.9,93.2z"/>
		<path fill="#333333" d="M120.8,88.7c0-2.6,1.1-5.4,4-5.4c2.9,0,4,2.8,4,5.4c0,2.5-1.1,5.4-4,5.4C122,94.1,120.8,91.2,120.8,88.7z
			 M127.5,88.7c0-2.1-0.7-4.2-2.7-4.2s-2.7,2.1-2.7,4.2c0,2.1,0.7,4.2,2.7,4.2S127.5,90.8,127.5,88.7z"/>
	</g>
	<g>
		<path fill="#333333" d="M155.8,93.9v-8.7l-1.7,1.8l-0.8-0.8l2.6-2.7h1.1v10.5H155.8z"/>
		<path fill="#333333" d="M159.1,88.7c0-2.6,1.1-5.4,4-5.4c2.9,0,4,2.8,4,5.4c0,2.5-1.1,5.4-4,5.4C160.3,94.1,159.1,91.2,159.1,88.7
			z M165.8,88.7c0-2.1-0.7-4.2-2.7-4.2c-2,0-2.7,2.1-2.7,4.2c0,2.1,0.7,4.2,2.7,4.2C165.1,92.9,165.8,90.8,165.8,88.7z"/>
		<path fill="#333333" d="M168.4,93.2c0-0.5,0.4-0.9,0.9-0.9c0.5,0,0.9,0.4,0.9,0.9c0,0.5-0.4,0.9-0.9,0.9
			C168.8,94.1,168.4,93.7,168.4,93.2z"/>
		<path fill="#333333" d="M171.4,88.7c0-2.6,1.1-5.4,4-5.4c2.9,0,4,2.8,4,5.4c0,2.5-1.1,5.4-4,5.4C172.5,94.1,171.4,91.2,171.4,88.7
			z M178,88.7c0-2.1-0.7-4.2-2.7-4.2c-2,0-2.7,2.1-2.7,4.2c0,2.1,0.7,4.2,2.7,4.2C177.3,92.9,178,90.8,178,88.7z"/>
	</g>
	<g>
		<path fill="#333333" d="M203.4,93.9v-8.7l-1.7,1.8l-0.8-0.8l2.6-2.7h1.1v10.5H203.4z"/>
		<path fill="#333333" d="M206.7,88.7c0-2.8,1.3-5.4,4.2-5.4c1.3,0,2.3,0.5,2.9,1.3l-0.7,1c-0.5-0.6-1.1-1.1-2.2-1.1
			c-2,0-2.9,2.1-2.9,4.1c0,0.1,0,0.3,0,0.4c0.5-0.7,1.6-1.6,3-1.6c1.9,0,3.4,1.1,3.4,3.3c0,1.8-1.4,3.4-3.7,3.4
			C207.9,94.1,206.7,91.5,206.7,88.7z M213.1,90.7c0-1.5-1.1-2.3-2.4-2.3c-1,0-2,0.6-2.6,1.6c0.1,1.3,0.8,2.9,2.6,2.9
			C212.3,92.9,213.1,91.7,213.1,90.7z"/>
		<path fill="#333333" d="M216.2,93.2c0-0.5,0.4-0.9,0.9-0.9c0.5,0,0.9,0.4,0.9,0.9c0,0.5-0.4,0.9-0.9,0.9
			C216.5,94.1,216.2,93.7,216.2,93.2z"/>
		<path fill="#333333" d="M219.1,88.7c0-2.6,1.1-5.4,4-5.4c2.9,0,4,2.8,4,5.4c0,2.5-1.1,5.4-4,5.4C220.3,94.1,219.1,91.2,219.1,88.7
			z M225.8,88.7c0-2.1-0.7-4.2-2.7-4.2s-2.7,2.1-2.7,4.2c0,2.1,0.7,4.2,2.7,4.2S225.8,90.8,225.8,88.7z"/>
	</g>
	<g>
		<path fill="#333333" d="M247.2,93.9v-1c3.8-3,5.8-4.7,5.8-6.5c0-1.3-1.1-1.9-2.2-1.9c-1.3,0-2.2,0.5-2.8,1.3l-0.8-0.8
			c0.8-1,2.2-1.6,3.6-1.6c1.7,0,3.5,1,3.5,3.1c0,2.1-2.2,4.1-5.1,6.4h5.1v1.2H247.2z"/>
		<path fill="#333333" d="M261.1,93.9v-2.6h-5v-1.1l4.5-6.7h1.8v6.7h1.5v1.1h-1.5v2.6H261.1z M261.1,84.7l-3.7,5.5h3.7V84.7z"/>
		<path fill="#333333" d="M265.3,93.2c0-0.5,0.4-0.9,0.9-0.9c0.5,0,0.9,0.4,0.9,0.9c0,0.5-0.4,0.9-0.9,0.9
			C265.7,94.1,265.3,93.7,265.3,93.2z"/>
		<path fill="#333333" d="M268.3,88.7c0-2.6,1.1-5.4,4-5.4c2.9,0,4,2.8,4,5.4c0,2.5-1.1,5.4-4,5.4C269.4,94.1,268.3,91.2,268.3,88.7
			z M274.9,88.7c0-2.1-0.7-4.2-2.7-4.2c-2,0-2.7,2.1-2.7,4.2c0,2.1,0.7,4.2,2.7,4.2C274.3,92.9,274.9,90.8,274.9,88.7z"/>
	</g>
</g>
<g>
	<path fill="#333333" d="M94.1,122.9l-2.7-4.2h-2.1v4.2H88v-10.7h4.3c2,0,3.3,1.2,3.3,3.2c0,1.9-1.3,3-2.8,3.1l2.9,4.4H94.1z
		 M94.2,115.5c0-1.2-0.9-2-2.1-2h-2.8v4.1h2.8C93.4,117.5,94.2,116.7,94.2,115.5z"/>
	<path fill="#333333" d="M102.2,122.9v-0.9c-0.6,0.7-1.5,1.1-2.6,1.1c-1.3,0-2.7-0.9-2.7-2.6c0-1.7,1.4-2.5,2.7-2.5
		c1.1,0,1.9,0.3,2.6,1.1v-1.4c0-1-0.8-1.6-2-1.6c-0.9,0-1.7,0.3-2.4,1.1l-0.6-0.8c0.8-0.9,1.8-1.3,3.1-1.3c1.6,0,3,0.7,3,2.6v5.3
		H102.2z M102.2,121.3v-1.5c-0.5-0.6-1.3-1-2.1-1c-1.1,0-1.9,0.7-1.9,1.7c0,1,0.8,1.7,1.9,1.7C100.9,122.3,101.7,122,102.2,121.3z"
		/>
	<path fill="#333333" d="M105.5,113.3c0-0.4,0.4-0.8,0.8-0.8c0.4,0,0.8,0.4,0.8,0.8s-0.4,0.8-0.8,0.8
		C105.9,114.1,105.5,113.8,105.5,113.3z M105.7,122.9v-7.7h1.2v7.7H105.7z"/>
	<path fill="#333333" d="M114.6,122.9v-5.1c0-1.4-0.7-1.8-1.7-1.8c-0.9,0-1.8,0.6-2.3,1.2v5.7h-1.2v-7.7h1.2v1.1
		c0.5-0.6,1.6-1.3,2.8-1.3c1.6,0,2.5,0.8,2.5,2.5v5.4H114.6z"/>
	<path fill="#333333" d="M122.3,122.9v-7.7h1.2v1.2c0.6-0.8,1.5-1.4,2.6-1.4v1.2c-0.1,0-0.3,0-0.5,0c-0.7,0-1.7,0.6-2.1,1.2v5.5
		H122.3z"/>
	<path fill="#333333" d="M132.4,122.9v-0.9c-0.6,0.7-1.5,1.1-2.6,1.1c-1.3,0-2.7-0.9-2.7-2.6c0-1.7,1.4-2.5,2.7-2.5
		c1.1,0,1.9,0.3,2.6,1.1v-1.4c0-1-0.8-1.6-2-1.6c-0.9,0-1.7,0.3-2.4,1.1l-0.6-0.8c0.8-0.9,1.8-1.3,3.1-1.3c1.6,0,3,0.7,3,2.6v5.3
		H132.4z M132.4,121.3v-1.5c-0.5-0.6-1.3-1-2.1-1c-1.1,0-1.9,0.7-1.9,1.7c0,1,0.8,1.7,1.9,1.7C131.1,122.3,131.9,122,132.4,121.3z"
		/>
	<path fill="#333333" d="M136.2,121.3v-5.1H135v-1.1h1.3v-2.1h1.2v2.1h1.6v1.1h-1.6v4.8c0,0.6,0.3,1,0.8,1c0.3,0,0.7-0.1,0.8-0.3
		l0.4,0.9c-0.3,0.3-0.7,0.5-1.4,0.5C136.8,123.1,136.2,122.5,136.2,121.3z"/>
	<path fill="#333333" d="M140.3,119.1c0-2.2,1.6-4,3.8-4c2.3,0,3.7,1.8,3.7,4.1v0.3h-6.3c0.1,1.5,1.1,2.7,2.8,2.7
		c0.9,0,1.8-0.4,2.4-1l0.6,0.8c-0.8,0.8-1.8,1.2-3.1,1.2C141.9,123.1,140.3,121.5,140.3,119.1z M144.1,116c-1.6,0-2.5,1.4-2.5,2.6
		h5.1C146.6,117.4,145.8,116,144.1,116z"/>
	<path fill="#333333" d="M163.2,122.9v-5.2c0-1-0.4-1.6-1.4-1.6c-0.8,0-1.6,0.6-2,1.2v5.7h-1.2v-5.2c0-1-0.4-1.6-1.4-1.6
		c-0.8,0-1.6,0.6-2,1.2v5.7h-1.2v-7.7h1.2v1.1c0.3-0.5,1.4-1.3,2.5-1.3c1.2,0,1.9,0.6,2.1,1.4c0.4-0.7,1.5-1.4,2.6-1.4
		c1.4,0,2.2,0.8,2.2,2.3v5.6H163.2z"/>
	<path fill="#333333" d="M176.1,122.9v-5.2c0-1-0.4-1.6-1.4-1.6c-0.8,0-1.6,0.6-2,1.2v5.7h-1.2v-5.2c0-1-0.4-1.6-1.4-1.6
		c-0.8,0-1.6,0.6-2,1.2v5.7h-1.2v-7.7h1.2v1.1c0.3-0.5,1.4-1.3,2.5-1.3c1.2,0,1.9,0.6,2.1,1.4c0.4-0.7,1.5-1.4,2.6-1.4
		c1.4,0,2.2,0.8,2.2,2.3v5.6H176.1z"/>
	<path fill="#333333" d="M178.5,123.3l3.8-11.3h0.9l-3.8,11.3H178.5z"/>
	<path fill="#333333" d="M189.7,122.9v-5.1c0-1.4-0.7-1.8-1.7-1.8c-0.9,0-1.8,0.6-2.3,1.2v5.7h-1.2v-10.7h1.2v4.1
		c0.5-0.6,1.6-1.3,2.8-1.3c1.6,0,2.5,0.8,2.5,2.5v5.5H189.7z"/>
	<path fill="#333333" d="M193.3,122.9v-7.7h1.2v1.2c0.6-0.8,1.5-1.4,2.6-1.4v1.2c-0.1,0-0.3,0-0.5,0c-0.7,0-1.7,0.6-2.1,1.2v5.5
		H193.3z"/>
</g>
</svg>
