<?xml version="1.0" encoding="utf-8"?>
<!-- Generator: Adobe Illustrator 18.1.0, SVG Export Plug-In . SVG Version: 6.00 Build 0)  -->
<!DOCTYPE svg PUBLIC "-//W3C//DTD SVG 1.1//EN" "http://www.w3.org/Graphics/SVG/1.1/DTD/svg11.dtd">
<svg version="1.1" id="Layer_1" xmlns="http://www.w3.org/2000/svg" xmlns:xlink="http://www.w3.org/1999/xlink" x="0px" y="0px"
	 width="491px" height="55px" viewBox="0 0 491 55" enable-background="new 0 0 491 55" xml:space="preserve">
<rect fill="#0101BA" width="40" height="20"/>
<rect x="41" fill="#514AFD" width="40" height="20"/>
<rect x="82" fill="#5AAAFF" width="40" height="20"/>
<rect x="123" fill="#00FFFF" width="40" height="20"/>
<rect x="164" fill="#51F17A" width="40" height="20"/>
<rect x="205" fill="#00D300" width="40" height="20"/>
<rect x="246" fill="#EFF303" width="40" height="20"/>
<rect x="287" fill="#FDFD8F" width="40" height="20"/>
<rect x="328" fill="#820181" width="40" height="20"/>
<rect x="369" fill="#F658F6" width="40" height="20"/>
<rect x="410" fill="#E60102" width="40" height="20"/>
<rect x="451" fill="#BCBDBA" width="40" height="20"/>
<g>
	<path fill="#333333" d="M13.6,29c0-2.2,1-4.6,3.4-4.6c2.5,0,3.4,2.4,3.4,4.6c0,2.2-1,4.6-3.4,4.6C14.6,33.6,13.6,31.2,13.6,29z
		 M19.4,29c0-1.8-0.6-3.6-2.3-3.6c-1.7,0-2.3,1.8-2.3,3.6c0,1.8,0.6,3.7,2.3,3.7C18.8,32.6,19.4,30.8,19.4,29z"/>
	<path fill="#333333" d="M21.6,32.9c0-0.4,0.3-0.7,0.7-0.7c0.4,0,0.7,0.3,0.7,0.7c0,0.4-0.3,0.7-0.7,0.7
		C21.9,33.6,21.6,33.3,21.6,32.9z"/>
	<path fill="#333333" d="M25.2,33.5V26l-1.4,1.5l-0.7-0.7l2.2-2.3h1v9H25.2z"/>
</g>
<g>
	<path fill="#333333" d="M52.5,29c0-2.2,1-4.6,3.4-4.6c2.5,0,3.4,2.4,3.4,4.6c0,2.2-1,4.6-3.4,4.6C53.5,33.6,52.5,31.2,52.5,29z
		 M58.2,29c0-1.8-0.6-3.6-2.3-3.6c-1.7,0-2.3,1.8-2.3,3.6c0,1.8,0.6,3.7,2.3,3.7C57.6,32.6,58.2,30.8,58.2,29z"/>
	<path fill="#333333" d="M60.4,32.9c0-0.4,0.3-0.7,0.7-0.7s0.7,0.3,0.7,0.7c0,0.4-0.3,0.7-0.7,0.7S60.4,33.3,60.4,32.9z"/>
	<path fill="#333333" d="M63.1,32.2l0.7-0.7c0.5,0.7,1.4,1.2,2.5,1.2c1.3,0,2.1-0.6,2.1-1.7c0-1.1-0.9-1.6-2.2-1.6
		c-0.4,0-0.8,0-0.9,0v-1c0.1,0,0.6,0,0.9,0c1.1,0,2.1-0.4,2.1-1.5c0-1-0.9-1.5-2-1.5c-1,0-1.7,0.4-2.4,1.1l-0.6-0.7
		c0.6-0.8,1.7-1.4,3.1-1.4c1.7,0,3,0.9,3,2.4c0,1.3-1.1,1.9-1.9,2.1c0.8,0.1,2.1,0.8,2.1,2.2c0,1.5-1.2,2.6-3.2,2.6
		C64.8,33.6,63.7,33,63.1,32.2z"/>
</g>
<g>
	<path fill="#333333" d="M93.3,29c0-2.2,1-4.6,3.4-4.6c2.5,0,3.4,2.4,3.4,4.6c0,2.2-1,4.6-3.4,4.6C94.2,33.6,93.3,31.2,93.3,29z
		 M99,29c0-1.8-0.6-3.6-2.3-3.6c-1.7,0-2.3,1.8-2.3,3.6c0,1.8,0.6,3.7,2.3,3.7C98.4,32.6,99,30.8,99,29z"/>
	<path fill="#333333" d="M101.2,32.9c0-0.4,0.3-0.7,0.7-0.7s0.7,0.3,0.7,0.7c0,0.4-0.3,0.7-0.7,0.7S101.2,33.3,101.2,32.9z"/>
	<path fill="#333333" d="M104.4,32.2l0.7-0.7c0.6,0.8,1.4,1.2,2.5,1.2c1.2,0,2.1-0.8,2.1-1.9c0-1.2-0.8-1.9-2.1-1.9
		c-0.8,0-1.5,0.3-2.1,0.8l-0.8-0.3v-4.8h5.5v1h-4.4v3.1c0.4-0.4,1.2-0.8,2.1-0.8c1.5,0,2.9,1,2.9,2.9c0,1.8-1.4,3-3.2,3
		C106,33.6,105.1,33.1,104.4,32.2z"/>
</g>
<g>
	<path fill="#333333" d="M137.9,33.5V26l-1.4,1.5l-0.7-0.7l2.2-2.3h1v9H137.9z"/>
	<path fill="#333333" d="M140.8,32.9c0-0.4,0.3-0.7,0.7-0.7s0.7,0.3,0.7,0.7c0,0.4-0.3,0.7-0.7,0.7S140.8,33.3,140.8,32.9z"/>
	<path fill="#333333" d="M143.4,29c0-2.2,1-4.6,3.4-4.6c2.5,0,3.4,2.4,3.4,4.6c0,2.2-1,4.6-3.4,4.6C144.4,33.6,143.4,31.2,143.4,29z
		 M149.1,29c0-1.8-0.6-3.6-2.3-3.6c-1.7,0-2.3,1.8-2.3,3.6c0,1.8,0.6,3.7,2.3,3.7C148.5,32.6,149.1,30.8,149.1,29z"/>
</g>
<g>
	<path fill="#333333" d="M178.8,33.5V26l-1.4,1.5l-0.7-0.7l2.2-2.3h1v9H178.8z"/>
	<path fill="#333333" d="M181.8,32.9c0-0.4,0.3-0.7,0.7-0.7s0.7,0.3,0.7,0.7c0,0.4-0.3,0.7-0.7,0.7S181.8,33.3,181.8,32.9z"/>
	<path fill="#333333" d="M185,32.2l0.7-0.7c0.6,0.8,1.4,1.2,2.5,1.2c1.2,0,2.1-0.8,2.1-1.9c0-1.2-0.8-1.9-2.1-1.9
		c-0.8,0-1.5,0.3-2.1,0.8l-0.8-0.3v-4.8h5.5v1h-4.4v3.1c0.4-0.4,1.2-0.8,2.1-0.8c1.5,0,2.9,1,2.9,2.9c0,1.8-1.4,3-3.2,3
		C186.6,33.6,185.6,33.1,185,32.2z"/>
</g>
<g>
	<path fill="#333333" d="M216.3,33.5v-0.9c3.2-2.5,5-4,5-5.6c0-1.1-0.9-1.6-1.9-1.6c-1.1,0-1.9,0.5-2.4,1.1l-0.7-0.7
		c0.7-0.9,1.9-1.4,3.1-1.4c1.5,0,3,0.8,3,2.6c0,1.8-1.9,3.5-4.4,5.5h4.4v1H216.3z"/>
	<path fill="#333333" d="M224.3,32.9c0-0.4,0.3-0.7,0.7-0.7s0.7,0.3,0.7,0.7c0,0.4-0.3,0.7-0.7,0.7S224.3,33.3,224.3,32.9z"/>
	<path fill="#333333" d="M226.9,29c0-2.2,1-4.6,3.4-4.6c2.5,0,3.4,2.4,3.4,4.6c0,2.2-1,4.6-3.4,4.6C227.8,33.6,226.9,31.2,226.9,29z
		 M232.6,29c0-1.8-0.6-3.6-2.3-3.6c-1.7,0-2.3,1.8-2.3,3.6c0,1.8,0.6,3.7,2.3,3.7C232,32.6,232.6,30.8,232.6,29z"/>
</g>
<g>
	<path fill="#333333" d="M257.3,32.2l0.7-0.7c0.5,0.7,1.4,1.2,2.5,1.2c1.3,0,2.1-0.6,2.1-1.7c0-1.1-0.9-1.6-2.2-1.6
		c-0.4,0-0.8,0-0.9,0v-1c0.1,0,0.6,0,0.9,0c1.1,0,2.1-0.4,2.1-1.5c0-1-0.9-1.5-2-1.5c-1,0-1.7,0.4-2.4,1.1l-0.6-0.7
		c0.6-0.8,1.7-1.4,3.1-1.4c1.7,0,3,0.9,3,2.4c0,1.3-1.1,1.9-1.9,2.1c0.8,0.1,2.1,0.8,2.1,2.2c0,1.5-1.2,2.6-3.2,2.6
		C259,33.6,257.9,33,257.3,32.2z"/>
	<path fill="#333333" d="M265.2,32.9c0-0.4,0.3-0.7,0.7-0.7c0.4,0,0.7,0.3,0.7,0.7c0,0.4-0.3,0.7-0.7,0.7
		C265.6,33.6,265.2,33.3,265.2,32.9z"/>
	<path fill="#333333" d="M267.8,29c0-2.2,1-4.6,3.4-4.6c2.5,0,3.4,2.4,3.4,4.6c0,2.2-1,4.6-3.4,4.6C268.8,33.6,267.8,31.2,267.8,29z
		 M273.5,29c0-1.8-0.6-3.6-2.3-3.6S269,27.2,269,29c0,1.8,0.6,3.7,2.3,3.7S273.5,30.8,273.5,29z"/>
</g>
<g>
	<path fill="#333333" d="M302.6,33.5v-2.3h-4.3v-0.9l3.9-5.8h1.5v5.7h1.3v1h-1.3v2.3H302.6z M302.6,25.5l-3.2,4.7h3.2V25.5z"/>
	<path fill="#333333" d="M306.2,32.9c0-0.4,0.3-0.7,0.7-0.7c0.4,0,0.7,0.3,0.7,0.7c0,0.4-0.3,0.7-0.7,0.7
		C306.6,33.6,306.2,33.3,306.2,32.9z"/>
	<path fill="#333333" d="M308.8,29c0-2.2,1-4.6,3.4-4.6c2.5,0,3.4,2.4,3.4,4.6c0,2.2-1,4.6-3.4,4.6C309.8,33.6,308.8,31.2,308.8,29z
		 M314.5,29c0-1.8-0.6-3.6-2.3-3.6c-1.7,0-2.3,1.8-2.3,3.6c0,1.8,0.6,3.7,2.3,3.7C313.9,32.6,314.5,30.8,314.5,29z"/>
</g>
<g>
	<path fill="#333333" d="M339.2,29c0-2.4,1.1-4.6,3.7-4.6c1.2,0,1.9,0.4,2.5,1.1l-0.6,0.8c-0.5-0.5-1-0.9-1.9-0.9
		c-1.7,0-2.5,1.8-2.5,3.5c0,0.1,0,0.2,0,0.3c0.4-0.6,1.4-1.4,2.5-1.4c1.6,0,2.9,1,2.9,2.9c0,1.6-1.2,2.9-3.2,2.9
		C340.2,33.6,339.2,31.4,339.2,29z M344.7,30.7c0-1.3-0.9-1.9-2.1-1.9c-0.9,0-1.8,0.6-2.2,1.3c0.1,1.1,0.7,2.5,2.3,2.5
		C344,32.6,344.7,31.6,344.7,30.7z"/>
	<path fill="#333333" d="M347.3,32.9c0-0.4,0.3-0.7,0.7-0.7c0.4,0,0.7,0.3,0.7,0.7c0,0.4-0.3,0.7-0.7,0.7
		C347.7,33.6,347.3,33.3,347.3,32.9z"/>
	<path fill="#333333" d="M349.9,29c0-2.2,1-4.6,3.4-4.6c2.5,0,3.4,2.4,3.4,4.6c0,2.2-1,4.6-3.4,4.6C350.9,33.6,349.9,31.2,349.9,29z
		 M355.6,29c0-1.8-0.6-3.6-2.3-3.6c-1.7,0-2.3,1.8-2.3,3.6c0,1.8,0.6,3.7,2.3,3.7C355,32.6,355.6,30.8,355.6,29z"/>
</g>
<g>
	<path fill="#333333" d="M379.9,33.5V26l-1.4,1.5l-0.7-0.7l2.2-2.3h1v9H379.9z"/>
	<path fill="#333333" d="M382.8,29c0-2.2,1-4.6,3.4-4.6c2.5,0,3.4,2.4,3.4,4.6c0,2.2-1,4.6-3.4,4.6C383.8,33.6,382.8,31.2,382.8,29z
		 M388.5,29c0-1.8-0.6-3.6-2.3-3.6c-1.7,0-2.3,1.8-2.3,3.6c0,1.8,0.6,3.7,2.3,3.7C387.9,32.6,388.5,30.8,388.5,29z"/>
	<path fill="#333333" d="M390.7,32.9c0-0.4,0.3-0.7,0.7-0.7c0.4,0,0.7,0.3,0.7,0.7c0,0.4-0.3,0.7-0.7,0.7
		C391.1,33.6,390.7,33.3,390.7,32.9z"/>
	<path fill="#333333" d="M393.3,29c0-2.2,1-4.6,3.4-4.6c2.5,0,3.4,2.4,3.4,4.6c0,2.2-1,4.6-3.4,4.6C394.3,33.6,393.3,31.2,393.3,29z
		 M399,29c0-1.8-0.6-3.6-2.3-3.6c-1.7,0-2.3,1.8-2.3,3.6c0,1.8,0.6,3.7,2.3,3.7C398.5,32.6,399,30.8,399,29z"/>
</g>
<g>
	<path fill="#333333" d="M420.9,33.5V26l-1.4,1.5l-0.7-0.7l2.2-2.3h1v9H420.9z"/>
	<path fill="#333333" d="M423.7,29c0-2.4,1.1-4.6,3.7-4.6c1.2,0,1.9,0.4,2.5,1.1l-0.6,0.8c-0.5-0.5-1-0.9-1.9-0.9
		c-1.7,0-2.5,1.8-2.5,3.5c0,0.1,0,0.2,0,0.3c0.4-0.6,1.4-1.4,2.5-1.4c1.6,0,2.9,1,2.9,2.9c0,1.6-1.2,2.9-3.2,2.9
		C424.7,33.6,423.7,31.4,423.7,29z M429.2,30.7c0-1.3-0.9-1.9-2.1-1.9c-0.9,0-1.8,0.6-2.2,1.3c0.1,1.1,0.7,2.5,2.3,2.5
		C428.5,32.6,429.2,31.6,429.2,30.7z"/>
	<path fill="#333333" d="M431.8,32.9c0-0.4,0.3-0.7,0.7-0.7c0.4,0,0.7,0.3,0.7,0.7c0,0.4-0.3,0.7-0.7,0.7
		C432.2,33.6,431.8,33.3,431.8,32.9z"/>
	<path fill="#333333" d="M434.4,29c0-2.2,1-4.6,3.4-4.6c2.5,0,3.4,2.4,3.4,4.6c0,2.2-1,4.6-3.4,4.6C435.3,33.6,434.4,31.2,434.4,29z
		 M440.1,29c0-1.8-0.6-3.6-2.3-3.6c-1.7,0-2.3,1.8-2.3,3.6c0,1.8,0.6,3.7,2.3,3.7C439.5,32.6,440.1,30.8,440.1,29z"/>
</g>
<g>
	<path fill="#333333" d="M458.5,33.5v-0.9c3.2-2.5,5-4,5-5.6c0-1.1-0.9-1.6-1.9-1.6c-1.1,0-1.9,0.5-2.4,1.1l-0.7-0.7
		c0.7-0.9,1.9-1.4,3.1-1.4c1.5,0,3,0.8,3,2.6c0,1.8-1.9,3.5-4.4,5.5h4.4v1H458.5z"/>
	<path fill="#333333" d="M470.4,33.5v-2.3h-4.3v-0.9l3.9-5.8h1.5v5.7h1.3v1h-1.3v2.3H470.4z M470.4,25.5l-3.2,4.7h3.2V25.5z"/>
	<path fill="#333333" d="M474.1,32.9c0-0.4,0.3-0.7,0.7-0.7c0.4,0,0.7,0.3,0.7,0.7c0,0.4-0.3,0.7-0.7,0.7
		C474.4,33.6,474.1,33.3,474.1,32.9z"/>
	<path fill="#333333" d="M476.6,29c0-2.2,1-4.6,3.4-4.6c2.5,0,3.4,2.4,3.4,4.6c0,2.2-1,4.6-3.4,4.6C477.6,33.6,476.6,31.2,476.6,29z
		 M482.3,29c0-1.8-0.6-3.6-2.3-3.6s-2.3,1.8-2.3,3.6c0,1.8,0.6,3.7,2.3,3.7S482.3,30.8,482.3,29z"/>
</g>
<g>
	<path fill="#333333" d="M197.1,54.7l-2.7-4.2h-2.1v4.2H191V44h4.3c2,0,3.3,1.2,3.3,3.2c0,1.9-1.3,3-2.8,3.1l2.9,4.4H197.1z
		 M197.2,47.2c0-1.2-0.9-2-2.1-2h-2.8v4.1h2.8C196.4,49.3,197.2,48.4,197.2,47.2z"/>
	<path fill="#333333" d="M205.2,54.7v-0.9c-0.6,0.7-1.5,1.1-2.6,1.1c-1.3,0-2.7-0.9-2.7-2.6c0-1.7,1.4-2.5,2.7-2.5
		c1.1,0,1.9,0.3,2.6,1.1v-1.4c0-1-0.8-1.6-2-1.6c-0.9,0-1.7,0.3-2.4,1.1l-0.6-0.8c0.8-0.9,1.8-1.3,3.1-1.3c1.6,0,3,0.7,3,2.6v5.3
		H205.2z M205.2,53v-1.5c-0.5-0.6-1.3-1-2.1-1c-1.1,0-1.9,0.7-1.9,1.7c0,1,0.8,1.7,1.9,1.7C203.9,54,204.7,53.7,205.2,53z"/>
	<path fill="#333333" d="M208.5,45c0-0.4,0.4-0.8,0.8-0.8c0.4,0,0.8,0.4,0.8,0.8s-0.4,0.8-0.8,0.8C208.9,45.8,208.5,45.5,208.5,45z
		 M208.7,54.7v-7.7h1.2v7.7H208.7z"/>
	<path fill="#333333" d="M217.6,54.7v-5.1c0-1.4-0.7-1.8-1.7-1.8c-0.9,0-1.8,0.6-2.3,1.2v5.7h-1.2v-7.7h1.2v1.1
		c0.5-0.6,1.6-1.3,2.8-1.3c1.6,0,2.5,0.8,2.5,2.5v5.4H217.6z"/>
	<path fill="#333333" d="M225.3,54.7v-7.7h1.2v1.2c0.6-0.8,1.5-1.4,2.6-1.4V48c-0.1,0-0.3,0-0.5,0c-0.7,0-1.7,0.6-2.1,1.2v5.5H225.3
		z"/>
	<path fill="#333333" d="M235.4,54.7v-0.9c-0.6,0.7-1.5,1.1-2.6,1.1c-1.3,0-2.7-0.9-2.7-2.6c0-1.7,1.4-2.5,2.7-2.5
		c1.1,0,1.9,0.3,2.6,1.1v-1.4c0-1-0.8-1.6-2-1.6c-0.9,0-1.7,0.3-2.4,1.1l-0.6-0.8c0.8-0.9,1.8-1.3,3.1-1.3c1.6,0,3,0.7,3,2.6v5.3
		H235.4z M235.4,53v-1.5c-0.5-0.6-1.3-1-2.1-1c-1.1,0-1.9,0.7-1.9,1.7c0,1,0.8,1.7,1.9,1.7C234.1,54,234.9,53.7,235.4,53z"/>
	<path fill="#333333" d="M239.2,53.1V48H238v-1.1h1.3v-2.1h1.2v2.1h1.6V48h-1.6v4.8c0,0.6,0.3,1,0.8,1c0.3,0,0.7-0.1,0.8-0.3
		l0.4,0.9c-0.3,0.3-0.7,0.5-1.4,0.5C239.8,54.9,239.2,54.2,239.2,53.1z"/>
	<path fill="#333333" d="M243.3,50.8c0-2.2,1.6-4,3.8-4c2.3,0,3.7,1.8,3.7,4.1v0.3h-6.3c0.1,1.5,1.1,2.7,2.8,2.7
		c0.9,0,1.8-0.4,2.4-1l0.6,0.8c-0.8,0.8-1.8,1.2-3.1,1.2C244.9,54.9,243.3,53.2,243.3,50.8z M247.1,47.7c-1.6,0-2.5,1.4-2.5,2.6h5.1
		C249.6,49.2,248.8,47.7,247.1,47.7z"/>
	<path fill="#333333" d="M266.2,54.7v-5.2c0-1-0.4-1.6-1.4-1.6c-0.8,0-1.6,0.6-2,1.2v5.7h-1.2v-5.2c0-1-0.4-1.6-1.4-1.6
		c-0.8,0-1.6,0.6-2,1.2v5.7h-1.2v-7.7h1.2v1.1c0.3-0.5,1.4-1.3,2.5-1.3c1.2,0,1.9,0.6,2.1,1.4c0.4-0.7,1.5-1.4,2.6-1.4
		c1.4,0,2.2,0.8,2.2,2.3v5.6H266.2z"/>
	<path fill="#333333" d="M279.1,54.7v-5.2c0-1-0.4-1.6-1.4-1.6c-0.8,0-1.6,0.6-2,1.2v5.7h-1.2v-5.2c0-1-0.4-1.6-1.4-1.6
		c-0.8,0-1.6,0.6-2,1.2v5.7h-1.2v-7.7h1.2v1.1c0.3-0.5,1.4-1.3,2.5-1.3c1.2,0,1.9,0.6,2.1,1.4c0.4-0.7,1.5-1.4,2.6-1.4
		c1.4,0,2.2,0.8,2.2,2.3v5.6H279.1z"/>
	<path fill="#333333" d="M281.5,55l3.8-11.3h0.9L282.4,55H281.5z"/>
	<path fill="#333333" d="M292.7,54.7v-5.1c0-1.4-0.7-1.8-1.7-1.8c-0.9,0-1.8,0.6-2.3,1.2v5.7h-1.2V44h1.2v4.1
		c0.5-0.6,1.6-1.3,2.8-1.3c1.6,0,2.5,0.8,2.5,2.5v5.5H292.7z"/>
	<path fill="#333333" d="M296.3,54.7v-7.7h1.2v1.2c0.6-0.8,1.5-1.4,2.6-1.4V48c-0.1,0-0.3,0-0.5,0c-0.7,0-1.7,0.6-2.1,1.2v5.5H296.3
		z"/>
</g>
</svg>
