<?xml version="1.0" encoding="utf-8"?>
<!-- Generator: Adobe Illustrator 18.1.0, SVG Export Plug-In . SVG Version: 6.00 Build 0)  -->
<!DOCTYPE svg PUBLIC "-//W3C//DTD SVG 1.1//EN" "http://www.w3.org/Graphics/SVG/1.1/DTD/svg11.dtd">
<svg version="1.1" id="Layer_1" xmlns="http://www.w3.org/2000/svg" xmlns:xlink="http://www.w3.org/1999/xlink" x="0px" y="0px"
	 width="90px" height="90px" viewBox="-465 368 90 90" enable-background="new -465 368 90 90" xml:space="preserve">
<g>
	<path fill="#3286C5" d="M-375.3,406c-0.2-0.2-0.4-0.2-0.7-0.1c-1,0.2-2.1,0.4-3.1,0.4c-6,0-10.8-3.9-10.8-8.7l0-0.2
		c0,0,0-0.1,0-0.2c0-0.2-0.1-0.4-0.2-0.6c-0.2-0.2-0.4-0.3-0.6-0.3h-3.8c-0.2,0-0.4,0.1-0.6,0.3c-0.2,0.2-0.2,0.4-0.2,0.6
		c0,0,0,0.1,0,0.2l0,0.2c0,4.8-4.8,8.7-10.8,8.7c-6,0-10.8-3.9-10.8-8.7l0-0.3c0-0.2-0.1-0.4-0.2-0.6c-0.2-0.2-0.4-0.2-0.6-0.2h-3.8
		c-0.2,0-0.4,0.1-0.6,0.2c-0.2,0.2-0.2,0.4-0.2,0.6l0,0.3c0,4.8-4.8,8.7-10.8,8.7c-6,0-10.8-3.9-10.8-8.7l0-0.2c0,0,0-0.1,0-0.2
		c0-0.2-0.1-0.4-0.2-0.6c-0.2-0.2-0.4-0.3-0.6-0.3h-3.8c-0.2,0-0.4,0.1-0.6,0.2c-0.2,0.2-0.2,0.4-0.2,0.6l0,0.3
		c0,4.8-4.8,8.7-10.8,8.7c-1.3,0-2.7-0.2-3.9-0.6c-0.2-0.1-0.5,0-0.7,0.1c-0.2,0.1-0.3,0.4-0.3,0.6v3.1c0,0.4,0.3,0.7,0.6,0.8
		c1.4,0.3,2.9,0.5,4.4,0.5c5.5,0,10.6-2.3,13.5-6.2c2.9,3.8,8,6.2,13.5,6.2c5.5,0,10.6-2.3,13.5-6.2c2.9,3.8,8,6.2,13.5,6.2
		c5.5,0,10.6-2.3,13.5-6.2c2.9,3.8,8,6.2,13.5,6.2c1.1,0,2.3-0.1,3.5-0.3c0.4-0.1,0.7-0.4,0.7-0.8v-3
		C-375,406.4-375.1,406.2-375.3,406"/>
	<path fill="#3286C5" d="M-376,424.7c-1,0.2-2.1,0.4-3.1,0.4c-6,0-10.8-3.9-10.8-8.7l0-0.2c0,0,0-0.1,0-0.2c0-0.2-0.1-0.4-0.2-0.6
		c-0.2-0.2-0.4-0.3-0.6-0.3h-3.8c-0.2,0-0.4,0.1-0.6,0.3c-0.2,0.2-0.2,0.4-0.2,0.6c0,0,0,0.1,0,0.2l0,0.2c0,4.8-4.8,8.7-10.8,8.7
		c-6,0-10.8-3.9-10.8-8.7l0-0.3c0-0.2-0.1-0.4-0.2-0.6c-0.1-0.2-0.4-0.2-0.6-0.2h-3.8c-0.2,0-0.4,0.1-0.6,0.2
		c-0.1,0.2-0.2,0.4-0.2,0.6l0,0.3c0,4.8-4.8,8.7-10.8,8.7c-6,0-10.8-3.9-10.8-8.7l0-0.2c0,0,0-0.1,0-0.2c0-0.2-0.1-0.4-0.2-0.6
		c-0.2-0.2-0.4-0.3-0.6-0.3h-3.8c-0.2,0-0.4,0.1-0.6,0.2c-0.2,0.2-0.2,0.4-0.2,0.6l0,0.3c0,4.8-4.8,8.7-10.8,8.7
		c-1.3,0-2.7-0.2-3.9-0.6c-0.2-0.1-0.5,0-0.7,0.1c-0.2,0.2-0.3,0.4-0.3,0.6v3.1c0,0.4,0.3,0.7,0.6,0.8c1.4,0.3,2.9,0.5,4.4,0.5
		c5.5,0,10.6-2.3,13.5-6.2c2.9,3.8,8,6.2,13.5,6.2c5.5,0,10.6-2.3,13.5-6.2c2.9,3.8,8,6.2,13.5,6.2c5.5,0,10.6-2.3,13.5-6.2
		c2.9,3.8,8,6.2,13.5,6.2c1.1,0,2.3-0.1,3.5-0.3c0.4-0.1,0.7-0.4,0.7-0.8v-3c0-0.2-0.1-0.5-0.3-0.6
		C-375.5,424.7-375.7,424.7-376,424.7"/>
</g>
</svg>
