<?xml version="1.0" encoding="utf-8"?>
<!-- Generator: Adobe Illustrator 18.1.0, SVG Export Plug-In . SVG Version: 6.00 Build 0)  -->
<!DOCTYPE svg PUBLIC "-//W3C//DTD SVG 1.1//EN" "http://www.w3.org/Graphics/SVG/1.1/DTD/svg11.dtd">
<svg version="1.1" id="Layer_1" xmlns="http://www.w3.org/2000/svg" xmlns:xlink="http://www.w3.org/1999/xlink" x="0px" y="0px"
	 width="90px" height="90px" viewBox="-465 359 90 90" enable-background="new -465 359 90 90" xml:space="preserve">
<path fill="#B2B3B8" d="M-407.9,385.7c5.5,3.4,9.1,9.2,9.1,15.7c0,10.5-9.5,19.1-21.2,19.1c-11.7,0-21.2-8.6-21.2-19.1
	c0-3.7,1.2-7.1,3.2-10c0.1,4,3.7,7.2,8.2,7.2c4.5,0,8.2-3.3,8.2-7.4c0-2.9-1.9-5.4-4.6-6.6c-3.7,0.5-7.4,1.3-10.8,2.6
	c-4.1,1.6-7.2,3.5-10.4,6.2c-3.5,2.9-6.6,6.2-9.7,9.4c-0.6,0.6-0.8,1.2-0.2,1.9c0.4,0.5,0.8,0.9,1.3,1.3c5.4,5.4,10.8,9.6,16.3,12.5
	c10.1,5.5,20.7,6.8,31.4,3.5c3.9-1.2,7.6-3,11-5.1c4.6-2.8,9.1-6.5,13.6-11c0.4-0.4,0.8-0.8,1.3-1.3c0.5-0.6,0.5-1.2,0-1.8
	c-2.2-2.2-4.4-4.5-6.6-6.6c-3.6-3.4-7.3-6.3-12-8.4C-403.4,387-405.6,386.2-407.9,385.7 M-453,390.3c2.5-2.3,5.4-4.3,8.5-6
	c14.3-7.7,34.2-7.6,48.3-0.4c4,2,7.4,4.7,10.6,7.6c0.2,0.2,7.7,7.4,9.5,9.7c2.1,2.5,1,4.3-1.5,6.8c-1.1,1.1-2.1,2.2-3.2,3.2
	c-7.1,7.1-14.8,12.1-22.6,15.1c-10.4,3.9-21.2,4.1-31.6,0.6c-8.4-2.8-16.6-8-24.2-15.6c-1.1-1.1-2.1-2.2-3.2-3.2
	c-2.6-2.6-3.6-4.4-1.3-7c0.6-0.6,1.2-1.3,1.8-1.9c0.8-0.8,1.5-1.5,2.3-2.4C-457.5,394.5-455.4,392.5-453,390.3"/>
</svg>
