<?xml version="1.0" encoding="iso-8859-1"?>
<!-- Generator: Adobe Illustrator 18.0.0, SVG Export Plug-In . SVG Version: 6.00 Build 0)  -->
<!DOCTYPE svg PUBLIC "-//W3C//DTD SVG 1.1//EN" "http://www.w3.org/Graphics/SVG/1.1/DTD/svg11.dtd">
<svg version="1.1" id="Layer_1" xmlns="http://www.w3.org/2000/svg" xmlns:xlink="http://www.w3.org/1999/xlink" x="0px" y="0px"
	 width="32px" height="65px" viewBox="0 0 32 65" style="enable-background:new 0 0 32 65;" xml:space="preserve">
<path style="fill:#213A7A;" d="M0,0h32v65H0V0z"/>
<g>
	<path style="fill:#FFFFFF;" d="M3.341,10.951V3.196h2.265v7.678c0,2.035,1.133,3.359,3.282,3.359c2.131,0,3.264-1.324,3.264-3.359
		V3.196h2.265v7.736c0,3.186-1.823,5.298-5.528,5.298C5.165,16.229,3.341,14.099,3.341,10.951"/>
	<path style="fill:#FFFFFF;" d="M20.828,15.999l-5.03-12.803h2.553l3.877,10.365l3.878-10.365h2.553l-5.03,12.803h-2.802"/>
	<path style="fill:#FFFFFF;" d="M2.621,23.809v-4.81h1.024v4.81H2.621"/>
	<path style="fill:#FFFFFF;" d="M9.358,23.809l-2.293-3.137v3.137H6.041v-4.81h1.053l2.228,3.02v-3.02h1.023v4.81L9.358,23.809"/>
	<path style="fill:#FFFFFF;" d="M12.744,23.809v-4.81h1.897c1.507,0,2.553,0.959,2.553,2.409s-1.046,2.402-2.553,2.402h-1.897
		V23.809z M16.147,21.408c0-0.851-0.519-1.507-1.507-1.507h-0.873v3.01h0.873c0.952,0,1.507-0.685,1.507-1.5"/>
	<path style="fill:#FFFFFF;" d="M19.366,23.809v-4.81h3.404v0.902h-2.38v1.016h2.33v0.901h-2.33v1.089h2.38v0.901L19.366,23.809
		L19.366,23.809z"/>
	<path style="fill:#FFFFFF;" d="M28.15,23.809l-1.204-1.76l-1.212,1.76h-1.218l1.745-2.466l-1.637-2.344h1.218l1.104,1.645
		l1.089-1.645h1.233l-1.637,2.337l1.745,2.473H28.15"/>
</g>
<g>
	<path style="fill:#DF0029;" d="M8.05,61.27V37.26l-3.249,5.605L2.43,38.649l6.147-10.468h3.63v33.09H8.05"/>
	<path style="fill:#DF0029;" d="M13.41,44.751c0-8.532,2.488-17.07,8.08-17.07c5.561,0,8.08,8.533,8.08,17.07
		s-2.517,17.11-8.08,17.11C15.899,61.861,13.41,53.279,13.41,44.751 M25.323,44.751c0-6.102-1.054-10.814-3.834-10.814
		c-2.81,0-3.864,4.713-3.864,10.814s1.054,10.863,3.864,10.863C24.27,55.614,25.323,50.853,25.323,44.751"/>
</g>
</svg>
